<svg width="114" height="31" viewBox="0 0 114 31" fill="none" xmlns="http://www.w3.org/2000/svg">
<path d="M12.4972 0.55957H0V30.3667L12.4972 0.55957Z" fill="#52606D"/>
<path d="M21.29 0.55957H33.771V30.3667L21.29 0.55957Z" fill="#52606D"/>
<path d="M16.8934 11.5459L24.8476 30.3672H19.6289L17.2516 24.3749H11.4304L16.8934 11.5459Z" fill="#52606D"/>
<path d="M54.1592 19.5152L55.6328 23.7293C55.6816 23.8349 55.7549 23.8836 55.8852 23.8836H58.7184C58.8731 23.8836 58.8975 23.8105 58.8731 23.6562L53.0194 7.44138C52.9949 7.31147 52.9705 7.28711 52.8403 7.28711H49.3231C49.2254 7.28711 49.1684 7.36019 49.1684 7.46574C49.1196 8.3183 49.0463 8.57813 48.9405 8.82983L43.7218 23.6319C43.6974 23.8105 43.7544 23.8836 43.9009 23.8836H46.4329C46.5876 23.8836 46.6609 23.8349 46.7179 23.6806L48.11 19.5152H54.1592ZM48.9161 16.7627C49.6814 14.4567 50.6909 11.5012 51.098 9.81231H51.1224C51.6272 11.5824 52.8158 15.0901 53.3532 16.7627H48.9161Z" fill="#52606D"/>
<path d="M66.3984 24.1351C67.9208 24.1351 69.541 23.859 71.1856 23.1526C71.3158 23.1039 71.3402 23.0471 71.3402 22.9253C71.2914 22.4706 71.2344 21.8129 71.2344 21.3095V6.04459C71.2344 5.94716 71.2344 5.89844 71.1123 5.89844H68.3523C68.2465 5.89844 68.1976 5.94716 68.1976 6.07707V11.2493C67.7661 11.2005 67.4649 11.1762 67.1067 11.1762C62.6533 11.1762 59.9177 14.1074 59.9177 17.7693C59.9177 22.0159 62.7265 24.1351 66.3984 24.1351ZM68.1976 21.3095C67.7417 21.4556 67.2369 21.5125 66.724 21.5125C64.7049 21.5125 63.0522 20.3757 63.0522 17.615C63.0522 15.171 64.7538 13.7257 67.009 13.7257C67.4649 13.7257 67.8638 13.7745 68.1976 13.9044V21.3095Z" fill="#52606D"/>
<path d="M80.1452 11.1763C76.3431 11.1763 73.9902 14.0831 73.9902 17.672C73.9902 20.8792 75.8628 24.1352 80.0882 24.1352C83.6623 24.1352 86.1699 21.5125 86.1699 17.5908C86.1699 14.1318 84.045 11.1763 80.1452 11.1763ZM79.9905 13.7258C82.1399 13.7258 83.0517 15.569 83.0517 17.672C83.0517 20.2702 81.7084 21.5613 80.1452 21.5613C78.2157 21.5613 77.0759 19.9455 77.0759 17.6151C77.0759 15.2198 78.2889 13.7258 79.9905 13.7258Z" fill="#52606D"/>
<path d="M89.0234 5.89844C88.9175 5.89844 88.8442 5.94716 88.8442 6.07707V23.3556C88.8442 23.4287 88.9175 23.5586 89.0234 23.583C90.2364 23.9565 91.5065 24.1351 92.8173 24.1351C96.5705 24.1351 100.218 21.8129 100.218 17.136C100.218 13.7501 97.8894 11.1762 94.2421 11.1762C93.4035 11.1762 92.6219 11.3061 91.938 11.5334L91.9054 6.10143C91.9054 5.9228 91.8566 5.89844 91.6775 5.89844H89.0234ZM97.0997 17.4445C97.0997 20.2458 95.1783 21.5612 93.1022 21.5612C92.6707 21.5612 92.2881 21.5368 91.938 21.4313V14.0586C92.3369 13.9044 92.8173 13.7745 93.7047 13.7745C95.7075 13.7745 97.0997 15.0411 97.0997 17.4445Z" fill="#52606D"/>
<path d="M110.518 18.354C111.756 18.354 112.774 18.3296 113.124 18.2484C113.254 18.2241 113.303 18.1754 113.327 18.0698C113.401 17.7938 113.433 17.2173 113.433 16.5109C113.433 14.1074 111.984 11.1763 108.239 11.1763C104.412 11.1763 102.287 14.2861 102.287 17.7938C102.287 20.9036 103.932 24.1352 108.54 24.1352C110.266 24.1352 111.381 23.8591 112.342 23.4044C112.44 23.3557 112.489 23.2745 112.489 23.1283V21.0254C112.489 20.9036 112.415 20.8792 112.342 20.9279C111.381 21.3339 110.339 21.5369 109.199 21.5369C106.619 21.5369 105.446 20.116 105.373 18.354H110.518ZM105.373 16.178C105.577 14.9438 106.358 13.604 108.109 13.604C110.038 13.604 110.543 15.2198 110.543 15.9506C110.543 15.975 110.543 16.0805 110.543 16.1536C110.437 16.178 110.111 16.178 109.151 16.178H105.373Z" fill="#52606D"/>
</svg>
