<?xml version="1.0" encoding="utf-8"?>
<svg width="75" height="88" viewBox="49.246 2.78 28.617 30.433" xmlns="http://www.w3.org/2000/svg">
  <defs>
    <path id="a" d="M0 87.0434084h75V.23778135H0z"/>
  </defs>
  <g fill="none" fill-rule="evenodd" transform="matrix(0.390003, 0, 0, 0.390003, 48.993717, -0.58763)" style="">
    <mask id="b" fill="#fff">
      <path d="M0 87.0434084h75V.23778135H0z" transform="matrix(1, 0, 0, 1, 0, 0)"/>
    </mask>
    <path fill="#FFF" d="M.00072347 77.9937299H75V.23778135H.00072347z" mask="url(#b)"/>
    <path fill="#FF322E" d="M0 77.9937299h75v9.0641479H.00072347L0 77.9937299" mask="url(#b)"/>
    <path fill="#000" d="M17.2632637 20.6990354 4.6562701 58.5147106h9.1278135l8.5630225-26.7294212 4.291881 13.3632637h-5.5519292l-2.2172026 7.6282958h10.2190515l1.8426848 5.7378617h9.388746L27.714791 20.6990354H17.2632637m37.4006431 0h-13.104984v37.8156752h9.062701V28.3275723h3.6518489c4.2373794 0 6.6499196 2.0206592 6.6499196 5.6720258 0 3.5860128-2.4125402 5.672508-6.6499196 5.672508h-.5867364v7.6282958h.9771705c9.7799035 0 15.5175241-4.9229903 15.5175241-13.3008038 0-8.5410772-5.7376206-13.3005627-15.5175241-13.3005627"/>
  </g>
</svg>