<svg width="100" height="100" viewBox="0 0 100 100" fill="none" xmlns="http://www.w3.org/2000/svg">
<g clip-path="url(#clip0_5220_51965)">
<path d="M76.0305 27.0836C76.0305 41.3365 64.3481 52.9526 49.9966 52.9526C35.6382 52.9526 23.9627 41.3504 23.9697 27.0906C23.9767 12.8099 35.6451 1.24245 50.0106 1.24939C64.3621 1.26327 76.0235 12.8377 76.0305 27.0836ZM75.2969 27.0906C75.2969 13.2401 63.9359 1.97106 49.9896 1.98494C36.0225 1.99881 24.7034 13.2401 24.7104 27.1044C24.7104 40.9618 36.0644 52.2309 50.0036 52.224C63.9428 52.224 75.3038 40.9341 75.2969 27.0906Z" fill="white"/>
<path d="M34.1639 99.5C33.2206 96.9187 32.2843 94.379 31.3551 91.8393C31.3201 91.8393 31.2922 91.8393 31.2572 91.8393C30.293 94.372 29.3288 96.9048 28.3646 99.4306C28.3157 99.4306 28.3017 99.4237 28.2877 99.4168C28.2737 99.4168 28.2528 99.4098 28.2528 99.3959C26.7156 95.5864 25.1785 91.7838 23.6413 87.9742C23.6134 87.9117 23.6064 87.8354 23.5645 87.6966C24.1444 87.6966 24.6894 87.6966 25.2274 87.6966C25.444 87.6966 25.4649 87.8979 25.5208 88.0436C25.9191 89.0428 26.3104 90.049 26.7017 91.0552C27.1628 92.2209 27.617 93.3936 28.0781 94.5594C28.134 94.6982 28.1899 94.83 28.2877 95.059C28.5602 94.5108 28.7209 93.9973 28.9166 93.4977C29.1192 92.9773 29.3218 92.4499 29.5174 91.9225C29.7131 91.4091 29.9087 90.9025 30.0974 90.389C30.3 89.8616 30.4956 89.3412 30.6983 88.8138C30.8939 88.3073 31.0895 87.8007 31.3341 87.2872C31.6625 87.8979 31.8581 88.5501 32.0957 89.1885C32.3332 89.8269 32.5638 90.4653 32.7944 91.1037C33.032 91.756 33.2695 92.4083 33.5071 93.0606C33.7377 93.699 33.9752 94.3304 34.2477 95.0798C34.3595 94.837 34.4364 94.6843 34.4992 94.5316C35.3866 92.4013 36.274 90.278 37.1613 88.1477C37.3779 87.6203 37.322 87.6897 37.874 87.6828C38.2862 87.6828 38.6985 87.6828 39.1177 87.6828C39.0828 88.0436 34.4783 98.9796 34.1499 99.4792L34.1639 99.5Z" fill="white"/>
<path d="M18.1704 58.6149C18.0796 58.5039 17.9887 58.3929 17.8979 58.2818C17.4787 57.7961 17.1154 57.2757 16.8848 56.672C16.4167 55.4715 16.7381 54.1739 17.7163 53.3204C17.7512 53.3343 17.8071 53.3343 17.828 53.362C18.6246 54.1878 19.3163 55.0898 19.7565 56.1585C20.1128 57.0397 20.0988 57.9141 19.7425 58.7884C19.7076 58.8647 19.6656 58.941 19.6098 59.0382C19.477 58.7329 19.3932 58.4414 19.2394 58.1916C19.0857 57.9488 18.8621 57.7545 18.6525 57.5116C18.3311 57.8308 18.3102 58.1639 18.4289 58.4969C18.5617 58.8855 18.7573 59.2464 19.1276 59.4892C20.1547 60.1693 21.1469 60.9048 22.195 61.5432C23.1173 62.1053 24.1094 62.5633 25.0597 63.0767C25.3042 63.2086 25.5278 63.3821 25.7374 63.5625C25.8702 63.6804 25.9331 63.8609 25.8562 64.0482C25.7654 64.2564 25.5767 64.3258 25.3811 64.298C25.1365 64.2633 24.878 64.2148 24.6614 64.1037C20.9722 62.3204 17.7163 59.9472 14.9354 56.9426C10.7292 52.3975 8.05312 47.0683 6.70461 41.0659C6.08974 38.3181 5.78231 35.5286 5.83122 32.7113C5.96398 25.0852 8.10901 18.1114 12.6646 11.9218C13.8384 10.3327 15.159 8.87551 16.6123 7.53627C16.7311 7.43218 16.8499 7.3281 17.0315 7.27258C16.9756 7.34197 16.9197 7.4183 16.8568 7.48076C11.4069 12.6712 8.17888 19.0135 6.88627 26.369C6.32032 29.5748 6.21551 32.7946 6.52993 36.0351C7.07492 41.6141 8.79375 46.7907 11.8261 51.5301C13.4821 54.1114 15.4874 56.4013 17.8141 58.4067C17.9119 58.49 18.0237 58.5733 18.1215 58.6565C18.1425 58.6427 18.1634 58.6218 18.1844 58.608L18.1704 58.6149Z" fill="white"/>
<path d="M50.8978 75.6018C50.8908 78.8354 48.2846 81.3127 44.9588 81.3473C42.4644 81.3751 39.1246 79.3419 39.1525 75.463C39.1805 72.4237 41.8984 69.7313 45.1265 69.7591C48.2148 69.7868 50.9956 72.4653 50.8978 75.5948V75.6018ZM44.9867 79.7444C47.3274 79.7583 49.1231 77.968 49.179 75.6434C49.2419 73.2355 47.2925 71.4036 45.1125 71.3689C42.9116 71.3342 40.8923 73.0968 40.8923 75.4908C40.8923 77.857 42.681 79.7305 44.9937 79.7375L44.9867 79.7444Z" fill="white"/>
<path d="M25.0036 72.0628C24.6193 72.4306 24.235 72.7914 23.8368 73.18C23.6062 72.9371 23.4106 72.722 23.2079 72.5139C21.1677 70.4807 17.5065 71.2162 16.5283 74.1168C15.5291 77.0659 17.4855 79.1546 19.4978 79.6542C20.9092 80.0011 22.4044 79.4182 23.2009 78.2178C23.4455 77.8431 23.6272 77.4475 23.6411 76.9271C22.7258 76.8994 21.8315 76.9271 20.9092 76.9063V75.4144C21.2236 75.2964 24.9337 75.2687 25.4997 75.3797C25.5137 75.4838 25.5416 75.5948 25.5346 75.7058C25.4927 76.2332 25.4578 76.7675 25.3879 77.288C25.1643 78.9533 23.5782 80.9795 21.0629 81.2987C18.2261 81.6665 15.5501 79.9179 14.7745 77.1908C13.8592 73.978 15.8086 70.6264 19.0576 69.9186C21.3843 69.4051 23.3407 70.106 24.8988 71.8893C24.9337 71.931 24.9617 71.9865 25.0106 72.0628H25.0036Z" fill="white"/>
<path d="M68.5541 98.813V87.7521C68.6589 87.7313 68.7428 87.7036 68.8266 87.7036C69.9725 87.7244 71.1184 87.7036 72.2573 87.7868C74.5071 87.9464 76.3377 89.4036 76.9596 91.4784C77.3159 92.665 77.3508 93.8793 76.9596 95.059C76.2469 97.1893 74.7377 98.473 72.5018 98.7575C71.2581 98.9171 69.9795 98.8408 68.7148 98.8685C68.6729 98.8685 68.631 98.8477 68.5471 98.82L68.5541 98.813ZM70.2799 89.3273C70.1751 90.2086 70.217 96.9395 70.3288 97.2587C70.7341 97.2587 71.1533 97.2726 71.5655 97.2587C71.859 97.2448 72.1594 97.2032 72.4459 97.1477C72.9909 97.0436 73.494 96.8215 73.9342 96.4815C75.2338 95.4892 75.646 94.15 75.4224 92.5956C75.2547 91.3813 74.6399 90.4306 73.5429 89.8547C72.5228 89.3204 71.4118 89.2787 70.2659 89.3342L70.2799 89.3273Z" fill="white"/>
<path d="M60.8194 75.0952C61.1478 75.3242 61.4692 75.4907 61.7277 75.7267C62.7897 76.6843 62.9854 78.419 62.1749 79.6195C61.6369 80.4175 60.8963 80.924 59.9181 81.0489C59.4918 81.1045 59.0586 81.1322 58.6324 81.1391C57.9198 81.153 57.2071 81.1391 56.4944 81.1391C56.3477 81.1391 56.2009 81.1391 56.0682 81.1391C55.9494 80.7089 55.9564 70.3766 56.0682 70.0019C56.8507 70.0019 57.6333 69.988 58.4158 70.0088C58.7862 70.0227 59.1565 70.0713 59.5128 70.1684C60.6866 70.4807 61.3085 71.3134 61.581 72.4375C61.8046 73.3604 61.6019 74.1931 60.9661 74.9148C60.9172 74.9703 60.8753 75.0258 60.8264 75.0883L60.8194 75.0952ZM57.7101 76.2124C57.6892 77.3226 57.6962 78.3982 57.7032 79.5085C58.2761 79.5085 58.7931 79.5223 59.3102 79.5015C59.5268 79.4946 59.7504 79.4252 59.953 79.3489C60.5958 79.1129 60.9661 78.5647 60.9661 77.8847C60.9661 77.1908 60.5818 76.6149 59.925 76.3928C59.2263 76.1499 58.4997 76.1708 57.7101 76.2193V76.2124ZM57.7032 74.7274C58.2132 74.776 58.6534 74.7899 59.0866 74.6442C59.5408 74.4915 59.8622 74.1862 59.946 73.7213C60.0089 73.3812 60.0089 73.0204 59.967 72.6735C59.8971 72.1461 59.5477 71.813 59.0377 71.6534C58.6185 71.5216 58.1992 71.5354 57.7032 71.591C57.6962 72.6318 57.7032 73.6519 57.7032 74.7205V74.7274Z" fill="white"/>
<path d="M58.3181 94.372V98.8478C57.7381 98.8894 57.2001 98.8755 56.6272 98.8478V87.7868C56.6761 87.7522 56.6971 87.7244 56.725 87.7244C57.9128 87.6897 59.1006 87.6342 60.2814 87.8632C61.595 88.1199 62.5033 88.8485 62.8178 90.1739C63.244 91.9989 62.2728 93.5879 60.7007 94.0528C60.6448 94.0667 60.5889 94.0945 60.4771 94.143C60.7356 94.5525 61.0291 94.9202 61.3016 95.2949C61.588 95.6905 61.8745 96.086 62.168 96.4746C62.4474 96.8562 62.7269 97.2379 63.0064 97.6195C63.2859 98.0012 63.5584 98.3759 63.8728 98.8131C63.7051 98.8408 63.6073 98.8616 63.5095 98.8616C63.1392 98.8616 62.7619 98.8269 62.3985 98.8755C61.9514 98.931 61.6998 98.7298 61.4623 98.3828C60.6028 97.1199 59.7225 95.8848 58.8421 94.6427C58.7373 94.4969 58.6674 94.2749 58.3251 94.372H58.3181ZM58.381 92.8107C59.0587 92.8524 59.7085 92.8385 60.3234 92.5609C60.9871 92.2556 61.2736 91.6936 61.2247 90.84C61.1898 90.1878 60.8334 89.7228 60.1836 89.5008C59.5967 89.3065 58.9958 89.2788 58.3949 89.3343C58.2901 89.6951 58.2831 92.3666 58.3879 92.8107H58.381Z" fill="white"/>
<path d="M21.2238 98.8616C20.6997 98.8616 20.1687 98.8616 19.6307 98.8616C19.4421 98.8616 19.3862 98.7228 19.3303 98.584C19.0438 97.9318 18.7434 97.2934 18.4848 96.6272C18.3451 96.2733 18.1564 96.1345 17.7652 96.1415C16.4726 96.1692 15.18 96.1623 13.8873 96.1415C13.5869 96.1415 13.4262 96.2386 13.3144 96.5092C13.0279 97.1754 12.6925 97.8207 12.4201 98.4869C12.2943 98.7853 12.1196 98.8755 11.8122 98.8616C11.372 98.8408 10.9318 98.8616 10.3938 98.8616C12.2524 94.8924 14.076 91.0065 15.8926 87.1345C15.9415 87.1345 15.9555 87.1345 15.9695 87.1345C15.9835 87.1345 16.0044 87.1415 16.0114 87.1553C17.7163 90.9094 19.4281 94.6565 21.1329 98.4105C21.1819 98.5146 21.2238 98.6257 21.2587 98.7436C21.2657 98.7644 21.2517 98.7991 21.2378 98.8685L21.2238 98.8616ZM14.2367 94.4969C14.7747 94.601 17.1713 94.5871 17.5416 94.483C17.0106 93.2964 16.5145 92.096 15.9206 90.84C15.3337 92.1099 14.7957 93.2826 14.2367 94.4969Z" fill="white"/>
<path d="M52.1624 98.8616C51.6244 98.8616 51.0934 98.8616 50.5624 98.8616C50.3458 98.8616 50.3038 98.695 50.2409 98.5493C49.9545 97.8971 49.654 97.2587 49.4025 96.5994C49.2697 96.2525 49.0671 96.1484 48.7038 96.1484C47.4252 96.1692 46.1465 96.1692 44.8679 96.1484C44.5115 96.1484 44.3369 96.2664 44.2041 96.5856C43.8827 97.3419 43.5194 98.0913 43.17 98.8477H41.4163C41.4512 98.5216 46.5098 87.655 46.8592 87.1345C47.0968 87.4051 52.0855 98.4383 52.1554 98.8685L52.1624 98.8616ZM46.9011 90.9302C46.9011 90.9302 46.8313 90.9302 46.7963 90.9302C46.2513 92.1099 45.7063 93.2964 45.1613 94.49C45.5875 94.6079 48.068 94.601 48.4592 94.49C47.9352 93.3034 47.4182 92.1237 46.9011 90.9441V90.9302Z" fill="white"/>
<path d="M81.5572 58.8577C81.7389 58.7397 81.9415 58.6357 82.1022 58.4969C85.7844 55.3604 88.5793 51.5647 90.5566 47.1723C92.1007 43.7513 93.058 40.1707 93.4423 36.4375C94.1689 29.436 93.03 22.7536 89.8509 16.446C88.0971 12.9626 85.7704 9.90243 82.8918 7.25864C82.787 7.16149 82.6682 7.08516 82.5564 6.99496C82.5843 6.96026 82.6193 6.92556 82.6472 6.89087C82.7939 7.02271 82.9477 7.14762 83.0944 7.27946C87.0002 10.7976 89.8439 15.0374 91.7374 19.9086C92.9322 22.9826 93.6868 26.1677 93.9942 29.4499C94.672 36.6873 93.4353 43.5778 90.0116 50.0243C86.6927 56.2625 81.8088 60.9394 75.4435 64.0759C75.199 64.2008 74.9195 64.2633 74.647 64.3188C74.4514 64.3535 74.2557 64.291 74.1649 64.0828C74.0811 63.8886 74.137 63.6873 74.2837 63.5555C74.4793 63.382 74.6959 63.2155 74.9335 63.1044C76.4497 62.3828 77.924 61.5778 79.3074 60.6272C79.9782 60.1623 80.614 59.6488 81.2638 59.163C81.3127 59.1283 81.3686 59.1075 81.4245 59.0867C81.4734 59.0173 81.5153 58.9479 81.5642 58.8716L81.5572 58.8577Z" fill="white"/>
<path d="M73.8016 74.2278V75.8238H69.5674C69.4416 76.1708 69.4137 78.8979 69.5255 79.5293C70.9718 79.5432 72.4391 79.5293 73.9413 79.5363V81.0559C73.6339 81.16 68.3447 81.1878 67.8276 81.0906C67.7368 80.7437 67.7298 70.4669 67.8136 70.0436C68.142 69.9603 73.3614 69.9325 73.9343 70.0228V71.5424C73.4592 71.6257 72.9771 71.5702 72.495 71.5771C72.0059 71.5841 71.5168 71.5771 71.0207 71.5771H69.5045C69.4346 72.4653 69.4626 73.3258 69.4836 74.2278H73.8016Z" fill="white"/>
<path d="M79.1675 81.1114V70.0574C79.5168 69.9603 84.7502 69.9394 85.3091 70.0297V71.5632C83.8488 71.5979 82.3885 71.5632 80.8863 71.584C80.8374 72.4653 80.8584 73.3118 80.8793 74.2209H85.1973V75.803C84.7292 75.8654 84.2541 75.8238 83.7859 75.8307C83.3108 75.8377 82.8357 75.8307 82.3606 75.8307H80.9562C80.8514 76.1916 80.8304 78.9603 80.9282 79.5293H85.3301V81.1045H79.1815L79.1675 81.1114Z" fill="white"/>
<path d="M81.7529 95.7807C82.3259 95.6558 82.8639 95.5378 83.4438 95.406C83.4787 95.5725 83.5137 95.7043 83.5486 95.8431C83.6255 96.2039 83.7163 96.5648 83.9678 96.8562C84.5128 97.4807 85.2185 97.5918 85.9592 97.3905C86.6858 97.1962 87.098 96.6689 87.2029 95.9264C87.3077 95.1631 87.0491 94.5525 86.3854 94.15C86.0849 93.9626 85.7565 93.8169 85.4351 93.6642C85.0718 93.4977 84.6945 93.3589 84.3312 93.1924C83.856 92.9773 83.4159 92.7066 83.0386 92.3319C82.0394 91.3327 81.9835 89.7506 82.8988 88.6681C84.2054 87.1137 87.3566 86.8778 88.6352 89.3828C88.223 89.6812 87.7688 89.9171 87.3007 90.1878C87.1819 90.0282 87.0701 89.8894 86.9723 89.7506C86.3784 88.8832 85.0159 89.0081 84.4569 89.4938C83.8351 90.0351 83.8211 90.8539 84.4779 91.3605C84.6945 91.5339 84.953 91.6588 85.2115 91.7699C85.6168 91.9572 86.043 92.096 86.4413 92.2834C86.8325 92.4638 87.2168 92.6581 87.5732 92.894C88.4396 93.463 88.8937 94.2749 88.9496 95.3019C89.0754 97.6542 87.2518 99.0143 85.5749 99.0559C85.0229 99.0698 84.4709 99.0351 83.9539 98.8339C82.7521 98.369 82.1163 97.4322 81.8298 96.2317C81.8018 96.1068 81.7879 95.975 81.7529 95.7807Z" fill="white"/>
<path d="M94.7559 38.4846C95.8039 37.9989 95.8668 37.0551 96.0345 36.0906C95.0982 36.0004 94.693 36.5763 94.3157 37.2286C94.3436 37.0274 94.3716 36.8261 94.4065 36.6319C94.6091 35.5563 94.8467 34.4877 95.2869 33.4815C95.5105 32.968 95.769 32.4615 96.0904 32.0035C96.7472 31.0667 97.6834 30.5116 98.8084 30.2826C99.004 30.2409 99.2136 30.2479 99.4372 30.234C99.4652 30.3936 99.5001 30.5046 99.5001 30.6226C99.542 32.1631 99.4162 33.6897 98.9691 35.1816C98.7385 35.9518 98.3961 36.6665 97.8581 37.2841C97.1245 38.1307 96.1952 38.554 95.0773 38.5748C95.0004 38.5748 94.9305 38.5748 94.8537 38.5609C94.8327 38.5609 94.8118 38.5262 94.7489 38.4776L94.7559 38.4846Z" fill="white"/>
<path d="M0.604883 30.2479C1.14289 30.2201 1.61102 30.3659 2.06518 30.5532C3.09229 30.9834 3.8399 31.719 4.34996 32.6905C4.88797 33.7036 5.1954 34.7999 5.43995 35.9102C5.54475 36.3682 5.62161 36.8331 5.72642 37.3952C5.47488 37.0205 5.30719 36.7013 5.0836 36.4376C4.83207 36.1461 4.47573 36.042 4.08445 36.0767C3.85388 36.8886 4.39887 38.0266 5.28623 38.5193C5.15348 38.5471 5.06264 38.5748 4.97181 38.5748C3.78401 38.5748 2.8128 38.1099 2.0582 37.1939C1.38045 36.3682 1.04507 35.4037 0.814496 34.3836C0.535012 33.1554 0.465141 31.8994 0.507064 30.6434C0.507064 30.5532 0.521038 30.47 0.535012 30.3797C0.541999 30.3381 0.569948 30.3034 0.597896 30.241L0.604883 30.2479Z" fill="white"/>
<path d="M30.6353 81.0837V69.995C30.9217 69.9881 31.1802 69.9811 31.4458 69.9742C31.7113 69.9742 31.9768 69.9742 32.2982 69.9742C32.3471 70.4599 32.3191 70.911 32.3261 71.362C32.3261 71.8061 32.3261 72.2502 32.3261 72.6874V79.5154C33.4231 79.564 34.4851 79.5085 35.5821 79.5501V81.0559C35.2887 81.16 31.2152 81.1878 30.6353 81.0767V81.0837Z" fill="white"/>
<path d="M94.4764 43.7375C93.6449 43.4946 93.1907 43.904 92.7785 44.4869C92.7575 44.4175 92.7366 44.3759 92.7436 44.3551C93.2257 43.0991 93.7776 41.8709 94.6091 40.7953C95.0772 40.1847 95.6502 39.7059 96.3699 39.4144C96.9568 39.1785 97.5716 39.0883 98.2005 39.1369C98.3402 39.1507 98.4799 39.1924 98.6756 39.2271C98.6267 39.5324 98.5848 39.81 98.5289 40.0806C98.2843 41.2533 97.928 42.3913 97.355 43.4599C96.9917 44.133 96.5515 44.7367 95.9366 45.2016C95.0493 45.8747 94.0571 46.0413 92.9881 45.7637C92.9462 45.7498 92.9112 45.7221 92.8274 45.6735C93.9104 45.4653 94.1619 44.6187 94.4694 43.7444L94.4764 43.7375Z" fill="white"/>
<path d="M1.35247 39.2131C1.98829 39.0466 2.5822 39.1021 3.18308 39.2617C4.00057 39.4768 4.66435 39.9348 5.20235 40.5663C5.77529 41.2324 6.20849 41.9888 6.57881 42.7798C6.83733 43.335 7.07489 43.904 7.27053 44.4868C7.03297 44.2578 6.80938 44.0011 6.54387 43.8137C6.25041 43.6056 5.90805 43.6125 5.57267 43.7166C5.65651 44.695 6.28535 45.4652 7.22861 45.6665C7.03297 45.7289 6.91419 45.7775 6.79541 45.7983C5.8242 46.0065 4.93684 45.833 4.13333 45.2571C3.58135 44.8616 3.15514 44.355 2.81277 43.7721C2.01624 42.4329 1.59003 40.9618 1.33151 39.4421C1.32452 39.3866 1.33151 39.3242 1.33849 39.2201L1.35247 39.2131Z" fill="white"/>
<path d="M94.4483 29.6234C94.3644 28.1315 94.3574 26.6465 94.7767 25.1893C95.154 23.8847 95.9435 22.9202 97.2152 22.3651C97.3759 22.2957 97.5435 22.254 97.7741 22.1708C97.865 22.601 97.9628 22.9826 98.0326 23.3712C98.2353 24.537 98.3401 25.7097 98.1794 26.8963C98.0816 27.6527 97.8719 28.3674 97.4597 29.0197C96.9846 29.7621 96.3208 30.2548 95.4684 30.4907C95.3566 30.5185 95.2448 30.5254 95.0142 30.5671C95.8666 29.8732 95.7828 29.0266 95.7409 28.187C95.0701 28.1315 94.7208 28.5409 94.4483 29.6234Z" fill="white"/>
<path d="M5.47478 29.443C5.34202 28.7977 5.0835 28.2564 4.35685 28.1246C4.0005 28.8185 4.27999 29.9287 5.00664 30.581C4.80402 30.5463 4.66428 30.5324 4.53152 30.4977C3.51141 30.2132 2.79174 29.5748 2.31662 28.645C2.02316 28.0691 1.86246 27.4584 1.79957 26.82C1.65284 25.3351 1.79957 23.8709 2.15591 22.4276C2.16989 22.3582 2.2188 22.2957 2.26771 22.1917C2.47033 22.261 2.67296 22.3166 2.85462 22.3998C4.02845 22.9411 4.79005 23.8432 5.17433 25.0644C5.52369 26.1747 5.58657 27.3266 5.60055 28.4785C5.60055 28.7977 5.58657 29.1169 5.57959 29.4361L5.47478 29.4499V29.443Z" fill="white"/>
<path d="M93.0858 37.069C92.9041 36.3404 92.5827 35.7714 91.6814 35.6742C91.6115 36.5971 91.5906 37.4576 92.3661 38.1376C92.2264 38.096 92.0867 38.0682 91.9539 38.0127C90.6403 37.5131 89.6901 36.6388 89.1521 35.3342C88.7329 34.3142 88.5372 33.2455 88.4324 32.1561C88.3975 31.7883 88.3835 31.4206 88.3625 31.0528C88.67 30.9071 88.9704 30.9556 89.2569 30.9695C90.4657 31.0389 91.4788 31.5108 92.1705 32.5239C93.1068 33.8978 93.1766 35.4661 93.0858 37.069Z" fill="white"/>
<path d="M11.6374 31.032C11.5955 31.5455 11.5745 32.0451 11.5186 32.5377C11.4068 33.5508 11.1972 34.5431 10.778 35.4869C10.1631 36.8747 9.0871 37.7212 7.61283 38.1306C8.37442 37.4714 8.40237 36.6249 8.31852 35.7367C7.61283 35.6673 7.0888 36.1114 6.90015 37.3396C6.78137 35.9379 6.84425 34.5501 7.41719 33.2386C8.25564 31.3026 10.1701 30.7752 11.6374 31.0389V31.032Z" fill="white"/>
<path d="M96.244 47.1446C96.2091 47.2903 96.1951 47.3666 96.1671 47.436C95.72 48.581 95.154 49.6634 94.3715 50.628C93.9313 51.1692 93.4282 51.648 92.7854 51.9603C91.8142 52.4391 90.85 52.3975 89.8857 51.8631C90.836 51.8076 91.2342 51.1207 91.6325 50.4337C91.1783 50.0729 90.9757 50.1006 90.0115 50.6557C90.0115 50.6419 89.9975 50.628 90.0045 50.621C90.7102 49.4483 91.5067 48.352 92.6177 47.5193C93.54 46.8254 94.5811 46.6588 95.699 46.9364C95.8807 46.985 96.0483 47.0682 96.251 47.1446H96.244Z" fill="white"/>
<path d="M8.34637 50.3921C8.74464 51.1068 9.12893 51.7799 10.1141 51.8215C9.79969 52.106 9.43636 52.1824 9.08002 52.2448C8.34637 52.3697 7.66164 52.224 7.01883 51.8562C6.52274 51.5717 6.10352 51.197 5.74019 50.7668C4.88078 49.7467 4.26592 48.5949 3.79778 47.3528C3.77682 47.2972 3.76983 47.2417 3.75586 47.1723C4.0563 46.9295 4.41265 46.8809 4.75501 46.8323C5.72622 46.7074 6.63454 46.9087 7.39613 47.5262C7.90619 47.9495 8.38131 48.4214 8.81451 48.9279C9.27566 49.4692 9.65995 50.0659 10.0233 50.6905C9.77174 50.5378 9.53418 50.3435 9.26867 50.2394C8.98919 50.1284 8.68175 50.1492 8.35336 50.3851L8.34637 50.3921Z" fill="white"/>
<path d="M88.4743 37.4437C89.3686 37.5547 90.1442 37.8809 90.787 38.4915C91.4997 39.1646 91.8211 40.025 91.905 40.9757C91.9958 41.968 91.863 42.9464 91.6255 43.9109C91.6115 43.9803 91.5696 44.0428 91.5137 44.1052C91.5346 43.3697 91.4089 42.7174 90.5495 42.419C90.2979 43.224 90.1372 43.9873 90.6612 44.7644C90.5634 44.7159 90.4586 44.6742 90.3678 44.6187C89.152 43.8277 88.4603 42.7105 88.2647 41.281C88.104 40.0736 88.1878 38.8662 88.3974 37.6727C88.4114 37.6033 88.4394 37.5339 88.4673 37.4368L88.4743 37.4437Z" fill="white"/>
<path d="M11.5046 37.4854C11.5046 37.4854 11.5605 37.5479 11.5675 37.5895C11.826 39.0536 11.9378 40.5247 11.5675 41.9819C11.2461 43.2726 10.4286 44.1886 9.24079 44.8131C9.83469 44.0706 9.68097 43.2795 9.43642 42.426C8.62592 42.7036 8.45124 43.3142 8.38137 44.0428C8.30452 43.6473 8.2067 43.2518 8.14381 42.8493C8.01804 41.9958 7.9901 41.1423 8.18574 40.2957C8.54208 38.7553 9.82071 37.6242 11.3998 37.4576C11.4277 37.4576 11.4557 37.4715 11.4906 37.4854H11.5046Z" fill="white"/>
<path d="M93.2186 29.7275C92.7015 28.763 92.4081 28.5617 91.6884 28.7213C91.8072 29.4846 91.926 30.2271 92.7015 30.7128C92.5827 30.7128 92.457 30.7267 92.3382 30.7128C91.2203 30.5602 90.27 30.0883 89.5713 29.1793C88.9564 28.3813 88.5652 27.4792 88.2647 26.5286C88.118 26.0845 88.0062 25.6265 87.8665 25.1338C88.4673 24.9048 89.0473 24.8146 89.6412 24.8771C90.6613 24.9812 91.4648 25.4669 92.0517 26.2996C92.6596 27.16 92.96 28.1454 93.1697 29.1654C93.1976 29.3111 93.2256 29.4569 93.2465 29.6026C93.2465 29.6303 93.2325 29.6581 93.2186 29.7344V29.7275Z" fill="white"/>
<path d="M12.1126 25.1477C11.7702 26.5702 11.337 27.9095 10.4916 29.0822C9.79985 30.0328 8.83563 30.5324 7.68276 30.699C7.55699 30.7198 7.41725 30.699 7.18668 30.699C8.05307 30.2479 8.19282 29.4985 8.30461 28.7283C7.65481 28.5409 7.36135 28.7213 6.78143 29.6512C6.78143 29.5332 6.77444 29.4638 6.78143 29.3944C6.9561 28.416 7.22161 27.4654 7.73866 26.6049C8.633 25.1061 10.1981 24.5093 11.875 25.0297C11.9449 25.0506 12.0078 25.0922 12.1196 25.1408L12.1126 25.1477Z" fill="white"/>
<path d="M94.8116 15.3705C94.8675 15.4399 94.9164 15.4815 94.9373 15.5301C95.5732 16.9457 96.0203 18.4029 96.0064 19.9642C96.0064 20.6373 95.8526 21.2826 95.5242 21.8724C95.2098 22.4414 94.7557 22.8786 94.1757 23.177C94.1268 23.2047 94.0709 23.2255 94.015 23.2464C93.9941 23.2464 93.9591 23.2325 93.9312 23.2255C94.3085 22.4414 94.3295 21.7336 93.9871 21.0258C93.2954 21.241 93.2325 21.8377 93.1207 22.4275C92.8761 21.5948 92.7434 20.7622 92.6805 19.9086C92.6316 19.2425 92.6386 18.5833 92.7923 17.931C93.0229 16.9595 93.5539 16.1824 94.3853 15.6134C94.5181 15.5231 94.6578 15.4538 94.8046 15.3705H94.8116Z" fill="white"/>
<path d="M6.81635 22.5802C6.73949 21.5393 6.58578 21.2687 6.01982 21.0536C5.66348 21.7336 5.59361 22.5663 6.18053 23.3435C5.58662 23.1075 5.13945 22.7883 4.78311 22.3442C4.31497 21.7613 4.07741 21.0813 4.01453 20.3458C3.95165 19.6657 3.97261 18.9788 4.14728 18.3265C4.37087 17.4869 4.65035 16.6611 4.91586 15.8354C4.96477 15.6827 5.05561 15.5439 5.14644 15.3566C5.32111 15.4537 5.48182 15.53 5.62156 15.6272C6.69058 16.3766 7.22859 17.4244 7.31942 18.7012C7.41025 19.9364 7.20763 21.1438 6.92814 22.3373C6.91417 22.3928 6.88622 22.4414 6.82334 22.5802H6.81635Z" fill="white"/>
<path d="M7.40332 53.9102C8.28369 53.2926 9.19201 53.0983 10.1912 53.3551C10.4217 53.4106 10.6453 53.5008 10.8549 53.6049C11.9868 54.1739 12.8672 55.0343 13.8035 55.9989C12.7764 55.5756 12.6087 55.5756 12.1406 55.9989C12.6297 56.5401 13.0978 57.0952 14.0341 56.9634C13.5869 57.3797 13.1257 57.581 12.6087 57.6642C11.9589 57.7683 11.3231 57.6642 10.7501 57.345C10.275 57.0744 9.82085 56.7622 9.40861 56.4013C8.61209 55.7074 7.97626 54.8747 7.40332 53.9102Z" fill="white"/>
<path d="M92.5479 53.8963C92.5269 53.9726 92.5199 54.0212 92.499 54.0559C91.7933 55.1801 90.9688 56.2001 89.8718 56.9773C89.1452 57.4908 88.3556 57.7891 87.4473 57.6642C86.9023 57.5949 86.4272 57.3797 85.9451 56.9426C86.4132 57.0258 86.7695 56.9634 87.07 56.7275C87.3425 56.5124 87.594 56.2626 87.8945 55.9989C87.3634 55.5062 86.8743 55.6588 86.3573 55.8809C86.4132 55.8046 86.4621 55.7282 86.525 55.6588C87.2167 54.9441 87.9504 54.271 88.8168 53.7645C89.5574 53.3273 90.3469 53.1191 91.2063 53.2857C91.6954 53.3828 92.1426 53.5494 92.5548 53.8824L92.5479 53.8963Z" fill="white"/>
<path d="M12.6786 43.4113C13.0769 44.3897 13.3494 45.3196 13.4891 46.2841C13.5799 46.9156 13.6149 47.547 13.4891 48.1785C13.2865 49.1569 12.7764 49.941 11.9939 50.5794C12.3572 49.8022 12.0917 49.1222 11.7423 48.4422C11.0646 48.7197 11.0017 49.2332 11.1135 50.0173C11.0856 50.0035 11.0506 49.9965 11.0436 49.9757C10.4497 48.7614 10.0305 47.5054 10.2681 46.1384C10.5056 44.7853 11.379 43.9456 12.6856 43.4113H12.6786Z" fill="white"/>
<path d="M88.9076 49.941C89.0055 49.3165 88.9146 48.7683 88.2648 48.3867C87.9364 49.0875 87.622 49.7328 87.9434 50.517C87.8666 50.4684 87.7827 50.4267 87.7198 50.3643C86.8534 49.5108 86.4063 48.4838 86.4202 47.2695C86.4412 45.9857 86.7696 44.7645 87.2377 43.5779C87.2517 43.5362 87.2866 43.5085 87.3216 43.4599C87.3914 43.4738 87.4613 43.4807 87.5312 43.5085C88.8937 44.0428 89.7671 45.3057 89.781 46.7768C89.788 47.7899 89.4037 49.2263 88.9007 49.948L88.9076 49.941Z" fill="white"/>
<path d="M8.28361 23.9957C8.99629 23.6002 9.3177 23.1977 9.51334 22.365C9.00328 22.0875 8.70284 22.1846 8.03906 22.8855C8.074 22.7397 8.08099 22.6495 8.10893 22.5663C8.41637 21.7752 8.80764 21.0327 9.3736 20.3874C10.4706 19.1384 11.9518 18.9441 13.4051 19.7212C13.4401 19.7421 13.475 19.7768 13.5309 19.8253C13.496 19.9225 13.468 20.0335 13.4191 20.1376C12.9929 21.0674 12.4898 21.9487 11.8051 22.7259C11.1413 23.4822 10.3238 23.9541 9.30373 24.0096C8.96834 24.0304 8.62598 23.9957 8.2906 23.9818L8.28361 23.9957Z" fill="white"/>
<path d="M91.7724 23.9541C90.6474 24.1484 89.6692 23.9957 88.8308 23.3296C87.6849 22.4206 87.0351 21.1646 86.4272 19.8253C87.3915 19.2771 88.3557 19.069 89.3828 19.4923C89.6693 19.6102 89.9417 19.7768 90.1723 19.9711C91.0457 20.7066 91.5348 21.685 91.9121 22.7536C91.4929 22.4067 91.0946 22.0111 90.4937 22.3303C90.6055 23.0798 90.9689 23.5586 91.7724 23.9541Z" fill="white"/>
<path d="M9.18505 16.3766C9.23396 15.8215 9.20601 15.3358 8.70294 15.0443C8.26275 15.5578 8.15096 16.2517 8.4025 17.0428C8.2907 16.9734 8.19987 16.9387 8.13699 16.8832C7.46623 16.3211 7.1029 15.6064 7.03303 14.739C6.98412 14.1284 7.06796 13.5316 7.24963 12.9487C7.55706 11.9356 8.03917 11.0058 8.62608 10.1314C8.67499 10.062 8.73788 9.99266 8.81473 9.89551C8.92653 9.97878 9.03832 10.0482 9.12915 10.1384C9.91171 10.8878 10.282 11.8176 10.2331 12.8863C10.1772 14.0798 9.79293 15.197 9.30383 16.2864C9.29684 16.3072 9.26191 16.3211 9.17806 16.3836L9.18505 16.3766Z" fill="white"/>
<path d="M91.332 15.0096C90.7661 15.3774 90.7242 15.87 90.843 16.5084C90.7381 16.3558 90.6822 16.3003 90.6543 16.2309C90.27 15.3357 89.9486 14.4128 89.8019 13.4483C89.6342 12.2825 89.8578 11.2139 90.6683 10.3188C90.808 10.1661 90.9687 10.0412 91.1294 9.88855C91.1993 9.94406 91.2552 9.96488 91.2831 10.0135C92.1146 11.2347 92.7854 12.5323 92.9531 14.0173C93.0788 15.1414 92.7504 16.1199 91.8631 16.8762C91.8002 16.9317 91.7163 16.9734 91.5696 17.0774C91.891 16.3003 91.6954 15.6688 91.3251 15.0165L91.332 15.0096Z" fill="white"/>
<path d="M85.47 54.9441C85.5609 54.0628 85.5259 53.9032 85.0787 53.5216C84.6455 54.0351 84.3311 54.5763 84.4429 55.3674C84.3172 55.2425 84.2333 55.1939 84.1844 55.1176C83.6324 54.2641 83.4018 53.3481 83.5835 52.335C83.8211 51.0513 84.401 49.9202 85.1207 48.8099C85.2604 48.8932 85.3722 48.9557 85.477 49.032C86.5181 49.8716 86.9932 50.9333 86.7556 52.2656C86.574 53.2718 86.0849 54.1392 85.463 54.9441H85.47Z" fill="white"/>
<path d="M14.8723 48.7753C15.1169 49.1986 15.3475 49.5733 15.5571 49.9619C16.0182 50.8431 16.3955 51.7591 16.4654 52.7652C16.5283 53.6881 16.2558 54.5139 15.7178 55.2564C15.6828 55.298 15.6339 55.3327 15.5361 55.4229C15.7248 54.618 15.3614 54.0629 14.9352 53.5216C14.4741 53.8894 14.4322 54.0767 14.5998 55.0066C14.5859 55.0066 14.5719 55.0066 14.5649 55.0066C13.7334 53.931 13.1046 52.7722 13.2024 51.3636C13.2793 50.2325 13.9081 49.4275 14.8723 48.7822V48.7753Z" fill="white"/>
<path d="M88.1112 59.1978C88.0693 59.2602 88.0343 59.3296 87.9854 59.3851C87.2168 60.197 86.3714 60.9048 85.3653 61.4114C84.7294 61.7306 84.0657 61.911 83.346 61.8277C82.7171 61.7583 82.1931 61.4807 81.7529 61.002C82.0953 60.9395 82.4167 60.9256 82.6962 60.8146C82.9896 60.6966 83.2482 60.4885 83.5207 60.3219C83.2132 59.8431 82.9827 59.7945 82.1442 60.0097C82.249 59.9056 82.3049 59.8292 82.3818 59.7807C83.1713 59.2186 83.9818 58.7051 84.9041 58.3998C85.9312 58.0598 86.8954 58.1847 87.7688 58.8439C87.8527 58.9063 87.9295 58.9757 87.9994 59.0521C88.0413 59.0937 88.0693 59.1492 88.1042 59.2047L88.1112 59.1978Z" fill="white"/>
<path d="M17.7442 59.9472C16.9407 59.8292 16.8289 59.857 16.4516 60.2872C16.9826 60.6966 17.4927 61.113 18.3171 60.8701C18.2263 60.995 18.1844 61.0713 18.1145 61.1338C17.4088 61.793 16.5634 61.9873 15.6411 61.7653C15.2009 61.6612 14.7677 61.4807 14.3625 61.2656C13.4611 60.7868 12.7065 60.1276 12.0148 59.3921C11.9659 59.3366 11.931 59.2741 11.8611 59.1839C12.4899 58.5108 13.2515 58.1708 14.1598 58.2333C14.5791 58.261 15.0053 58.379 15.4035 58.5247C16.221 58.8161 16.9337 59.2949 17.6324 59.8015C17.6674 59.8223 17.6813 59.8709 17.7442 59.9472Z" fill="white"/>
<path d="M10.2819 18.0628C11.0575 17.9448 11.4138 17.4591 11.7003 16.8901C11.2252 16.5709 11.0365 16.5986 10.24 17.1052C10.4147 16.8276 10.5265 16.6333 10.6592 16.446C11.0854 15.8353 11.5745 15.2802 12.2034 14.8708C13.3982 14.0936 14.8375 14.4406 15.662 15.2663C15.6131 15.3565 15.5641 15.4676 15.5013 15.5578C14.9283 16.3766 14.2995 17.1329 13.482 17.7228C12.6156 18.3542 11.6723 18.4861 10.6452 18.2016C10.5474 18.1738 10.4566 18.1252 10.2749 18.0558L10.2819 18.0628Z" fill="white"/>
<path d="M89.6134 17.0289C89.2291 16.7097 88.8098 16.5432 88.2718 16.8624C88.5863 17.4244 88.9007 17.9379 89.7042 18.0559C89.5155 18.1392 89.4177 18.1947 89.3129 18.2224C88.3417 18.4861 87.4264 18.3751 86.5949 17.7922C85.6447 17.1261 84.939 16.2517 84.3171 15.2941C85.2324 14.3643 86.6019 14.2394 87.5032 14.7251C88.4675 15.2386 89.1243 16.0366 89.6413 16.9734C89.6413 16.9734 89.6273 16.9942 89.6064 17.0358L89.6134 17.0289Z" fill="white"/>
<path d="M87.1118 5.69043C87.1957 5.75288 87.2656 5.79452 87.3284 5.85697C88.0132 6.59945 88.6141 7.39745 89.0263 8.32728C89.3337 9.02813 89.5154 9.7498 89.3407 10.52C89.2219 11.0335 88.9984 11.4846 88.5372 11.9079C88.6839 11.1793 88.4184 10.6588 88.0062 10.18C87.6289 10.527 87.594 10.6727 87.6988 11.3527C87.6778 11.3527 87.6359 11.3735 87.6289 11.3666C86.9511 10.3882 86.3852 9.35427 86.2315 8.15381C86.1197 7.29336 86.3852 6.52312 86.9302 5.85003C86.9721 5.79452 87.035 5.75288 87.1049 5.69737L87.1118 5.69043Z" fill="white"/>
<path d="M81.5572 58.8578C81.5083 58.9272 81.4663 58.9966 81.4174 59.0729C81.4524 58.9272 81.4803 58.7676 81.5362 58.6288C81.6899 58.261 81.6829 57.9141 81.4244 57.5949C80.9004 57.8308 80.572 58.3373 80.4532 59.1353C80.3694 58.9966 80.2995 58.9133 80.2576 58.8092C79.9432 58.0459 79.8733 57.2618 80.1318 56.4707C80.5371 55.2356 81.3336 54.2502 82.2419 53.2787C82.7869 53.7784 83.1293 54.3404 83.269 55.0274C83.4088 55.7352 83.276 56.4083 82.9546 57.0467C82.6052 57.7406 82.1231 58.3373 81.5642 58.8647L81.5572 58.8578Z" fill="white"/>
<path d="M12.9159 5.70431C13.412 6.19004 13.6915 6.80068 13.7404 7.49459C13.7684 7.8693 13.7404 8.26483 13.6566 8.6326C13.426 9.66653 12.888 10.5686 12.2801 11.4429C12.336 10.985 12.4338 10.5339 11.9867 10.1523C11.5604 10.6449 11.3019 11.1654 11.4137 11.8385C10.9176 11.3944 10.6591 10.8531 10.5962 10.2147C10.5403 9.63183 10.6381 9.06977 10.8617 8.52158C11.281 7.49459 11.9308 6.61333 12.6854 5.80839C12.7133 5.7737 12.7482 5.74594 12.7902 5.72513C12.8111 5.71125 12.8461 5.71125 12.909 5.69043L12.9159 5.70431Z" fill="white"/>
<path d="M13.2654 12.2479C14.027 11.3666 14.8445 10.5478 16.0882 10.4437C16.9686 10.3674 17.6603 10.7768 18.2193 11.4082C18.2123 11.4637 18.2193 11.5054 18.2053 11.5193C17.5066 12.3173 16.7171 12.9973 15.7319 13.4414C14.9354 13.8022 14.1458 13.7398 13.3633 13.3651C13.3004 13.3373 13.2445 13.2887 13.1047 13.1985C13.7545 13.1222 14.1598 12.8099 14.4602 12.3242C14.069 11.9356 13.6707 12.0813 13.2585 12.2479H13.2654Z" fill="white"/>
<path d="M86.6857 12.2132C86.2734 12.0536 85.8961 11.9703 85.5118 12.3173C85.8332 12.7822 86.2175 13.1431 86.9232 13.1708C86.3223 13.5663 85.7424 13.719 85.1275 13.6565C84.8061 13.6219 84.4847 13.5316 84.1913 13.3998C83.2271 12.9696 82.4655 12.2618 81.7598 11.5124C82.151 10.8185 83.1572 10.3258 83.9747 10.4437C84.2821 10.4854 84.5895 10.5687 84.869 10.6936C85.6096 11.0336 86.1896 11.5748 86.6857 12.2132Z" fill="white"/>
<path d="M82.9966 2.57483C83.9818 3.35895 84.8342 4.16388 85.3303 5.27414C85.6727 6.0305 85.6797 6.78686 85.2814 7.52934C85.2395 7.60567 85.1836 7.66812 85.0788 7.82078C85.0578 7.18932 84.8202 6.75216 84.3591 6.41215C84.0028 6.75216 84.1704 7.11993 84.2473 7.49464C83.7512 7.01585 83.339 6.48848 82.9966 5.90559C82.7521 5.49619 82.5634 5.06596 82.4866 4.5941C82.3748 3.87938 82.5355 3.2271 82.9966 2.57483Z" fill="white"/>
<path d="M15.711 7.52234C15.8367 7.14069 15.9765 6.78679 15.6271 6.39126C15.2149 6.74516 14.9354 7.14762 14.9005 7.75133C14.593 7.45294 14.4742 7.11293 14.4603 6.77291C14.4393 6.38432 14.4393 5.96104 14.5581 5.59327C14.9773 4.3026 15.9415 3.43521 16.9756 2.59558C17.311 2.96335 17.4438 3.36582 17.5066 3.7891C17.5835 4.30954 17.5206 4.82303 17.304 5.30183C16.9337 6.1484 16.3747 6.87006 15.7179 7.52234H15.711Z" fill="white"/>
<path d="M89.4876 69.4676C87.6919 69.4676 86.4482 67.8161 87.0071 66.1785C87.4473 64.8878 88.9286 64.1731 90.3051 64.5894C91.6186 64.985 92.3662 66.3034 92.0099 67.6149C91.7164 68.7182 90.6963 69.4676 89.4806 69.4676H89.4876ZM87.5521 66.9834C87.5521 68.1006 88.4115 68.9402 89.5295 68.9333C90.6055 68.9333 91.4509 68.052 91.437 66.9557C91.423 65.8385 90.5636 64.9919 89.4526 64.9988C88.3766 65.0127 87.5452 65.8732 87.5521 66.9765V66.9834Z" fill="white"/>
<path d="M16.2838 9.25709C16.8638 9.3126 17.2341 9.06973 17.5834 8.71584C17.3459 8.32725 16.9895 8.3897 16.6262 8.41746C17.4647 7.73049 18.3241 7.10597 19.4979 7.29332C20.1896 7.40435 20.6647 7.82764 21.063 8.40358C20.2455 9.06973 19.4141 9.6318 18.4079 9.86773C17.7441 10.0273 17.1083 9.89548 16.5354 9.50689C16.4585 9.45138 16.3956 9.37505 16.2769 9.25709H16.2838Z" fill="white"/>
<path d="M83.4297 8.47998C83.0455 8.3759 82.6961 8.32732 82.4166 8.67428C82.6192 9.02123 83.0245 9.27104 83.6883 9.29879C83.3389 9.63881 82.9616 9.82617 82.5424 9.88862C82.2559 9.93025 81.9415 9.94413 81.662 9.88862C80.6139 9.68044 79.7755 9.09062 78.958 8.45223C79.3563 7.65423 80.2157 7.17543 81.0611 7.27258C81.9974 7.37667 82.738 7.87628 83.4297 8.48692V8.47998Z" fill="white"/>
<path d="M19.2394 4.54551C19.3862 4.19855 19.5469 3.92793 19.3303 3.64343C18.8971 3.80303 18.6735 4.08059 18.4988 4.69123C18.1914 4.18468 18.1844 3.68506 18.3171 3.17851C18.373 2.97034 18.4639 2.75522 18.5826 2.57481C19.1416 1.67273 19.9661 1.06209 20.9024 0.506958C21.1818 0.937182 21.2797 1.37434 21.2098 1.83232C21.1609 2.14458 21.0561 2.46378 20.9163 2.74828C20.6229 3.34505 19.9102 4.09447 19.2394 4.55245V4.54551Z" fill="white"/>
<path d="M81.4943 4.67734C81.3616 4.16385 81.103 3.84465 80.7048 3.60872C80.4532 3.9071 80.6209 4.19855 80.6838 4.49693C79.9641 3.92792 79.3004 3.32422 78.944 2.46377C78.6785 1.81844 78.7065 1.18004 79.0419 0.548584C79.1187 0.555523 79.1676 0.548584 79.1956 0.569401C79.9362 0.992686 80.6 1.50618 81.138 2.17233C81.4105 2.50541 81.6131 2.88012 81.7109 3.31034C81.8087 3.76138 81.7598 4.14997 81.4943 4.67734Z" fill="white"/>
<path d="M78.6505 4.28179C76.9107 4.29566 75.115 3.10908 74.2207 1.61717C75.6251 1.01347 78.2732 2.22781 78.8951 3.75441C78.4386 3.51386 78.0659 3.40977 77.7771 3.44216C77.9169 3.83768 78.2383 4.03892 78.6435 4.28179H78.6505Z" fill="white"/>
<path d="M25.8351 1.58945C24.7311 3.12993 23.3756 4.14998 21.3773 4.31652C21.7127 4.0112 22.09 3.84466 22.2018 3.42137C21.7826 3.34504 21.4681 3.53934 21.1467 3.74057C21.4053 2.38051 23.9905 1.17311 25.8351 1.58945Z" fill="white"/>
<path d="M79.9502 5.55863C79.6195 5.60027 79.3796 5.71592 79.2305 5.90559C79.5589 6.21785 79.7476 6.28724 80.3625 6.32193C79.9083 6.82155 79.3703 7.05054 78.7275 7.0089C77.7842 6.93951 76.9667 6.5301 76.1912 6.04437C76.3938 5.35046 77.0785 4.84391 77.8471 4.83003C78.6366 4.80921 79.3074 5.14229 79.9502 5.55863Z" fill="white"/>
<path d="M23.8509 6.01654C23.0474 6.50227 22.2649 6.90474 21.3565 6.99495C20.6858 7.06434 20.1198 6.84229 19.6028 6.28716C20.0989 6.3288 20.4692 6.21083 20.7766 5.92633C20.6369 5.72741 20.3574 5.60944 19.9382 5.57244C20.7487 5.10752 21.4963 4.71893 22.3836 4.84383C23.0614 4.93404 23.5365 5.34345 23.8579 6.01654H23.8509Z" fill="white"/>
<path d="M17.7022 6.70355C17.5484 6.84233 17.3877 6.98111 17.234 7.11989L17.1711 7.0505C17.3318 6.91172 17.4856 6.77294 17.6463 6.63416C17.6672 6.65497 17.6882 6.67579 17.7091 6.70355H17.7022Z" fill="white"/>
<path d="M82.3608 6.7452C82.27 6.66887 82.1721 6.59254 82.0813 6.51621C82.0953 6.49539 82.1092 6.48151 82.1232 6.46069C82.2141 6.53702 82.3119 6.61335 82.4027 6.68968L82.3608 6.7452Z" fill="white"/>
<path d="M18.2124 6.26641C18.1565 6.30805 18.1076 6.35662 18.0517 6.39826L17.9888 6.32886C18.0447 6.28723 18.1075 6.23866 18.1634 6.19702C18.1774 6.21784 18.1984 6.23866 18.2124 6.26641Z" fill="white"/>
<path d="M81.5922 6.03735C81.6481 6.07205 81.697 6.10674 81.7529 6.1345C81.7459 6.14838 81.7319 6.16226 81.7249 6.18307C81.669 6.14838 81.6201 6.12062 81.5642 6.08593C81.5712 6.07205 81.5852 6.05123 81.5922 6.03735Z" fill="white"/>
<path d="M69.784 27.1044C69.784 37.9294 60.8825 46.749 49.9756 46.742C39.0758 46.742 30.2092 37.9016 30.2232 27.0558C30.2371 16.21 39.1107 7.4321 50.0385 7.45292C60.9314 7.47374 69.784 16.2794 69.784 27.1044ZM69.2181 27.1322C69.239 16.6472 60.6449 8.07744 50.1084 8.01498C39.516 7.95253 30.838 16.5084 30.7751 27.0003C30.7123 37.3118 39.0968 46.1453 49.9477 46.1869C60.5401 46.2285 69.1971 37.6518 69.2181 27.1391V27.1322Z" fill="white"/>
<path d="M61.6021 46.3258C62.5524 46.0551 63.2301 46.3535 63.7541 47.0682C63.2091 47.6164 62.3288 47.7136 61.7488 47.2834C61.141 46.8323 60.8265 46.2078 60.8056 45.4584C60.7916 44.8477 61.134 44.4106 61.6161 44.0706C62.21 44.591 62.217 45.3057 61.6021 46.3258Z" fill="white"/>
<path d="M30.4746 38.4082C30.4187 37.2216 30.6563 36.7706 31.5296 36.3959C31.8231 36.9441 31.9139 37.5131 31.5716 38.0543C31.1174 38.769 30.4606 39.2062 29.5802 39.1576C28.8815 39.1229 28.5042 38.6372 28.1619 38.0474C29.0492 37.6033 29.7968 37.7212 30.4816 38.4013L30.4746 38.4082Z" fill="white"/>
<path d="M70.79 18.4028C70.6502 17.4175 71.0485 16.7929 71.831 16.3766C72.376 17.1538 72.2293 18.0975 71.5027 18.6249C71.1114 18.9094 70.6642 19.069 70.1821 19.0967C69.4065 19.1383 68.8965 18.7498 68.5471 18.1044C69.162 17.584 69.8747 17.6603 70.797 18.4028H70.79Z" fill="white"/>
<path d="M72.1457 31.4136C72.5649 30.5184 73.2217 30.1854 74.116 30.2825C74.2418 31.0736 73.592 31.8716 72.7605 31.9479C72.1596 32.0104 71.6076 31.8646 71.1116 31.5177C70.5666 31.143 70.329 30.4629 70.5107 29.8523C71.3701 29.8662 71.8242 30.2756 72.1387 31.4067L72.1457 31.4136Z" fill="white"/>
<path d="M66.6328 39.3242C67.4294 39.803 67.618 40.3651 67.3315 41.5031C68.1281 40.9133 68.8827 40.948 69.6373 41.4753C69.225 42.2664 68.3656 42.5856 67.597 42.2595C67.059 42.0305 66.6608 41.6419 66.3953 41.1284C66.0669 40.49 66.2276 39.9071 66.6328 39.3242Z" fill="white"/>
<path d="M70.79 39.7891C70.273 40.823 69.3297 41.0173 68.6799 40.6842C68.3446 40.5108 68.0162 40.2887 67.7576 40.0181C67.1568 39.3936 67.1358 38.6719 67.6109 37.9225C68.3865 38.2139 68.645 38.7968 68.4983 39.9973C69.2179 39.3658 69.9725 39.3242 70.797 39.7891H70.79Z" fill="white"/>
<path d="M69.197 34.8346C70.1751 35.1538 70.5035 35.8408 70.3498 36.7428C70.5804 36.5486 70.769 36.3404 70.9996 36.2294C71.2442 36.1114 71.5306 36.0351 71.8031 36.0212C72.0756 36.0073 72.3481 36.0836 72.6206 36.1253C72.4459 37.0065 71.6634 37.5686 70.8459 37.4368C70.252 37.3396 69.7489 37.069 69.3646 36.611C68.9314 36.0975 68.8755 35.4522 69.2039 34.8415L69.197 34.8346Z" fill="white"/>
<path d="M40.012 47.1654C39.3273 46.4853 39.3273 45.7637 39.7535 45.0004C40.3055 45.1461 40.7526 45.7082 40.7806 46.3049C40.8155 47.0405 40.557 47.6719 40.012 48.1715C39.474 48.6573 38.6425 48.6503 37.9788 48.1577C38.4259 47.3805 39.0827 47.0474 40.019 47.1654H40.012Z" fill="white"/>
<path d="M70.2521 22.941C71.0696 22.6079 71.7264 22.8924 72.3622 23.8778C72.4181 22.8785 72.9491 22.3373 73.8505 22.1152C74.1649 22.6981 73.9553 23.5933 73.3893 23.9749C72.6836 24.4537 71.915 24.5023 71.1395 24.1692C70.6294 23.9472 70.3779 23.4892 70.2451 22.934L70.2521 22.941Z" fill="white"/>
<path d="M71.0974 35.0775C71.6494 34.231 72.3831 33.9881 73.2984 34.2518C73.1307 35.251 72.3202 35.8269 71.3629 35.6188C71.0765 35.5563 70.79 35.4453 70.5385 35.3065C69.707 34.8485 69.4415 34.0297 69.7419 33.2456C70.5804 33.2803 71.0765 33.9326 71.0904 35.0775H71.0974Z" fill="white"/>
<path d="M26.6458 34.3142C27.4213 33.9464 28.113 34.1615 28.8676 34.9942C28.9235 34.564 28.8956 34.1477 29.1751 33.8215C29.4406 33.5093 29.783 33.315 30.1672 33.1901C30.4537 33.6619 30.4258 34.3211 30.0624 34.7652C29.5174 35.4314 28.8048 35.7575 27.9384 35.6257C27.1977 35.5147 26.8903 34.9387 26.6458 34.3142Z" fill="white"/>
<path d="M29.3427 28.1315C29.4056 28.9503 29.0982 29.5193 28.4204 29.8315C27.9523 30.0466 27.4632 30.1438 26.9461 30.0397C26.1147 29.8732 25.5907 29.1654 25.6535 28.298C26.4431 28.1384 27.0649 28.527 27.6099 29.5748C27.7007 29.1307 27.8056 28.7352 28.1619 28.4853C28.5043 28.2425 28.8816 28.0898 29.3427 28.1384V28.1315Z" fill="white"/>
<path d="M35.6312 41.9264C36.4696 42.6203 36.4626 43.7028 35.6312 44.5979C35.0163 45.2571 34.0521 45.5694 33.0669 44.584C33.528 43.9248 34.1918 43.786 35.3167 44.1122C34.8696 43.0574 34.9604 42.4607 35.6381 41.9194L35.6312 41.9264Z" fill="white"/>
<path d="M66.9471 44.5563C66.0388 45.4931 65.0256 45.3543 64.3689 44.591C64.1383 44.3273 63.9496 44.015 63.8239 43.6889C63.5723 43.0297 63.7889 42.3982 64.3619 41.9194C65.0536 42.4676 65.1514 43.1268 64.6623 44.1191C65.0745 43.9942 65.4588 43.8277 65.8711 43.9179C66.2833 44.0081 66.6466 44.1955 66.9471 44.5424V44.5563Z" fill="white"/>
<path d="M63.0623 43.0436C63.6911 43.7444 63.712 44.2371 63.174 45.3127C64.0824 44.9588 64.816 45.1739 65.4169 45.8886C64.6833 46.6172 63.7051 46.645 63.0273 45.9372C62.7967 45.6943 62.6011 45.3959 62.4684 45.0906C62.119 44.2996 62.3356 43.6126 63.0623 43.0436Z" fill="white"/>
<path d="M72.411 29.6094C72.7324 28.6518 73.3682 28.2494 74.2835 28.2494C74.4791 28.9363 73.9831 29.7829 73.2704 29.9911C72.5367 30.1993 71.852 30.0605 71.2371 29.6302C70.7411 29.2833 70.6293 28.7559 70.6013 28.1314C71.0695 28.0759 71.4537 28.2216 71.8101 28.4645C72.1804 28.7143 72.2712 29.1306 72.404 29.6025L72.411 29.6094Z" fill="white"/>
<path d="M70.6504 26.4037C71.6076 26.2996 72.1316 26.6604 72.5299 27.736C72.7675 26.7437 73.3823 26.2857 74.3186 26.2233C74.5073 27.056 74.0112 28.0136 73.0889 28.1315C72.7395 28.1801 72.3692 28.1801 72.0268 28.1176C71.1325 27.9511 70.6574 27.3405 70.6504 26.4106V26.4037Z" fill="white"/>
<path d="M71.4399 20.1376C71.384 19.1939 71.8381 18.5971 72.6626 18.2224C73.1028 18.9094 72.977 19.8045 72.3762 20.2764C71.8382 20.7066 71.2093 20.8662 70.5316 20.7621C69.8818 20.665 69.4905 20.2417 69.2529 19.6588C69.8608 19.2425 70.7901 19.2841 71.4329 20.1376H71.4399Z" fill="white"/>
<path d="M70.1961 31.5386C71.1533 31.6912 71.5726 32.1492 71.6774 33.1276C71.9708 32.8778 72.2503 32.5794 72.5927 32.3851C72.956 32.1839 73.3822 32.1492 73.7945 32.2811C73.7735 33.1068 73.1377 33.773 72.3551 33.8146C71.88 33.8424 71.4398 33.7244 71.0276 33.5023C70.266 33.0791 69.9865 32.4337 70.1961 31.5386Z" fill="white"/>
<path d="M36.9166 43.0574C37.5175 43.446 37.79 44.0914 37.6293 44.7644C37.5175 45.2363 37.2799 45.6388 36.9306 45.9718C36.2458 46.6241 35.2816 46.5894 34.5759 45.8747C35.1698 45.1669 35.9035 44.9587 36.8188 45.2988C36.2598 44.2648 36.2947 43.7166 36.9166 43.0574Z" fill="white"/>
<path d="M69.4766 38.4707C70.1823 37.7074 70.9299 37.6311 71.7614 38.0058C71.6286 38.665 70.9159 39.2201 70.2312 39.1715C69.3997 39.1091 68.7709 38.6928 68.3726 37.9711C68.0861 37.4507 68.184 36.9233 68.4495 36.4098C69.3159 36.7012 69.6373 37.3188 69.4836 38.4707H69.4766Z" fill="white"/>
<path d="M74.1719 24.197C74.3885 25.342 73.7806 26.1955 72.6976 26.2787C72.3203 26.3065 71.922 26.2649 71.5587 26.1677C70.9229 25.9873 70.5456 25.4183 70.5037 24.7383C71.2932 24.4607 71.95 24.8007 72.467 25.793C72.5998 25.3697 72.6976 24.9673 73.019 24.6897C73.3404 24.4121 73.7107 24.2525 74.1649 24.204L74.1719 24.197Z" fill="white"/>
<path d="M27.9941 21.9973C28.7417 21.0952 29.4265 20.887 30.1461 21.2687C29.8457 22.3859 28.8256 22.8438 27.6028 22.4136C26.6037 22.0667 26.1984 21.1438 26.6246 20.1445C27.498 20.4152 27.9731 20.9842 27.9941 21.9973Z" fill="white"/>
<path d="M25.8142 30.2756C26.7784 30.1715 27.4562 30.5185 27.8684 31.3928C27.9383 30.9279 28.0501 30.5115 28.4274 30.2201C28.7348 29.9772 29.0842 29.8384 29.5244 29.8176C29.6082 30.4283 29.5034 30.9626 29.0492 31.365C28.4973 31.8577 27.8335 32.0312 27.1068 31.9132C26.3592 31.7883 25.8981 31.1916 25.8212 30.2687L25.8142 30.2756Z" fill="white"/>
<path d="M29.72 22.8855C29.5593 23.7737 29.0353 24.2802 28.2178 24.3496C27.9383 24.3704 27.6518 24.3704 27.3723 24.3149C26.2893 24.1137 25.7793 23.2463 26.0797 22.1638C26.8623 22.1846 27.3234 22.6565 27.6658 23.8431C28.085 22.9341 28.7837 22.6981 29.713 22.8855H29.72Z" fill="white"/>
<path d="M26.1077 32.3018C27.1068 32.0798 27.8055 32.399 28.2946 33.2664C28.4553 32.1145 28.7907 31.7259 29.7899 31.5247C29.9715 32.1006 29.8947 32.6419 29.4894 33.079C28.8885 33.7105 28.1269 33.9742 27.2605 33.7452C26.5548 33.5578 26.3243 32.9611 26.1077 32.3018Z" fill="white"/>
<path d="M60.1768 44.9518C60.7078 45.7567 60.6309 46.5408 59.8623 47.2001C60.3305 47.1792 60.7567 47.1029 61.148 47.3041C61.5253 47.4984 61.8187 47.776 62.0144 48.1507C61.2528 48.7336 60.3165 48.6364 59.7436 47.9287C59.4082 47.5123 59.2265 47.0335 59.2056 46.5061C59.1776 45.7914 59.5549 45.3196 60.1698 44.9587L60.1768 44.9518Z" fill="white"/>
<path d="M32.7035 41.4754C32.2423 40.5525 32.5777 39.8863 33.3183 39.2965C33.7376 39.81 33.8983 40.3513 33.6677 40.955C33.4161 41.628 32.9201 42.086 32.2353 42.322C31.5366 42.5648 30.768 42.2248 30.3628 41.517C30.9916 40.955 31.5785 40.9341 32.7035 41.4823V41.4754Z" fill="white"/>
<path d="M30.7961 34.8069C31.2782 35.9518 30.7402 36.9649 29.5035 37.3535C28.5113 37.6658 27.617 37.1731 27.3794 36.1808C27.7637 35.9727 28.1829 35.938 28.5742 36.0629C28.9375 36.1808 29.2589 36.4306 29.6292 36.6388C29.4755 35.7159 29.9437 35.1608 30.7961 34.8069Z" fill="white"/>
<path d="M29.189 18.4445C30.0135 17.6673 30.6563 17.5702 31.4458 18.0767C31.1733 18.618 30.7681 19.0204 30.1462 19.076C29.3147 19.1523 28.5741 18.8955 28.071 18.2016C27.6448 17.6187 27.8195 17.0012 28.085 16.3558C28.5182 16.5293 28.7977 16.8138 29.0213 17.1677C29.2589 17.5355 29.2099 17.9518 29.189 18.4445Z" fill="white"/>
<path d="M71.9848 22.0042C72.0686 20.9356 72.4669 20.4151 73.3472 20.1792C73.7315 20.8662 73.5219 21.7683 72.8581 22.1915C72.3131 22.5385 71.7053 22.6495 71.0694 22.5177C70.3777 22.3789 70.0423 21.8932 69.8118 21.2825C70.6153 20.8939 71.2371 21.1021 71.9848 22.0111V22.0042Z" fill="white"/>
<path d="M27.2955 18.2571C28.1549 18.5277 28.5252 19.1106 28.5113 20.2555C28.8047 19.8878 29.0563 19.5478 29.4825 19.4575C29.8947 19.3673 30.3069 19.409 30.6912 19.5755C30.5934 20.1861 30.0624 20.6927 29.4196 20.776C28.8257 20.8523 28.2667 20.7274 27.7636 20.3943C27.051 19.9294 26.8553 19.0134 27.2955 18.2571Z" fill="white"/>
<path d="M66.0877 42.8562C66.9122 42.3913 67.6598 42.4677 68.3515 43.0575C68.0022 43.7236 66.9821 44.0567 66.3393 43.7167C65.8362 43.453 65.4519 43.0783 65.2074 42.5717C64.8859 41.8986 65.0047 41.2394 65.5567 40.6774C66.2624 41.1562 66.4021 41.6835 66.0807 42.8562H66.0877Z" fill="white"/>
<path d="M29.1819 39.803C30.0203 39.3172 30.7819 39.3589 31.5086 40.025C31.3269 38.8384 31.5295 38.3388 32.347 37.9155C32.9968 38.7482 32.7383 39.8099 31.7252 40.483C30.761 41.1214 29.7688 40.8716 29.1819 39.8099V39.803Z" fill="white"/>
<path d="M38.412 46.3119C37.7692 45.4098 37.7413 44.8131 38.3072 44.0983C38.9361 44.3898 39.2854 45.0629 39.1666 45.7637C39.0898 46.2078 38.9081 46.6033 38.6147 46.9503C37.9788 47.6997 37.0356 47.7691 36.26 47.1238C36.6583 46.3743 37.2452 46.1523 38.419 46.3119H38.412Z" fill="white"/>
<path d="M25.6465 26.251C26.5688 26.251 27.0579 26.6257 27.4771 27.6874C27.6448 27.2086 27.8194 26.7714 28.2946 26.5632C28.623 26.4245 28.9583 26.3273 29.3147 26.3898C29.3846 27.049 29.0631 27.6457 28.4832 27.9302C27.9312 28.2078 27.3443 28.2494 26.7504 28.0968C25.9609 27.8817 25.5277 27.1669 25.6395 26.251H25.6465Z" fill="white"/>
<path d="M34.4014 40.6635C34.9325 41.1492 35.0862 41.8015 34.8416 42.4399C34.6949 42.8076 34.4643 43.106 34.1779 43.3697C33.4442 44.0358 32.4171 44.0705 31.6555 43.1199C32.1516 42.4884 32.9132 42.3982 33.9543 42.8701C33.7936 42.4607 33.6259 42.086 33.7307 41.6766C33.8425 41.2672 34.0591 40.9271 34.4014 40.6704V40.6635Z" fill="white"/>
<path d="M29.4755 24.7105C29.4545 25.3906 29.0702 25.9388 28.4484 26.1677C27.9872 26.3343 27.5121 26.3551 27.044 26.2441C26.0728 26.022 25.5976 25.231 25.8282 24.204C26.7854 24.3289 27.3444 24.8563 27.4981 25.8555C27.9732 24.8216 28.5881 24.4815 29.4755 24.7105Z" fill="white"/>
<path d="M55.9146 4.21241C56.187 4.16384 56.2429 4.3165 56.236 4.53855C56.229 5.05204 56.236 5.57247 56.229 6.08596C56.229 6.23168 56.229 6.37047 56.229 6.63415C56.5993 6.30801 56.8368 5.99576 57.1024 5.71125C57.3679 5.41981 57.6334 5.12837 57.8989 4.83693C57.9338 4.84387 57.9618 4.85774 57.9967 4.86468C58.0177 5.25327 58.0456 5.63492 58.0596 6.02351C58.0805 6.41904 58.0945 6.81457 58.1225 7.27949C58.2413 7.1754 58.3181 7.11989 58.374 7.04356C58.7443 6.59946 59.1077 6.15535 59.471 5.70431C59.6107 5.53084 59.7505 5.44063 59.981 5.67656C59.2823 6.50925 58.5836 7.34194 57.815 8.2579C57.7102 7.75135 57.7522 7.34194 57.7312 6.93947C57.7102 6.55088 57.6963 6.16229 57.6753 5.7737L57.5775 5.74595C57.0465 6.33577 56.5154 6.91865 55.9774 7.52236C55.8587 7.2101 55.8237 4.78141 55.9215 4.20547L55.9146 4.21241Z" fill="white"/>
<path d="M42.0103 48.7822C41.6399 48.8794 41.2626 48.9765 40.8853 49.0806C40.8714 49.0528 40.8574 49.0251 40.8364 48.9973C41.067 48.6989 41.2976 48.3936 41.5491 48.0605C41.3395 47.7344 41.1229 47.4013 40.9133 47.0752C40.9273 47.0544 40.9412 47.0266 40.9552 47.0058C41.3255 47.1238 41.6958 47.2487 42.0871 47.3805C42.3386 47.0752 42.5832 46.7768 42.8347 46.4715C42.8627 46.4854 42.8836 46.4923 42.9116 46.5062V47.6789C43.2959 47.8246 43.6522 47.9634 44.0086 48.1022C44.0086 48.1299 44.0086 48.1508 44.0155 48.1785C43.6452 48.2965 43.2749 48.4144 42.8697 48.5463C42.8487 48.9279 42.8347 49.3026 42.8138 49.7606C42.4295 49.49 42.3247 49.0598 42.0103 48.7822Z" fill="white"/>
<path d="M53.2735 49.4275C52.9101 49.2401 52.5608 49.0667 52.2114 48.8863C52.2114 48.8585 52.2184 48.8307 52.2254 48.803C52.6097 48.7267 52.994 48.6573 53.3922 48.5809C53.4551 48.1923 53.518 47.8176 53.5949 47.3735C53.9163 47.7066 54.0071 48.1021 54.2656 48.4283C54.6499 48.3728 55.0342 48.3172 55.4185 48.2548C55.4325 48.2826 55.4464 48.3103 55.4674 48.3381C55.2648 48.5462 55.0691 48.7613 54.8595 48.9626C54.6918 49.1222 54.6639 49.2679 54.7827 49.4622C54.9364 49.712 55.0622 49.9826 55.153 50.3157C54.8036 50.1561 54.4543 49.9965 54.063 49.823C53.7765 50.1006 53.4831 50.3782 53.1896 50.6627C53.1687 50.6488 53.1477 50.6418 53.1197 50.628C53.1687 50.2394 53.2176 49.8508 53.2665 49.4344L53.2735 49.4275Z" fill="white"/>
<path d="M45.9649 49.8161C45.5945 49.9896 45.2382 50.1561 44.8819 50.3296C44.8609 50.3088 44.8399 50.288 44.819 50.2602C45.0006 49.9133 45.1753 49.5663 45.364 49.1986C45.0845 48.9002 44.819 48.6157 44.5535 48.3242C44.5674 48.3034 44.5884 48.2757 44.6024 48.2548C44.9797 48.3103 45.357 48.3728 45.7692 48.4353C45.9649 48.0883 46.1535 47.7483 46.3422 47.4083L46.426 47.4221C46.454 47.6026 46.4889 47.7899 46.5168 47.9703C46.5518 48.1577 46.5867 48.345 46.6216 48.5671C47.0059 48.6434 47.3902 48.7267 47.7675 48.803C47.7675 48.8308 47.7815 48.8585 47.7885 48.8794C47.4531 49.0528 47.1247 49.2263 46.7474 49.4206C46.7893 49.8023 46.8243 50.1908 46.8662 50.5794C46.8452 50.5933 46.8173 50.6141 46.7963 50.628C46.5238 50.3574 46.2443 50.0868 45.9509 49.7953L45.9649 49.8161Z" fill="white"/>
<path d="M48.9904 50.8014C49.0952 50.4406 49.2 50.0728 49.3188 49.6704C48.9974 49.4414 48.683 49.2124 48.3616 48.9834C48.3616 48.9556 48.3755 48.9209 48.3825 48.8932H49.5634C49.7031 48.4699 49.8219 48.1021 49.9476 47.7274C49.9756 47.7274 50.0105 47.7274 50.0385 47.7274C50.1712 48.0952 50.304 48.456 50.4437 48.8446H51.6734C51.394 49.2193 50.9957 49.3581 50.7302 49.6704C50.849 50.0381 50.9608 50.4128 51.0795 50.7806C51.0586 50.7945 51.0306 50.8084 51.0097 50.8292C50.6953 50.6141 50.3808 50.4059 50.0385 50.17C49.7101 50.4059 49.3887 50.628 49.0673 50.8569L48.9904 50.8014Z" fill="white"/>
<path d="M59.1287 49.0598C58.7514 48.9626 58.3671 48.8655 57.9828 48.7683C57.7452 49.1014 57.5217 49.4067 57.3051 49.712C57.2771 49.712 57.2422 49.6982 57.2142 49.6912C57.2072 49.5247 57.1933 49.3581 57.1863 49.1916C57.1513 48.3867 57.2492 48.5532 56.5295 48.3381C56.3618 48.2895 56.1941 48.234 56.0125 48.1022C56.3688 47.9564 56.7251 47.8177 57.1164 47.6581V46.4923C57.1164 46.4923 57.1653 46.4715 57.1933 46.4645C57.4308 46.756 57.6684 47.0474 57.9269 47.3597C58.3042 47.2348 58.6745 47.1099 59.0448 46.9919C59.0658 47.0197 59.0798 47.0405 59.1007 47.0682C58.8981 47.3874 58.6885 47.7066 58.4719 48.0397C58.7095 48.3589 58.947 48.6712 59.1846 48.9834C59.1706 49.0042 59.1497 49.032 59.1357 49.0528L59.1287 49.0598Z" fill="white"/>
<path d="M37.5875 9.84003C37.5875 10.7421 36.8399 11.4777 35.9386 11.4638C35.0442 11.4499 34.3385 10.7282 34.3455 9.84003C34.3525 8.95182 35.0722 8.25098 35.9735 8.25098C36.8888 8.25098 37.5875 8.93795 37.5875 9.84003ZM37.2242 9.86778C37.2242 9.16694 36.6722 8.59793 35.9735 8.59099C35.2958 8.58405 34.7298 9.13224 34.7158 9.81227C34.7019 10.5339 35.2748 11.1168 35.9945 11.1099C36.6792 11.1099 37.2242 10.5617 37.2242 9.86778Z" fill="white"/>
<path d="M32.2004 14.1562C32.0258 14.399 31.872 14.6141 31.6974 14.8501C31.6065 14.8015 31.5297 14.7599 31.4109 14.7043C31.5856 14.4337 31.7463 14.1839 31.914 13.941C31.9768 13.8439 32.0537 13.7606 32.1236 13.6774C32.7175 13.9688 33.0039 14.4823 32.9131 15.086C32.8013 15.884 32.1166 16.453 31.2991 16.4461C30.4746 16.4391 29.7969 15.8146 29.713 14.9958C29.6362 14.2047 30.1812 13.4484 30.9428 13.2749C31.2222 13.2124 31.2502 13.2333 31.2991 13.5455C31.1803 13.5802 31.0476 13.608 30.9288 13.6496C30.4048 13.8161 30.0694 14.2672 30.0694 14.8154C30.0694 15.3566 30.3908 15.8285 30.8939 16.0158C31.3829 16.1962 31.9908 16.0366 32.3122 15.6411C32.6686 15.204 32.6406 14.6211 32.1934 14.1631L32.2004 14.1562Z" fill="white"/>
<path d="M39.2155 9.47915C38.7125 8.55625 38.2304 7.67499 37.7273 6.75209C37.9788 6.62024 38.1745 6.49534 38.3911 6.41207C39.0618 6.14145 39.5789 6.48146 39.6138 7.20313C39.6138 7.24476 39.6138 7.29334 39.6138 7.32803C39.6418 7.34885 39.6697 7.3766 39.6907 7.3766C40.1309 7.4113 40.4103 7.64723 40.5151 8.06357C40.6199 8.50074 40.3754 8.79912 40.033 9.02117C39.7885 9.18077 39.523 9.30567 39.2155 9.47915ZM39.3762 8.99341C39.537 8.91014 39.6557 8.84769 39.7745 8.78524C39.8374 8.75054 39.9003 8.70197 39.9492 8.6534C40.1798 8.44522 40.2217 8.22317 40.0889 7.98724C39.9632 7.77213 39.7605 7.68192 39.4741 7.77213C39.2714 7.83458 39.0828 7.94561 38.8662 8.0497C39.0479 8.38971 39.2016 8.66728 39.3762 9.00035V8.99341ZM38.2304 6.89781C38.3981 7.19619 38.5518 7.46681 38.7055 7.73744C39.2645 7.45293 39.3693 7.25864 39.1806 6.91862C38.992 6.57861 38.7684 6.56473 38.2234 6.89781H38.2304Z" fill="white"/>
<path d="M64.7114 12.7752C65.501 12.0813 66.2556 11.429 67.0032 10.7767C67.7229 11.2486 68.0792 11.9703 67.9395 12.6433C67.6949 13.7952 66.2905 14.281 65.3962 13.5038C65.1586 13.2956 64.956 13.0389 64.7114 12.7752ZM67.0381 11.2347C66.4233 11.769 65.8363 12.2825 65.2285 12.8099C65.5778 13.2817 65.9621 13.6009 66.556 13.5038C67.0521 13.4275 67.3945 13.1291 67.5552 12.6572C67.7508 12.0882 67.4783 11.6649 67.0451 11.2347H67.0381Z" fill="white"/>
<path d="M64.5155 8.43834C64.7671 8.6812 65.0116 8.8755 65.2073 9.10449C65.4378 9.37511 65.4868 9.68737 65.2771 9.99963C65.0745 10.305 64.809 10.4854 64.4247 10.4437C64.3129 10.4299 64.2011 10.4021 64.0474 10.3743C63.9985 10.8878 63.9566 11.3805 63.9077 11.894C63.6422 11.8385 63.5583 11.7066 63.5863 11.4777C63.6212 11.1723 63.6422 10.8601 63.6701 10.5548C63.6841 10.416 63.6911 10.2772 63.6212 10.0968C63.3557 10.4021 63.0902 10.7074 62.8037 11.0336C62.7129 10.9711 62.636 10.9156 62.5103 10.8254C63.181 10.0274 63.8308 9.25715 64.5155 8.4314V8.43834ZM63.8727 9.77758C64.1243 9.97187 64.3199 10.187 64.6413 10.0829C64.8509 10.0135 64.9977 9.84697 65.0186 9.63186C65.0466 9.31266 64.83 9.13918 64.5435 8.97958C64.3199 9.24327 64.1103 9.50002 63.8727 9.77758Z" fill="white"/>
<path d="M62.154 6.77295C62.0003 7.92484 61.8536 9.01428 61.7068 10.1176C61.4344 10.1176 61.3575 9.99269 61.3854 9.78451C61.4134 9.55552 61.4413 9.3196 61.4763 9.06285C61.1129 8.84774 60.7636 8.63263 60.3793 8.40364C60.1767 8.54242 59.9671 8.67426 59.7714 8.82692C59.6107 8.95182 59.478 8.92407 59.3452 8.78529C59.5129 8.53548 61.5741 7.05051 62.161 6.77295H62.154ZM61.6929 7.50155C61.2876 7.68891 61.0012 7.91096 60.6937 8.2024C60.9872 8.36894 61.2317 8.50772 61.5322 8.67426C61.5881 8.25791 61.637 7.91096 61.6929 7.50155Z" fill="white"/>
<path d="M53.6228 3.74054C53.9023 4.8161 54.1748 5.8986 54.4613 6.99498C54.2167 7.03661 54.084 6.99498 54.0281 6.79374C54.0141 6.75211 54.0071 6.70354 53.9931 6.66884C53.9163 6.46761 53.8324 6.27331 53.7556 6.07208C53.3713 6.01657 52.994 5.95411 52.6097 5.91248C52.5538 5.91248 52.47 6.00963 52.421 6.07208C52.3232 6.20392 52.2394 6.3427 52.1555 6.48148C52.0368 6.68272 51.89 6.68966 51.6804 6.54394C52.2883 5.59328 52.8962 4.6565 53.4971 3.71973C53.532 3.71973 53.5739 3.7336 53.6089 3.74054H53.6228ZM53.7486 5.69737C53.6438 5.27408 53.553 4.91325 53.4691 4.55936C53.4412 4.55936 53.4062 4.55936 53.3783 4.55936C53.1826 4.86468 52.994 5.17694 52.7564 5.54471C53.0988 5.60022 53.3853 5.64185 53.7486 5.70431V5.69737Z" fill="white"/>
<path d="M41.6401 6.22475C42.0453 6.08597 42.3947 5.968 42.744 5.8431C42.8977 6.01657 42.9047 6.13454 42.6881 6.21781C42.3947 6.32883 42.1082 6.43292 41.7728 6.56476C41.9056 6.93947 42.0383 7.28643 42.1781 7.67502C42.5204 7.55011 42.8209 7.43909 43.1283 7.32806C43.3379 7.25173 43.4427 7.31418 43.4288 7.58481C42.9606 7.75829 42.4785 7.93176 41.9475 8.12606C41.5842 7.14765 41.2348 6.21781 40.8645 5.21858C41.3676 5.03122 41.8427 4.85081 42.3458 4.66345C42.3947 4.7606 42.4366 4.84387 42.4995 4.96183C42.1012 5.11449 41.7309 5.26021 41.3396 5.41287C41.4444 5.69044 41.5283 5.94024 41.6401 6.23169V6.22475Z" fill="white"/>
<path d="M44.0645 4.17077C44.5746 4.05975 45.0217 3.95566 45.4689 3.87239C45.5318 3.85851 45.6087 3.93484 45.6785 3.97648C45.6296 4.05281 45.5947 4.17771 45.5318 4.19853C45.2104 4.28874 44.875 4.35119 44.5466 4.42752C44.5466 4.53854 44.5326 4.61487 44.5466 4.68426C44.5816 4.87162 44.6305 5.05204 44.6864 5.28797C45.0078 5.22551 45.3012 5.16306 45.6017 5.10755C45.7903 5.07285 45.7903 5.07979 45.937 5.35736C45.5597 5.4545 45.1964 5.54471 44.7842 5.6488C44.7842 6.03045 44.896 6.39128 45.0217 6.78681C45.3501 6.71742 45.6646 6.64803 45.986 6.59945C46.1676 6.56476 46.1746 6.57864 46.2864 6.87008C45.7694 6.9811 45.2593 7.08519 44.7073 7.20315C44.4837 6.17617 44.2741 5.2047 44.0505 4.17077H44.0645Z" fill="white"/>
<path d="M67.5061 14.9818C67.569 15.0304 67.6389 15.079 67.7227 15.1414C67.6668 15.2802 67.5899 15.4121 67.555 15.5439C67.4921 15.7937 67.562 16.0088 67.7786 16.1684C67.9742 16.3141 68.1908 16.335 68.4074 16.2239C68.631 16.1129 68.7079 15.9047 68.6869 15.6688C68.666 15.4329 68.6171 15.2039 68.6101 14.968C68.5891 14.5377 68.7498 14.2741 69.0782 14.1492C69.3926 14.0312 69.7629 14.1353 70.0005 14.4128C70.273 14.7251 70.294 15.0512 70.0774 15.419C69.9166 15.419 69.8328 15.3496 69.8538 15.1761C69.8677 15.0582 69.8677 14.9402 69.8398 14.8292C69.7699 14.5863 69.5254 14.4475 69.2878 14.4892C69.0712 14.5308 68.9664 14.6626 68.9734 14.9471C68.9734 15.1553 69.0153 15.3566 69.0363 15.5647C69.0992 16.0921 68.9105 16.4529 68.4843 16.6056C68.0511 16.7652 67.569 16.5917 67.3175 16.1962C67.0659 15.7937 67.1218 15.3704 67.4921 14.9888L67.5061 14.9818Z" fill="white"/>
<path d="M34.7297 12.5046C34.9672 12.6156 35.0651 12.6989 34.9393 12.8515C34.8205 12.9972 34.6878 13.143 34.555 13.2817C34.4572 13.3858 34.3524 13.4899 34.2266 13.6079C33.458 12.907 32.7174 12.2339 31.9558 11.547C32.0397 11.4498 32.0956 11.3735 32.1934 11.2694C32.8781 11.887 33.5419 12.4907 34.2546 13.136C34.4223 12.914 34.576 12.7127 34.7297 12.5115V12.5046Z" fill="white"/>
<path d="M49.0252 4.39973C49.0112 4.94098 48.592 5.32957 48.04 5.30875C47.523 5.28794 47.1177 4.85771 47.1317 4.3581C47.1457 3.85848 47.5789 3.44214 48.0889 3.44214C48.6199 3.44214 49.0392 3.86542 49.0322 4.40667L49.0252 4.39973ZM48.8715 4.38586C48.8715 3.98339 48.5291 3.62256 48.1099 3.60868C47.6767 3.5948 47.3064 3.94869 47.2994 4.37892C47.2994 4.80914 47.6627 5.16997 48.0959 5.16303C48.5082 5.15609 48.8645 4.79526 48.8645 4.39279L48.8715 4.38586Z" fill="white"/>
<path d="M89.1171 67.3373C89.1032 67.6426 89.0892 67.9341 89.0752 68.2463H88.5302C88.4743 67.4345 88.5023 66.6295 88.5093 65.7899C89.0263 65.665 89.5294 65.6581 90.0255 65.7483C90.298 65.7968 90.5215 65.9564 90.5844 66.2548C90.6543 66.5463 90.5425 66.7752 90.291 66.9348C90.256 66.9557 90.2211 66.9834 90.1582 67.0181C90.5495 67.3443 90.5495 67.7884 90.6683 68.1908C90.1303 68.3504 90.0674 68.3157 89.9276 67.823C89.7809 67.3096 89.718 67.2679 89.1102 67.3304L89.1171 67.3373ZM89.1591 66.1715V66.8655C89.3687 66.8377 89.5434 66.8308 89.7041 66.7961C89.8578 66.7544 89.9556 66.6434 89.9416 66.4699C89.9276 66.3034 89.8159 66.1993 89.6621 66.1785C89.5084 66.1577 89.3477 66.1785 89.1591 66.1785V66.1715Z" fill="white"/>
<path d="M56.9208 10.7768C57.1095 10.5479 57.1374 10.8462 57.2842 10.8809C57.3261 10.6866 57.368 10.4923 57.4239 10.2425C57.5776 10.0482 57.7872 10.0552 58.0527 10.1801C61.9166 12.0398 64.8372 14.864 66.8006 18.6527C66.8844 18.8193 66.9263 19.0135 66.9403 19.2009C66.9613 19.5062 66.9403 19.8185 66.9263 20.1307C66.9263 20.2071 66.9263 20.3112 66.8914 20.3459C66.5071 20.672 66.7167 21.1438 66.5909 21.5394C66.556 21.6504 66.6259 21.7892 66.6468 21.921C66.7167 22.2819 66.7936 22.6427 66.8425 23.0035C66.8634 23.1701 66.8215 23.3297 66.6119 23.3366C66.5001 22.8231 66.3813 22.3235 66.2626 21.7753C66.1578 21.8516 66.0739 21.9071 65.9691 21.9835C65.9551 21.8378 65.9342 21.7129 65.9202 21.5879C65.9062 21.5879 65.8853 21.581 65.8713 21.5741C65.8363 21.6851 65.8084 21.8031 65.7735 21.9141C65.7176 22.0991 65.7851 22.224 65.9761 22.2888C66.2416 22.379 66.2975 22.4692 66.1438 22.7051C65.9621 22.9758 65.9761 23.2186 66.0809 23.5309C66.3045 24.2179 66.3953 24.9326 66.1298 25.6473C66.0739 25.8 65.9062 26.022 66.2276 26.1192C66.2486 26.1192 66.2556 26.2024 66.2486 26.2441C66.2067 26.4869 66.1647 26.7229 66.1228 26.9657C66.0949 26.9657 66.0599 26.9657 66.032 26.9588C66.018 26.7784 66.011 26.591 65.997 26.4314C65.7595 26.6465 65.508 26.8547 65.2774 27.0906C65.1935 27.1739 65.1446 27.3058 65.1167 27.4237C65.0748 27.6041 65.0957 27.8054 64.8931 27.9095C64.5647 27.6874 65.0398 27.4515 64.8302 27.2086C64.5926 27.3266 64.5367 27.5417 64.5367 27.7776C64.5367 27.8956 64.5717 28.0135 64.6136 28.1246C64.9699 28.9434 64.7603 29.6095 64.0966 30.1577C64.0057 29.8663 63.9149 29.5887 63.8241 29.3042H63.7123C63.6634 29.4152 63.5795 29.5332 63.5865 29.6373C63.6005 29.9704 63.6354 30.3034 63.7053 30.6296C63.7752 30.928 63.7123 31.5455 63.5935 31.8856C63.5376 32.0452 63.5935 32.2464 63.6214 32.4199C63.6354 32.5101 63.7262 32.5933 63.7472 32.628C63.6214 32.8154 63.5166 32.975 63.4048 33.1277C63.5306 33.3081 63.6005 33.4677 63.8311 33.426C63.873 33.4191 63.9708 33.4746 63.9778 33.5093C64.0267 33.8979 64.3341 33.7869 64.5577 33.8146C64.7044 33.8354 64.8512 33.8146 65.0748 33.8146C64.9071 33.9812 64.7743 34.113 64.5926 34.2934C64.5996 34.1408 64.6066 34.0575 64.6136 33.9326C64.4878 34.0159 64.397 34.0714 64.3481 34.1061C64.0896 33.9812 63.859 33.8701 63.6284 33.7522C63.4468 33.662 63.328 33.5579 63.2581 33.315C63.1463 32.9264 63.0695 32.5586 63.0555 32.1562C63.0415 31.7815 62.9227 31.4137 62.8459 31.039C62.8319 30.9696 62.8319 30.9002 62.8249 30.8169C63.2511 30.7614 63.1114 31.2125 63.3909 31.3582C63.3559 31.0112 63.321 30.699 63.3 30.3867C63.293 30.241 63.293 30.0953 63.328 29.9565C63.4607 29.4499 63.4677 28.9364 63.4188 28.3883C63.3 28.416 63.1882 28.4438 63.0415 28.4854C63.1323 27.9303 62.9297 27.4654 62.769 26.9866C62.3149 27.0074 62.1751 27.389 61.9515 27.6527C61.7419 27.8956 61.5533 28.1662 61.3576 28.423C61.3297 28.4576 61.2808 28.4923 61.2808 28.527C61.2738 28.9642 61.0153 29.3736 61.1829 29.8246C61.2319 29.9634 61.2598 30.1161 61.2598 30.2549C61.2598 30.4145 61.2249 30.5741 61.0153 30.6435C60.8196 30.4769 60.9244 30.2618 60.9035 30.0328C60.8126 30.0606 60.7288 30.0883 60.5821 30.13C60.4074 29.1516 60.1558 28.187 60.1349 27.1947C59.8135 27.16 59.7995 27.1531 59.6737 26.9172C59.527 26.6327 59.3873 26.3482 59.2545 26.0845C58.7375 26.0359 58.2623 25.9873 57.7523 25.9318C57.7034 26.0775 57.7663 26.1747 57.906 26.2649C58.2903 26.5216 58.3252 26.6674 58.1016 27.056C57.9409 27.3266 57.8431 27.625 57.5706 27.8331C57.0955 28.187 56.6204 28.5479 56.0614 28.7768C55.8728 28.8532 55.6911 28.9295 55.4815 29.0128C55.5374 29.1377 55.5723 29.2279 55.6212 29.3458C56.0055 29.2556 56.3758 29.1724 56.7601 29.0822C56.8719 29.3042 56.7951 29.5124 56.7042 29.7067C56.4038 30.3312 56.1313 30.9627 55.5444 31.4068C55.2439 31.6357 55.0273 31.9758 54.7898 32.2741C54.4753 32.6697 54.5312 33.1415 54.6361 33.5718C54.7269 33.9534 54.636 34.3004 54.5662 34.6543C54.5382 34.8 54.3496 34.9179 54.2238 35.0359C54.0841 35.1677 53.9234 35.2788 53.7766 35.3967C53.6648 35.4869 53.6299 35.591 53.6579 35.7506C53.7138 36.049 53.7068 36.3405 53.3644 36.5001C53.3015 36.5278 53.2596 36.6388 53.2386 36.7152C53.1268 37.1454 52.8334 37.4646 52.5539 37.7907C52.3862 37.992 52.1626 38.103 51.8901 38.0891C51.7923 38.0891 51.6875 38.1169 51.5827 38.1307C51.2543 38.1862 51.1844 38.1238 51.1006 37.7907C51.0307 37.4923 50.9119 37.2148 50.8141 36.9233C50.7512 36.7429 50.6953 36.5625 50.6394 36.3821C50.5207 36.0213 50.4648 35.6257 50.2831 35.2996C50.0455 34.8694 50.1084 34.4669 50.2691 34.0714C50.36 33.8493 50.3879 33.6689 50.311 33.4469C50.2482 33.2664 50.2621 33.0652 50.2062 32.8848C50.1154 32.5933 50.0036 32.3088 49.773 32.0729C49.5914 31.8856 49.5215 31.6496 49.5914 31.379C49.6333 31.2055 49.6473 31.032 49.6752 30.8586C49.6053 30.7961 49.5355 30.7337 49.4726 30.6643C49.4446 30.6365 49.4237 30.5602 49.4167 30.5671C49.0743 30.6365 48.9695 30.3867 48.8158 30.1716C48.7599 30.0953 48.4874 30.0953 48.3686 30.1647C48.0822 30.3173 47.8097 30.4145 47.4883 30.3104C47.4394 30.2965 47.3555 30.2965 47.3136 30.3243C47.0062 30.5394 46.8245 30.3381 46.6358 30.1438C46.3913 29.894 46.1048 29.6859 46.028 29.3042C45.993 29.1377 45.8114 28.992 45.6926 28.8462C45.4271 28.5201 45.3712 28.1662 45.455 27.7429C45.5179 27.4376 45.455 27.1045 45.441 26.7784C45.441 26.6951 45.3712 26.6049 45.3851 26.5216C45.49 25.9041 45.6856 25.3142 46.1258 24.8563C46.3214 24.655 46.4751 24.4815 46.4821 24.1832C46.4891 23.9056 46.566 23.628 46.8245 23.4546C46.8594 23.4268 46.8944 23.3991 46.9223 23.3644C47.2228 23.0243 47.1249 22.6843 46.6917 22.5317C46.6219 22.2194 46.5869 21.9141 46.7057 21.5879C46.7686 21.4145 46.7267 21.2063 46.7267 21.0189C46.7267 20.7067 46.8524 20.5957 47.1738 20.6373C47.3904 20.665 47.607 20.6997 47.8446 20.7275C47.9913 20.2765 48.0123 19.9017 47.607 19.6034C47.4114 19.4576 47.4533 19.2495 47.6839 19.2356C47.8935 19.2217 47.8935 19.0344 48.0263 18.9858C48.152 18.9442 48.2778 18.9303 48.3966 18.847C48.0542 18.7846 47.7328 18.9233 47.3345 19.0135C47.4673 18.7707 47.628 18.6041 47.5162 18.389C47.5931 18.167 47.6769 17.9519 47.7538 17.7437C47.4463 17.8408 47.4044 17.9519 47.5232 18.396C47.3625 18.3127 47.2158 18.3543 47.062 18.4307C46.9922 18.4654 46.8455 18.4654 46.8245 18.4307C46.7756 18.3613 46.7826 18.2433 46.7896 18.1531C46.8035 18.0282 46.8315 17.9033 46.8664 17.7853C46.8944 17.6951 46.9223 17.591 46.9852 17.5216C47.111 17.3829 47.2647 17.2718 47.4184 17.1261C47.2228 16.571 47.4952 16.2865 48.0542 16.1893C47.9634 16.4738 48.1381 16.7445 48.0961 17.0637C48.0612 17.3204 48.2359 17.6327 48.3966 17.8755C48.5363 18.0837 48.6202 18.2711 48.4874 18.5347C48.5293 18.5347 48.5713 18.5417 48.6132 18.5486C48.718 18.389 48.7879 18.1947 48.9276 18.0768C49.0743 17.9449 49.2839 17.8755 49.4866 17.7714C49.4866 17.6951 49.5075 17.6049 49.4866 17.5216C49.3748 17.1539 49.4516 16.8485 49.808 16.6543C49.9407 16.5779 49.9547 16.4877 49.8988 16.3212C49.7241 16.4322 49.5634 16.5363 49.3888 16.6473C48.9975 16.3698 49.1093 15.9742 49.0673 15.6273C49.0114 15.1693 49.3608 14.8987 49.6612 14.6766C49.8639 14.517 49.9757 14.3297 50.0944 14.1354C50.2552 13.8786 50.346 13.5733 50.4787 13.2541C50.4158 13.2541 50.353 13.268 50.2202 13.2819C50.3809 13.0598 50.4857 12.8586 50.6464 12.7059C50.9259 12.4353 51.2683 12.2479 51.5967 12.0328C51.8622 11.8593 52.3094 11.9426 52.5399 12.241C52.6867 12.4283 52.8683 12.5047 53.064 12.6018C53.3504 12.7475 53.6159 12.9418 53.8605 13.15C53.9583 13.2333 53.9793 13.4068 54.0421 13.5594C54.0911 13.5594 54.1749 13.5594 54.2937 13.5733C54.2378 13.3166 54.1889 13.0667 54.14 12.8239C54.5522 12.8239 54.5662 12.8239 54.5662 13.3235C54.7618 13.1153 54.9505 12.9141 55.1461 12.7129C55.2509 12.6018 55.3767 12.5255 55.5444 12.581C55.747 12.6504 55.8798 12.5533 55.9846 12.3867C55.8937 12.2618 55.8029 12.1438 55.6631 11.9565C55.8937 12.0328 56.0405 12.0814 56.1872 12.123C56.3269 12.1647 56.4737 12.1924 56.6134 12.2271C56.5505 11.6789 56.4806 11.1169 56.4108 10.5132C56.6274 10.6311 56.7671 10.7075 56.9138 10.7838C56.9418 10.874 56.9627 10.9642 56.9907 11.0544C57.0256 11.0336 57.0606 11.0128 57.0955 10.992C57.0326 10.9226 56.9697 10.8601 56.9069 10.7907L56.9208 10.7768ZM54.0002 23.0452C53.8046 23.0313 53.595 23.1701 53.4203 22.9688C53.3993 22.9411 53.2945 22.9827 53.2247 23.0035C52.8683 23.1007 52.6797 23.0313 52.5539 22.7051C52.4281 22.3859 52.3373 22.0459 52.2255 21.7059C52.0997 21.81 51.9949 21.8933 51.8901 21.9765C51.9879 22.1431 52.0718 22.2957 52.1486 22.4345C52.0369 22.6149 51.939 22.7607 51.8412 22.9133C51.7853 22.8717 51.7154 22.8439 51.6945 22.7953C51.5967 22.5941 51.4709 22.4206 51.401 22.1847C51.3312 21.9418 51.2054 21.7198 51.1774 21.4422C51.1635 21.3243 51.0307 21.1785 50.9189 21.1161C50.6953 21.0051 50.5207 20.8732 50.4089 20.6512C50.36 20.561 50.2621 20.4985 50.1713 20.4152C50.1573 20.4846 50.1294 20.5263 50.1434 20.5401C50.332 20.79 50.3809 21.1369 50.7093 21.3034C50.856 21.3798 50.9678 21.5394 51.0796 21.6782C51.1984 21.8169 51.1635 21.8655 50.884 21.921C50.9888 22.3235 50.6255 22.5178 50.5067 22.8578C50.318 22.7121 50.1014 22.6635 50.0665 22.3929C50.1923 22.3721 50.311 22.3651 50.4228 22.3304C50.6534 22.268 50.7163 22.1223 50.5766 21.9349C50.346 21.6157 50.0385 21.3728 49.7102 21.1369C49.5075 21.4769 49.8918 21.9071 49.4796 22.1708C49.242 21.6712 49.3398 21.0953 49.6892 20.8385C49.5821 20.6997 49.3864 20.7391 49.1023 20.9565C48.9695 20.9287 48.8507 20.9079 48.697 20.8732C48.6621 21.1855 48.5713 21.4283 48.3197 21.6088C48.2009 21.692 48.1381 21.8378 48.152 22.032C48.18 22.3859 47.9354 22.6288 47.5511 22.6982C47.4254 22.719 47.3206 22.7537 47.3415 22.9411C47.5791 23.0174 47.8027 23.059 48.0263 22.8647C48.2359 22.6774 48.5014 22.6357 48.7739 22.6219C49.0394 22.608 49.2979 22.5664 49.5634 22.5733C49.6682 22.5733 49.8359 22.6635 49.8639 22.7468C49.9128 22.9064 49.8988 23.0868 49.8778 23.2603C49.8499 23.5586 49.8988 23.635 50.1783 23.7252C50.318 23.7668 50.5207 23.8015 50.5696 23.8987C50.7163 24.2179 51.0447 24.2456 51.3102 24.4885C51.3242 24.3358 51.3102 24.2526 51.3381 24.1762C51.3591 24.0791 51.3801 23.9611 51.443 23.8987C51.5827 23.7529 51.7574 23.7529 51.932 23.8501C52.3792 24.0999 52.8194 24.3983 53.3784 24.1623C53.4133 24.1485 53.4692 24.1623 53.5111 24.1762C53.8954 24.2456 53.8954 24.2456 53.9932 23.9125C54.0421 23.7599 54.098 23.6003 54.112 23.4407C54.126 23.2811 54.0911 23.1145 54.0701 22.9549C54.0352 22.9688 54.0072 22.9758 53.9723 22.9896C53.9862 23.0105 54.0002 23.0313 54.0142 23.0521L54.0002 23.0452ZM53.2736 20.103L53.1338 20.1169C53.029 20.3805 52.9312 20.6581 52.8124 20.9149C52.7286 21.0883 52.6867 21.2687 52.8334 21.4075C52.9941 21.5533 53.1827 21.5186 53.3644 21.4075C53.6299 21.241 53.9024 21.241 54.1539 21.4283C54.3775 21.5879 54.6081 21.6157 54.8666 21.5324C55.0972 21.1022 54.65 21.0051 54.4893 20.79C54.2657 20.4985 53.9583 20.443 53.6369 20.6928C53.5041 20.4777 53.3854 20.2903 53.2736 20.103ZM50.4438 17.7645C50.7442 17.3967 51.1425 17.5008 51.5617 17.5702C51.3172 17.3135 51.3661 17.0637 51.443 16.7792C51.5128 16.5085 51.4639 16.2032 51.8203 16.0506C51.4919 15.9118 51.3242 15.7383 51.3731 15.3913C51.401 15.204 51.3172 15.0028 51.2892 14.7946C50.863 15.1138 50.8001 15.3358 51.0237 15.7314C51.1215 15.8979 51.1705 16.0783 51.0377 16.224C50.856 16.4183 50.8351 16.6265 50.849 16.8694C50.849 16.9804 50.7722 17.1261 50.6814 17.1955C50.5416 17.3065 50.36 17.369 50.1923 17.4592C50.2761 17.5563 50.346 17.6396 50.4508 17.7645H50.4438ZM56.7042 20.0475C56.7042 20.0475 56.6623 19.9781 56.6413 19.9434C56.5226 19.9642 56.3688 19.9434 56.285 20.0128C56.1313 20.1377 56.0055 20.3042 55.8867 20.4638C55.8658 20.4985 55.8867 20.5818 55.9147 20.6304C56.0963 21.0259 56.278 21.4145 56.4876 21.8586C56.4667 22.0529 56.2221 22.3374 56.4737 22.5941C56.6274 22.7537 56.823 22.9411 57.1374 22.7051C56.8649 22.0251 56.8579 21.2271 56.3199 20.6234C56.4667 20.4083 56.5854 20.2279 56.7112 20.0405L56.7042 20.0475ZM55.4116 28.6172C55.3487 28.2217 55.3697 27.8956 55.1671 27.5972C55.0064 27.3613 54.8037 27.0976 54.7758 26.827C54.7129 26.2926 54.3636 25.9041 54.1959 25.4322C54.1749 25.3698 54.098 25.3212 54.0421 25.2657C54.0142 25.2795 53.9863 25.2934 53.9583 25.3004C53.9932 25.4461 54.0072 25.6057 54.0561 25.7445C54.2308 26.2441 54.5662 26.6951 54.5522 27.2572C54.5522 27.3266 54.6361 27.4029 54.678 27.4792C54.7269 27.5694 54.7968 27.6597 54.8107 27.7499C54.8527 28.1176 55.1112 28.3258 55.4116 28.6103V28.6172ZM56.9627 26.0984C57.361 26.1261 57.361 26.1192 57.5077 25.7375C57.2981 25.5849 57.1025 25.4391 56.8929 25.3073C56.6903 25.1755 56.7671 24.8146 56.3758 24.7661C56.4387 24.9534 56.4876 25.0991 56.5226 25.2379C56.6134 25.5502 57.0047 25.6959 56.9627 26.0984ZM53.4972 14.0382C53.6229 14.0937 53.7207 14.1354 53.8255 14.177V13.7884H53.2107C53.2316 13.948 53.2526 14.0799 53.2806 14.2603C53.3644 14.1631 53.4203 14.1076 53.4972 14.0313V14.0382ZM51.7923 14.0382C51.5827 14.066 51.4686 14.2695 51.4499 14.6489C51.6596 14.4893 51.7783 14.3158 51.7923 14.0382ZM52.1137 15.8424C52.2185 15.9673 52.3303 16.0852 52.4491 15.8216C52.3093 15.8285 52.2115 15.8354 52.1137 15.8424ZM49.9966 17.0914C49.9966 17.0914 50.0665 17.0706 50.1014 17.0567C50.0665 16.9804 50.0316 16.8971 49.9966 16.8208C49.9687 16.8347 49.9407 16.8416 49.9128 16.8555C49.9407 16.9318 49.9687 17.0151 49.9966 17.0914ZM57.7733 13.0112H57.8012V12.7337H57.7733V13.0112Z" fill="white"/>
<path d="M38.9221 16.5917C38.9221 16.8069 38.9011 16.9387 38.9221 17.0705C38.9431 17.1746 38.992 17.2995 39.0688 17.362C39.2086 17.4661 39.3204 17.3273 39.4042 17.2371C39.509 17.1261 39.5859 16.9803 39.6907 16.8207C39.9771 17.0705 40.1798 17.3828 40.1937 17.6881C40.2077 17.9379 40.3475 18.0906 40.4662 18.1322C40.7108 18.2294 40.8855 18.3682 41.0252 18.5763C41.0601 18.6249 41.144 18.6457 41.2697 18.7082C41.158 18.8678 41.0811 19.0343 40.9623 19.1315C40.5221 19.4992 40.068 19.8323 39.4391 19.7143C39.3832 19.7005 39.3204 19.7213 39.2645 19.7421C39.0898 19.7976 38.7055 20.2001 38.6286 20.4707C38.7684 20.3319 38.9011 20.1862 39.0409 20.0474C39.2086 19.8878 39.3832 19.8045 39.5929 20.0266C39.5719 20.214 39.3343 20.3874 39.523 20.6372C39.6208 20.6581 39.7536 20.6858 39.9073 20.7205C39.8793 20.7899 39.8444 20.8593 39.8164 20.9287C39.8304 20.9426 39.8374 20.9564 39.8514 20.9773C39.9771 20.8801 40.1029 20.776 40.2566 20.6581C40.2776 20.7344 40.3265 20.8107 40.3125 20.8315C40.047 21.116 39.6977 21.2618 39.2645 21.4075C39.3413 21.2409 39.3902 21.1438 39.4391 21.0397C39.4112 21.0397 39.3832 21.0189 39.3693 21.0258C39.1387 21.1646 38.9221 21.3173 38.6845 21.4422C38.426 21.5879 38.3282 21.7752 38.426 22.0528C38.0976 22.2402 37.7832 22.4136 37.6504 22.7884C37.6015 22.9341 37.4828 23.3435 37.4408 23.4684C37.3779 23.6557 37.2941 23.8709 37.1474 23.9819C36.6862 24.3288 36.5674 24.7799 36.6443 25.3142C36.6722 25.4877 36.7212 25.6611 36.7351 25.8346C36.7491 25.9665 36.7351 26.1052 36.7351 26.2926C36.4417 26.1677 36.4067 25.9456 36.3369 25.7722C36.0993 25.1893 35.8967 25.0436 35.2818 25.113C35.2539 25.113 35.2259 25.1338 35.177 25.1476C35.17 25.224 35.163 25.3072 35.1491 25.3905C35.1211 25.3905 35.0932 25.4183 35.0722 25.4044C34.5342 25.1338 33.8565 25.5154 33.8425 26.1052C33.8425 26.3551 33.8145 26.6049 33.8285 26.8547C33.8355 27.0281 33.8704 27.2086 33.9263 27.3751C34.0521 27.7706 34.1848 27.8539 34.6111 27.8608C34.6879 27.8608 34.7578 27.8608 34.8416 27.847C34.9185 27.6874 34.9744 27.5208 35.0792 27.389C35.1421 27.3126 35.2888 27.2363 35.3727 27.2571C35.4495 27.2779 35.5264 27.4237 35.5403 27.5208C35.5613 27.6596 35.5194 27.8123 35.4984 27.958C35.4775 28.1106 35.4425 28.2702 35.4146 28.4576C35.5962 28.4576 35.722 28.4576 35.8548 28.4576C36.2181 28.4576 36.3718 28.5964 36.3788 28.9641C36.3788 29.1099 36.3369 29.2556 36.3369 29.4013C36.3369 29.7413 36.4766 29.8732 36.812 29.9079C37.0565 29.9356 37.3011 29.9703 37.5596 30.005C37.8042 29.5956 37.9369 29.4638 38.3491 29.2278C38.3841 29.3527 38.426 29.4776 38.4889 29.6928C38.5867 29.5262 38.6566 29.4152 38.7195 29.3111C38.9081 29.4291 39.0199 29.5332 39.1527 29.5748C39.3413 29.6303 39.6138 29.7205 39.7396 29.6303C39.9841 29.4568 40.1099 29.7274 40.2916 29.6928C40.3754 30.0466 40.8016 30.0536 40.9623 30.352C41.0322 30.4838 41.1789 30.5948 41.3955 30.6018C42.1571 30.6295 42.7021 31.1153 42.5833 31.9063C42.6602 31.9063 42.758 31.8786 42.8139 31.9063C42.8838 31.948 42.9187 32.0382 42.9956 32.1492C43.324 32.0035 43.6034 32.0867 43.7781 32.4337C44.4069 32.1908 44.903 32.3365 45.3153 32.857C45.6926 33.3288 45.7275 33.8631 45.3572 34.3697C45.1546 34.6542 45.0917 34.9456 45.0847 35.2787C45.0847 35.6187 45.0498 35.9588 45.0009 36.2918C44.9659 36.5486 44.8332 36.7082 44.5327 36.729C44.1694 36.7567 43.9179 36.9927 43.6943 37.2494C43.9388 38.1168 43.6034 38.6997 42.5903 39.1369C42.6113 39.2132 42.6322 39.2895 42.6532 39.3658C42.7091 39.5879 42.6113 39.7544 42.4017 39.8169C42.1431 39.8863 41.9126 39.9557 41.7868 40.2263C41.7658 40.2679 41.682 40.2749 41.5981 40.3096C41.8497 40.6426 41.5632 40.8994 41.4654 41.1839C41.703 41.3828 41.7402 41.6049 41.5772 41.85C41.4374 42.0652 41.4584 42.2178 41.668 42.3843C41.7728 42.4676 41.8916 42.5231 42.0593 42.6203C41.9405 42.6619 41.8637 42.7174 41.8008 42.7035C41.5702 42.6827 41.2698 42.7035 41.137 42.5786C40.9973 42.4399 40.7876 42.3566 40.6968 42.1901C40.585 41.9749 40.2357 41.8778 40.3614 41.5378C40.3824 41.4892 40.2496 41.3851 40.1868 41.3088C40.3754 41.0937 40.3824 40.719 40.1518 40.4553C39.9492 40.2194 39.9003 39.9626 39.8863 39.6781C39.8584 38.9842 39.8374 38.2903 39.8094 37.5964C39.8025 37.4021 39.7955 37.2147 39.7885 37.0204C39.7536 36.2363 39.4391 35.5979 38.7823 35.1399C38.3002 34.7999 37.9299 34.3697 37.6784 33.8284C37.6295 33.7244 37.5736 33.6064 37.4897 33.5301C37.2312 33.2872 37.0845 33.0305 37.2801 32.6766C37.3011 32.6349 37.3011 32.5378 37.2801 32.51C36.9937 32.2394 37.2033 31.9965 37.3151 31.7467C37.371 31.6288 37.4548 31.5177 37.5107 31.3998C37.6994 30.9695 37.5596 30.5532 37.3849 30.1646C37.3081 29.9842 37.1124 30.0466 36.9238 30.3103C36.4557 30.1299 36.0853 29.8246 35.8268 29.3944C35.715 29.214 35.5962 29.096 35.3727 29.0266C35.1561 28.9641 34.9744 28.7837 34.7787 28.6519C34.6111 28.5339 34.4853 28.3813 34.2268 28.4992C34.108 28.5478 33.9054 28.4784 33.7656 28.409C33.1927 28.1245 32.7315 27.7221 32.452 27.1322C32.2704 26.7436 32.0887 26.355 31.8931 25.9734C31.7813 25.7652 31.6625 25.5501 31.5158 25.3766C31.3341 25.1615 31.2992 24.9464 31.3341 24.6827C31.8442 20.9495 33.3184 17.6534 35.8058 14.8153C35.8478 14.7737 35.8897 14.7251 35.9316 14.6904C35.9526 14.6696 35.9805 14.6627 36.0225 14.6349C36.0574 14.7113 36.0923 14.7876 36.1412 14.8917C36.2949 14.6974 36.5115 14.5378 36.5674 14.3296C36.7142 13.7675 37.1683 13.5177 37.5945 13.2471C37.7552 13.143 37.9718 13.1291 38.0277 12.8863C38.0417 12.8377 38.1395 12.8099 38.2164 12.7683C38.3701 12.9695 38.5099 13.1569 38.6636 13.3651C38.8033 13.3859 39.0479 13.1916 39.1038 13.5108C39.1038 13.5316 39.2086 13.5316 39.2645 13.5386C39.6767 13.6079 39.7396 13.7467 39.502 14.1284C39.8444 14.3157 40.1868 14.4961 40.592 14.7113C40.3754 14.8639 40.1728 15.0027 39.9702 15.1484C39.9911 15.1762 40.0121 15.2109 40.033 15.2386C39.8793 15.1137 39.7326 14.9888 39.5579 14.8431C39.4042 15.079 39.509 15.197 39.6487 15.3288C39.9422 15.6064 39.9422 15.6133 39.7536 15.9672C39.6068 15.9187 39.4601 15.8701 39.2575 15.8007C39.3832 15.9534 39.4671 16.0644 39.6068 16.2309C39.1597 16.1823 38.8103 16.1685 38.5797 15.8076C38.3911 15.5162 38.3561 15.5301 37.9858 15.6203C37.867 15.648 37.7343 15.6203 37.6155 15.6133C37.6085 15.6133 37.5876 15.5093 37.5945 15.4954C37.6994 15.4329 37.8181 15.3288 37.9229 15.3358C38.2024 15.3566 38.3212 15.2247 38.3911 14.9819C38.44 14.8153 38.5518 14.6696 38.6426 14.4892C38.405 14.2949 38.1745 14.1006 37.9369 13.9133C37.902 13.8855 37.8531 13.8577 37.8181 13.8647C37.5596 13.9063 37.3081 13.9618 37.0006 14.0173C37.1544 14.1839 37.2592 14.3088 37.0845 14.4892C37.0146 14.5655 37.0496 14.739 37.0286 14.8986C36.7561 14.8709 36.6094 15.1207 36.3369 15.1554C36.1762 15.1762 36.0574 15.4607 35.9107 15.6133C35.7779 15.7521 35.6102 15.8562 35.4914 16.0019C35.163 16.4183 34.66 16.7305 34.6739 17.3481C34.6739 17.4453 34.7019 17.5424 34.7368 17.6326C34.7927 17.7783 34.8696 17.9102 34.9534 18.0767C35.3307 18.0767 35.722 18.1045 36.0294 18.4306C36.1063 18.5139 36.3019 18.4792 36.4696 18.5C36.6024 18.8539 36.5255 19.3119 36.9587 19.6311C36.9937 19.3327 37.0356 19.0898 37.0426 18.847C37.0496 18.6457 37.1054 18.4931 37.2801 18.3543C37.5945 18.1045 37.6155 17.9865 37.4548 17.6257C37.35 17.3967 37.336 17.2024 37.4408 16.9526C37.5247 16.7652 37.4967 16.5293 37.5247 16.2656C38.0277 16.1962 38.4609 16.4391 38.9361 16.564L38.9221 16.5917ZM36.7701 21.2826C36.3858 21.0536 35.8687 21.0328 35.6382 21.2132C35.4355 21.3728 35.3866 21.803 35.5543 22.2471C35.6242 21.9695 35.6871 21.7683 35.736 21.5601C35.7919 21.3242 35.9176 21.2409 36.1482 21.3173C36.1855 21.5208 36.2717 21.6619 36.4067 21.7406C36.4999 21.5231 36.6233 21.3705 36.7771 21.2826H36.7701ZM35.5473 20.2695C35.3028 20.4846 35.1211 20.6442 34.9464 20.8038C35.3028 20.7136 35.6032 21.1369 35.9666 20.8454C35.8408 20.6719 35.715 20.4985 35.5543 20.2695H35.5473Z" fill="white"/>
<path d="M43.5264 15.4816C43.2399 15.3636 43.0582 15.1624 42.7997 15.3081C42.7648 15.3289 42.667 15.2526 42.6111 15.2109C42.1918 14.8223 41.8844 14.3505 41.7027 13.8023C41.6399 13.6149 41.6818 13.4831 41.8145 13.3721C41.9752 13.2402 42.0661 13.0876 42.073 12.8378C41.9403 12.8308 41.8215 12.8239 41.6957 12.8169C41.3674 12.7961 41.2625 12.6573 41.3045 12.3312C41.3743 11.79 40.8992 11.2765 40.3612 11.325C40.2285 11.3389 40.1027 11.3597 39.949 11.3736C40.6896 10.4438 45.3779 8.66737 46.943 8.71594C46.9151 8.81309 46.8871 8.89636 46.8522 9.00738C47.0129 9.08371 47.1806 9.1531 47.4112 9.25719C47.1736 9.34046 46.9989 9.40291 46.7963 9.4723C46.992 9.56251 47.1387 9.6319 47.3413 9.72905C47.2016 9.80538 47.1177 9.85395 47.0479 9.88865C47.0758 9.95804 47.1457 10.076 47.1317 10.0899C46.9989 10.194 47.1457 10.4646 46.8941 10.4923C46.7614 10.5062 46.6286 10.527 46.4959 10.5409C46.2932 10.5548 46.2863 10.6936 46.2583 10.8324C46.5238 10.9087 46.7544 10.9781 46.978 11.0405C47.0339 11.2626 46.971 11.3667 46.7823 11.3875C46.6216 11.4014 46.454 11.4014 46.2932 11.4291C46.2374 11.4361 46.1954 11.5193 46.1954 11.6512C46.3841 11.6095 46.5727 11.5679 46.7684 11.5332C46.7823 11.561 46.7963 11.5887 46.8103 11.6165C46.3841 11.894 45.9649 12.1994 45.5177 12.4422C45.371 12.5255 45.2731 12.6018 45.1613 12.7267C44.9168 12.9974 44.7491 13.379 44.2949 13.3929C44.239 13.3929 44.1622 13.5109 44.1273 13.5872C43.9316 14.0035 43.715 14.4199 43.6941 14.8987C43.6871 15.0791 43.5962 15.2595 43.5264 15.4885V15.4816ZM41.6608 12.3035C41.556 12.6296 41.7307 12.6018 41.9962 12.588C41.8425 12.4561 41.7516 12.3798 41.6608 12.3035Z" fill="white"/>
<path d="M61.6441 38.8454C61.4345 38.7344 61.2179 38.7066 60.9803 38.8038C60.8056 38.8731 60.7986 38.8454 60.582 38.5956C60.9244 38.1862 60.9593 37.6727 61.0572 37.1731C61.127 36.84 61.2598 36.5139 61.3925 36.1947C61.5323 35.8546 61.8257 35.7228 62.1751 35.7228C62.5733 35.7228 62.8948 35.6465 63.1812 35.2995C63.3839 35.0566 63.7681 34.9526 64.0896 34.7721C64.1454 34.8901 64.1874 34.9803 64.2433 35.0983C64.4878 34.8832 64.6974 34.6056 65.1586 34.7583C65.2145 34.8207 65.3472 34.9595 65.494 35.1191C65.3542 35.2718 65.2215 35.4105 65.0747 35.5701C65.1586 35.8685 65.2354 36.16 65.3263 36.4861C65.8852 36.3126 65.8782 35.6465 66.3604 35.3481C66.3394 35.4799 66.3324 35.5701 66.3184 35.6603C66.2555 36.0004 66.1927 36.3404 66.1158 36.6804C66.0879 36.8053 66.018 36.9302 65.9481 37.0412C65.1795 38.2556 64.2852 39.3728 63.2511 40.3789C63.1952 40.4344 63.1183 40.483 63.0555 40.5316C63.0555 40.261 63.0415 40.0112 63.0555 39.7614C63.0624 39.6434 63.0764 39.5671 62.9297 39.5601C62.9087 39.5601 62.8808 39.4352 62.8878 39.3728C62.9227 39.0883 62.8878 38.8107 62.6083 38.6927C62.3358 38.5748 62.0284 38.547 61.7698 38.7691C61.7349 38.7968 61.693 38.8176 61.6371 38.8454H61.6441Z" fill="white"/>
<path d="M51.8899 8.75757C52.0785 8.8339 52.2742 8.91717 52.4908 9.00738C52.4139 9.31964 52.3231 9.56944 51.9248 9.54169C52.0576 9.7568 52.1624 9.93027 52.2951 10.1523C52.2253 10.2217 52.1554 10.3674 52.0646 10.3883C51.7781 10.4368 51.9667 10.0968 51.7921 10.0135C51.7082 10.2703 51.6314 10.5132 51.5335 10.8185C51.4357 10.6936 51.3239 10.6172 51.31 10.5201C51.2541 10.1731 50.9257 9.93721 50.9606 9.55556C50.9816 9.31964 51.0235 9.19473 51.303 9.13922C51.4986 9.10452 51.6663 8.91023 51.8899 8.75757Z" fill="white"/>
<path d="M55.9077 34.002C56.1103 34.335 56.0754 34.5987 55.9776 34.8416C55.7749 35.3481 55.5444 35.8478 55.3138 36.3404C55.2719 36.4376 55.1671 36.5278 55.0692 36.5764C54.8876 36.6666 54.7548 36.5902 54.7129 36.3959C54.7059 36.3543 54.6989 36.3057 54.7129 36.2641C54.8177 35.8131 54.9295 35.369 55.0413 34.9249C55.0483 34.8832 55.0762 34.8416 55.1112 34.8138C55.2649 34.7028 55.4465 34.6265 55.5793 34.4946C55.6981 34.3767 55.7749 34.2101 55.9077 34.002Z" fill="white"/>
<path d="M65.0537 31.9618C64.9838 32.0242 64.886 32.0728 64.8371 32.1561C64.7043 32.3989 64.5855 32.6488 64.4668 32.8986C63.9707 32.732 63.9637 32.7251 64.0196 32.2602C64.0545 31.9618 64.1384 31.7259 64.3899 31.5038C64.7043 31.2332 64.9349 30.8654 65.2144 30.5254C65.2563 30.6572 65.2982 30.803 65.3471 30.9764C65.0956 31.2471 64.9838 31.5871 65.0397 31.9757L65.0537 31.9618Z" fill="white"/>
<path d="M66.9822 24.5023C66.9263 24.2664 66.8075 24.0235 66.8214 23.7876C66.8354 23.5378 66.9263 23.2602 67.066 23.0451C67.2197 22.8022 67.2546 22.5386 67.3385 22.2818C67.4992 21.7891 67.3944 21.3242 67.3455 20.8454C67.3175 20.547 67.2826 20.2417 67.3105 19.9364C67.4922 20.1376 67.625 20.3458 67.5341 20.6372C67.4992 20.7413 67.5062 20.8732 67.5341 20.9773C67.7298 21.5948 67.625 22.2402 67.6809 22.8647C67.6878 22.9827 67.611 23.1145 67.5481 23.2255C67.3175 23.628 66.9961 23.9958 67.087 24.5231C67.052 24.5231 67.0171 24.5093 66.9822 24.5023Z" fill="white"/>
<path d="M55.7887 9.31953C55.2437 10.1869 54.8454 11.0057 55.6 11.9147C55.4114 12.0605 55.2507 11.9633 55.1179 11.8592C54.9782 11.7482 54.7686 11.6788 54.7756 11.429C54.7895 10.9988 54.7686 10.5616 54.8175 10.1383C54.8664 9.722 55.1249 9.42361 55.5162 9.25708C55.5791 9.22932 55.6699 9.29177 55.7817 9.31953H55.7887Z" fill="white"/>
<path d="M65.6825 32.9264C65.7175 32.7876 65.7454 32.6489 65.7803 32.5101C65.8083 32.406 65.8362 32.3088 65.8782 32.177C66.1576 32.4499 66.3649 32.7946 66.5 33.2109C66.5769 33.1693 66.6467 33.1277 66.7166 33.086C66.7795 33.1901 66.6817 33.4607 66.535 33.5301C66.3184 33.6273 66.2066 33.7383 66.2485 34.002C66.2694 34.1199 66.1716 34.2587 66.1157 34.4183C65.99 34.2934 65.8852 34.2171 65.8153 34.1199C65.7244 33.9881 65.6685 33.8493 65.7734 33.6758C65.941 33.4122 65.9061 33.1485 65.6895 32.9125L65.6755 32.9264H65.6825Z" fill="white"/>
<path d="M47.055 13.5177C47.1598 14.1075 46.9502 14.4545 46.4401 14.5933C46.1886 14.6627 46.0069 14.5031 45.944 14.2255C45.8812 13.9271 45.8392 13.6496 46.1327 13.4761C46.3004 13.5108 46.4541 13.5593 46.6008 13.5663C46.7406 13.5732 46.8873 13.5385 47.048 13.5177H47.055Z" fill="white"/>
<path d="M66.1017 27.8955C66.1087 27.9926 66.1576 28.1106 66.1226 28.1869C65.955 28.5686 66.1087 28.9225 66.1576 29.2972C66.2205 29.7829 66.1506 30.2617 65.9759 30.7266C65.955 30.7752 65.906 30.8099 65.8292 30.9071C65.7733 30.6295 65.6475 30.4699 65.8152 30.1923C65.934 29.9911 65.8432 29.6441 65.8152 29.3666C65.7523 28.8531 65.7943 28.3604 66.0039 27.8885H66.1017V27.8955Z" fill="white"/>
<path d="M41.0111 19.5895C41.1648 19.6797 41.3255 19.7699 41.4932 19.867C41.5421 20.0266 41.605 20.2071 41.6749 20.4222C41.3115 20.3805 40.9482 20.3389 40.5779 20.3042C40.6198 19.9503 40.6408 19.9156 41.0111 19.5964V19.5895Z" fill="white"/>
<path d="M37.1124 15.9117C36.8119 15.9811 36.5814 16.0366 36.2949 16.106C36.253 16.0782 36.1482 16.0088 36.0364 15.9325C36.1272 15.7174 36.232 15.4954 36.4835 15.4815C36.777 15.4676 36.9447 15.6827 37.1194 15.9117H37.1124Z" fill="white"/>
<path d="M37.7413 27.493C37.5526 27.5277 37.4059 27.5208 37.2103 27.3612C36.9168 27.1252 36.5674 26.8616 36.1133 27.0003C36.2949 26.7575 36.5325 26.7505 36.7701 26.8616C37.1124 27.0212 37.4408 27.2155 37.7692 27.3889C37.7552 27.4236 37.7483 27.4583 37.7343 27.493H37.7413Z" fill="white"/>
<path d="M65.1026 32.1908C65.1585 32.2255 65.2074 32.2602 65.2843 32.3157C65.2144 32.4475 65.1166 32.5794 65.0677 32.732C65.0118 32.8916 65.0048 33.0651 64.9699 33.2455C64.8371 33.2455 64.7393 33.2386 64.6135 33.2317C64.7742 32.8639 64.6624 32.4059 65.1096 32.2047V32.1977L65.1026 32.1908Z" fill="white"/>
<path d="M38.8311 27.7914C38.5516 27.9094 38.3 28.0135 38.0066 27.9302C38.0485 27.7984 38.0904 27.6804 38.1393 27.5278C38.3769 27.5069 38.6284 27.4931 38.8311 27.7914Z" fill="white"/>
<path d="M31.5716 26.5702C31.3829 26.2996 31.1943 26.0359 31.32 25.6404C31.4388 25.9318 31.5576 26.2302 31.6764 26.5216C31.6414 26.5355 31.6065 26.5494 31.5646 26.5633L31.5716 26.5702Z" fill="white"/>
<path d="M38.1534 14.4336C38.1743 14.7598 38.1674 14.7667 37.8459 14.6973C37.8669 14.51 37.9577 14.4198 38.1534 14.4336Z" fill="white"/>
<path d="M65.0398 31.9757C65.2005 31.9341 65.3542 31.8855 65.5149 31.8439C65.5289 31.8716 65.5429 31.9063 65.5568 31.9341C65.48 31.9827 65.4101 32.0451 65.3333 32.0659C65.2424 32.0867 65.1167 32.0243 65.1097 32.1908C65.1097 32.1908 65.1097 32.1978 65.1167 32.2047C65.0957 32.1284 65.0747 32.0451 65.0538 31.9688L65.0398 31.9827V31.9757Z" fill="white"/>
<path d="M62.9156 29.0057L62.7829 29.4429C62.7829 29.4429 62.72 29.4221 62.6851 29.4152C62.734 29.2625 62.7829 29.1168 62.8318 28.9641L62.9156 29.0057Z" fill="white"/>
<path d="M65.6965 32.9125H65.2563C65.4427 32.7876 65.5847 32.7922 65.6826 32.9264L65.6965 32.9125Z" fill="white"/>
<path d="M54.9503 12.6018C54.8665 12.6573 54.8176 12.692 54.7687 12.7267C54.7407 12.6712 54.6918 12.6157 54.6848 12.5532C54.6848 12.5185 54.7687 12.4491 54.7826 12.4561C54.8385 12.4838 54.8805 12.5324 54.9503 12.6018Z" fill="white"/>
<path d="M39.9421 19.9781C39.8652 19.9503 39.7954 19.9156 39.7185 19.8879C39.7255 19.8601 39.7325 19.8393 39.7395 19.8115C39.8233 19.8323 39.9002 19.8532 39.984 19.874C39.97 19.9087 39.9561 19.9434 39.9421 19.9781Z" fill="white"/>
<path d="M62.7969 30.1229C62.8039 30.2062 62.8109 30.2964 62.8179 30.3797L62.776 30.4005C62.755 30.3589 62.7201 30.3172 62.7131 30.2756C62.7061 30.227 62.7201 30.1784 62.7271 30.1299C62.748 30.1299 62.769 30.1299 62.7969 30.1299V30.1229Z" fill="white"/>
<path d="M65.6826 32.0174C65.7106 31.9341 65.7455 31.8439 65.7734 31.7606C65.7944 31.7606 65.8224 31.7745 65.8433 31.7814C65.8154 31.8716 65.7944 31.9619 65.7665 32.0521C65.7385 32.0382 65.7106 32.0312 65.6826 32.0174Z" fill="white"/>
<path d="M52.407 9.67343C52.4769 9.62486 52.5467 9.57628 52.6166 9.52771C52.6306 9.54853 52.6445 9.56934 52.6585 9.59016C52.5886 9.6318 52.5188 9.68037 52.4489 9.722C52.4349 9.70119 52.421 9.68731 52.407 9.66649V9.67343Z" fill="white"/>
<path d="M36.6583 16.4043C36.6094 16.3627 36.5814 16.3349 36.5535 16.3072C36.6024 16.2725 36.6513 16.2309 36.7002 16.1962C36.7212 16.2239 36.7771 16.2656 36.7701 16.2864C36.7491 16.328 36.7072 16.3627 36.6653 16.4113L36.6583 16.4043Z" fill="white"/>
<path d="M48.4314 4.84382C48.2917 4.71198 48.1519 4.58013 47.9633 4.39972C47.9283 4.58707 47.9074 4.72586 47.8794 4.8577C47.6768 4.55932 47.7397 4.24012 47.6978 3.9001C47.9912 3.85847 48.2637 3.74051 48.4733 3.97643C48.648 4.17767 48.4314 4.30951 48.3196 4.44135C48.3825 4.5732 48.4384 4.69116 48.4943 4.80912C48.4733 4.823 48.4524 4.83688 48.4314 4.84382ZM48.3545 4.12215C48.1938 3.96949 48.0471 4.01807 47.8724 4.0944C47.9889 4.2193 48.1496 4.22855 48.3545 4.12215Z" fill="white"/>
<path d="M54.0002 23.0452C53.9513 23.1631 53.9233 23.295 53.8464 23.3991C53.8045 23.4546 53.6927 23.4546 53.6089 23.4615C53.5879 23.4615 53.525 23.3852 53.532 23.3713C53.567 23.3019 53.6089 23.2186 53.6718 23.1839C53.7696 23.1215 53.8884 23.0937 53.9932 23.0452H54.0002Z" fill="white"/>
<path d="M52.393 23.3296C52.2742 23.3018 52.1554 23.2671 52.0366 23.2393C52.0366 23.2046 52.0506 23.1699 52.0576 23.1353C52.1833 23.1491 52.3021 23.163 52.4279 23.1838C52.4209 23.2324 52.4069 23.281 52.3999 23.3296H52.393Z" fill="white"/>
<path d="M48.4734 21.8793C48.5572 21.8377 48.6411 21.796 48.7249 21.7544C48.7389 21.7752 48.7529 21.796 48.7668 21.8238L48.5363 21.9834C48.5363 21.9834 48.4943 21.914 48.4734 21.8793Z" fill="white"/>
</g>
<defs>
<clipPath id="clip0_5220_51965">
<rect width="99" height="99" fill="white" transform="translate(0.5 0.5)"/>
</clipPath>
</defs>
</svg>
