<svg width="118" height="58" viewBox="0 0 118 58" fill="none" xmlns="http://www.w3.org/2000/svg">
<path d="M91.1852 41.1206C92.2863 41.5223 93.037 42.0244 93.2873 43.0787C93.4875 43.9825 93.2372 44.7858 92.5365 45.3883C91.4855 46.2921 90.1843 46.5431 88.883 46.5933C87.0312 46.6435 85.1294 46.5933 83.2776 46.5933C82.9272 46.5933 82.7771 46.4929 82.7771 46.0912C82.7771 42.9281 82.7771 39.8152 82.7771 36.6521C82.7771 36.6019 82.8271 36.5517 82.8271 36.401C83.8782 36.3508 84.9292 36.2002 85.9802 36.2002C87.4316 36.2002 88.933 36.3006 90.3845 36.4512C90.935 36.5014 91.4855 36.8027 91.986 37.1039C93.2873 37.9073 93.3373 39.4135 92.1361 40.3675C91.8359 40.6687 91.5356 40.8696 91.1852 41.1206ZM86.4306 44.836C87.2814 44.6854 88.0322 44.6352 88.7829 44.4846C89.2333 44.3842 89.4836 44.0327 89.5336 43.5306C89.5336 43.0285 89.3334 42.6269 88.8329 42.5265C88.0322 42.3758 87.2314 42.3256 86.3806 42.175C86.3806 42.9783 86.3806 43.631 86.3806 44.2837C86.3806 44.3842 86.3806 44.5348 86.4306 44.836ZM86.3806 40.3173C87.1814 40.2169 87.882 40.2169 88.5827 40.016C88.883 39.9658 89.2333 39.5139 89.2333 39.2629C89.2333 39.0119 88.883 38.56 88.6328 38.5098C88.0822 38.3089 87.4816 38.3592 86.8811 38.2587C86.5307 38.2085 86.3806 38.4094 86.4306 38.7106C86.3806 39.2127 86.3806 39.6646 86.3806 40.3173Z" fill="white"/>
<path d="M74.3189 36.2003C75.5701 36.2003 76.8213 36.3007 77.9224 36.853C79.8743 37.7567 80.9253 39.514 80.8753 41.5726C80.7752 43.7315 79.4739 45.539 77.472 46.1917C75.2198 46.9449 72.9676 46.9951 70.7655 46.0913C68.9638 45.3382 67.9628 43.9324 67.7626 42.0244C67.5124 40.0663 68.2631 38.4596 69.9647 37.3048C71.266 36.4513 72.7674 36.0998 74.3189 36.2003ZM77.0716 41.5223C77.0215 41.5223 77.0215 41.5223 76.9715 41.5223C76.9715 41.3717 76.9715 41.1709 76.9715 41.0203C76.8714 39.5642 75.9205 38.5601 74.5191 38.4596C73.1178 38.3592 72.0167 39.1123 71.7164 40.5684C71.5663 41.2713 71.6163 42.0244 71.7665 42.7274C71.9667 43.7817 72.9176 44.4846 73.9185 44.5851C75.2698 44.6855 76.2208 44.2336 76.6712 43.129C76.9214 42.5767 76.9715 42.0244 77.0716 41.5223Z" fill="white"/>
<path d="M56.2019 40.5182C56.2019 42.4261 56.2019 44.2838 56.2019 46.1917C53.249 46.6938 50.3462 47.0452 47.4434 46.0913C45.4915 45.4386 44.2403 44.083 44.1402 41.924C44.0401 39.9157 44.891 38.3592 46.6927 37.355C47.8939 36.6521 49.1951 36.4011 50.5965 36.3007C52.3482 36.15 54.0999 36.3007 55.8516 36.6521C55.6514 37.4052 55.4512 38.1082 55.251 38.7609C54.0498 38.6604 52.8987 38.56 51.7476 38.5098C51.097 38.5098 50.4463 38.6604 49.8457 38.8613C48.7447 39.263 48.044 40.0663 47.994 41.2713C47.9439 42.5265 48.4444 43.4805 49.6455 44.0327C50.4964 44.4344 51.3972 44.5348 52.2981 44.4846C52.6985 44.4846 52.8486 44.2838 52.8486 43.8821V43.8319C52.8486 42.3759 52.9988 42.5265 51.6475 42.5767C51.197 42.5767 50.9969 42.4763 51.097 42.0244C51.097 41.924 51.097 41.8738 51.097 41.7734C51.147 40.5182 51.147 40.5182 52.3982 40.5182C53.5994 40.5182 54.8506 40.5182 56.2019 40.5182Z" fill="white"/>
<path d="M107.001 46.6436C105.7 46.6436 104.548 46.6436 103.397 46.6436C103.247 46.6436 102.997 46.3925 102.897 46.1917C102.647 45.5892 102.446 44.9365 102.246 44.334C101.145 44.334 99.9941 44.334 98.7929 44.334C98.5927 44.9867 98.3925 45.6394 98.1423 46.2419C98.0923 46.3925 97.9421 46.6435 97.792 46.6938C96.6408 46.744 95.4897 46.6938 94.2886 46.6938C94.3386 46.4427 94.3386 46.2921 94.3887 46.1415C95.5898 43.0788 96.7409 39.9658 97.9421 36.9031C98.0922 36.5015 98.2424 36.3508 98.6928 36.401C99.944 36.4513 101.245 36.4512 102.497 36.4512C102.797 36.4512 102.997 36.5015 103.097 36.8027C104.298 39.9156 105.499 42.9783 106.751 46.0913C106.851 46.1917 106.901 46.3423 107.001 46.6436ZM101.646 42.2252C101.245 41.0202 100.945 39.9156 100.595 38.811C100.545 38.811 100.445 38.811 100.394 38.811C100.044 39.9156 99.7438 41.0202 99.3435 42.2252C99.8439 42.2252 100.194 42.2252 100.545 42.2252C100.895 42.2252 101.195 42.2252 101.646 42.2252Z" fill="white"/>
<path d="M84.6797 57.6894C83.9289 57.6894 83.3284 57.6894 82.6277 57.6894C82.6277 57.4886 82.5776 57.338 82.5776 57.1873C82.5776 54.4259 82.5776 51.7146 82.5776 48.9532C82.5776 48.5013 82.6777 48.2502 83.1782 48.3004C83.7287 48.3507 84.2793 48.3004 84.8799 48.2502C85.2302 48.2 85.3804 48.3507 85.5305 48.6519C86.1811 50.1582 86.8818 51.6644 87.5324 53.1204C87.5825 53.2209 87.6325 53.2711 87.8327 53.5221C87.8327 53.2209 87.8828 53.02 87.8828 52.8694C87.8828 51.5138 87.8828 50.1079 87.8828 48.7523C87.8828 48.4009 87.9328 48.2 88.3833 48.2502C88.8837 48.3004 89.3842 48.2502 89.9347 48.2502C89.9347 51.4134 89.9347 54.4761 89.9347 57.6392C89.184 57.6392 88.4833 57.6894 87.7326 57.6392C87.5825 57.6392 87.3823 57.3882 87.2822 57.1873C86.5315 55.5807 85.8308 54.0242 85.1301 52.4175C85.03 52.2167 84.9299 52.0661 84.7297 51.9155C84.6797 53.8736 84.6797 55.7815 84.6797 57.6894Z" fill="white"/>
<path d="M53.2987 53.02C53.3487 54.5262 52.8983 55.9321 51.7472 56.9362C49.9454 58.5429 46.0416 58.3923 45.1408 54.8777C44.7904 53.4216 44.7404 52.0158 45.391 50.61C46.1918 48.8527 47.9435 47.9489 49.8954 48.2502C51.7471 48.5514 53.0484 50.0075 53.1986 51.9656C53.2486 52.3171 53.2486 52.6685 53.2987 53.02ZM50.9464 52.9698C50.7962 52.3673 50.6961 51.7146 50.3958 51.1121C49.8453 49.9573 48.444 49.8569 47.8434 51.0116C47.1427 52.3673 47.1427 53.8233 47.8934 55.1789C48.1937 55.681 48.6442 55.9321 49.2447 55.8819C49.8453 55.8316 50.2958 55.4802 50.4959 54.9279C50.6961 54.3254 50.7962 53.6727 50.9464 52.9698Z" fill="white"/>
<path d="M21.0175 53.1204C20.9675 54.6769 20.6171 56.0827 19.3159 57.1371C17.0637 58.8944 13.7105 57.84 12.9097 55.1288C12.4092 53.5723 12.4592 52.0661 13.1099 50.5598C13.9607 48.8025 15.6623 47.949 17.6142 48.3004C19.416 48.6017 20.7673 50.1581 20.9675 52.1163C20.9675 52.4175 20.9675 52.7188 21.0175 53.1204ZM14.9116 53.02C15.1118 53.7731 15.1619 54.4761 15.4621 55.0786C15.9626 56.1832 17.364 56.2334 18.0647 55.2292C18.8154 54.1748 18.7153 51.8652 17.9145 50.8611C17.2138 50.0075 16.0627 50.0577 15.5622 51.0117C15.2119 51.6142 15.1118 52.3673 14.9116 53.02Z" fill="white"/>
<path d="M112.256 36.401C112.256 39.062 112.256 41.6729 112.256 44.3841C112.706 44.3841 113.157 44.3841 113.557 44.3841C114.658 44.3841 115.709 44.3841 116.81 44.3841C117.211 44.3841 117.361 44.4343 117.361 44.8862C117.361 46.6435 117.361 46.6435 115.609 46.6435C113.507 46.6435 111.355 46.6435 109.253 46.6435C108.752 46.6435 108.602 46.4929 108.602 45.9908C108.602 42.9281 108.602 39.8654 108.552 36.8529C108.552 36.5014 108.652 36.401 109.003 36.401C110.054 36.401 111.105 36.401 112.256 36.401Z" fill="white"/>
<path d="M62.1574 36.401C62.1574 37.1541 62.1574 37.9073 62.1574 38.6102C62.1574 40.3173 62.1574 42.0745 62.1574 43.7816C62.1574 44.2335 62.2575 44.3841 62.758 44.3841C64.2094 44.3339 65.7109 44.3841 67.2123 44.3841C67.2123 45.1373 67.2123 45.8402 67.2123 46.5933C67.1122 46.5933 67.0121 46.6435 66.862 46.6435C64.2595 46.6435 61.707 46.6435 59.1045 46.6435C58.604 46.6435 58.5039 46.4929 58.5039 45.9908C58.5039 42.9783 58.5039 39.9156 58.5039 36.9031C58.5039 36.6018 58.5039 36.401 58.8542 36.401C59.9053 36.401 61.0063 36.401 62.1574 36.401Z" fill="white"/>
<path d="M68.4636 53.3716C69.7648 54.5766 69.5646 56.2335 70.1652 57.7398C69.4145 57.7398 68.7639 57.79 68.1132 57.7398C67.913 57.7398 67.6628 57.4385 67.6128 57.2879C67.4126 56.6352 67.3125 55.9825 67.2124 55.3298C67.0122 54.4762 66.6118 54.2252 65.7109 54.3256C65.7109 55.4302 65.7109 56.5348 65.7109 57.6896C64.9101 57.6896 64.2095 57.6896 63.4087 57.6896C63.4087 57.0368 63.4087 56.4845 63.4087 55.882C63.4087 53.6227 63.4087 51.4135 63.3586 49.1541C63.3586 48.652 63.5088 48.401 64.0093 48.401C65.3105 48.4512 66.5617 48.401 67.863 48.5516C68.914 48.652 69.6147 49.3047 69.8149 50.3591C70.0151 51.4135 69.8149 52.4177 68.864 53.0704C68.7639 53.1206 68.6638 53.221 68.4636 53.3716ZM65.7109 50.2587C65.7109 50.9114 65.7109 51.5139 65.7109 52.1164C65.7109 52.2168 65.9612 52.4177 66.1113 52.4177C66.3115 52.4177 66.5617 52.3675 66.7619 52.3173C67.3125 52.1164 67.5627 51.6645 67.4626 51.1123C67.3625 50.56 67.0122 50.3089 66.4616 50.3089C66.2114 50.2587 66.0112 50.2587 65.7109 50.2587Z" fill="white"/>
<path d="M96.7408 54.2252C96.3905 54.2252 96.0401 54.175 95.6397 54.175C95.6397 53.6227 95.6397 53.0704 95.6397 52.5181C95.6397 52.4177 95.89 52.267 96.0401 52.267C96.941 52.267 97.8919 52.267 98.8428 52.267C98.8428 52.4679 98.8929 52.6185 98.8929 52.7691C98.8929 54.175 98.8929 55.5808 98.9429 56.9364C98.9429 57.2879 98.8929 57.4385 98.4925 57.5389C97.2413 57.79 95.9901 58.041 94.7389 57.79C92.787 57.4385 91.6359 56.3339 91.3356 54.426C91.2355 53.6227 91.2355 52.8193 91.3356 52.016C91.5858 49.7566 93.4376 48.4512 95.4896 48.3508C96.3905 48.3006 97.2913 48.4512 98.1422 48.6018C98.2923 48.6018 98.3924 48.9533 98.5425 49.1541C98.5926 49.2043 98.5425 49.2545 98.5425 49.355C98.3424 50.6604 98.3424 50.6604 97.0411 50.4595C96.5907 50.4093 96.0902 50.4093 95.5897 50.4595C94.6388 50.56 93.888 51.2127 93.7379 52.1164C93.6378 52.7691 93.6378 53.472 93.7879 54.1248C94.0382 55.2293 94.9891 55.882 96.1402 55.882C96.5907 55.882 96.7908 55.6812 96.7408 55.2293C96.7408 54.9281 96.7408 54.5766 96.7408 54.2252Z" fill="white"/>
<path d="M61.7067 48.3507C61.7067 48.6018 61.7568 48.8026 61.7568 49.0034C61.7568 50.6603 61.7568 52.3172 61.7568 53.9741C61.7568 56.7857 60.0051 58.292 57.2024 57.8401C55.6509 57.5891 54.6999 56.5347 54.6499 54.7774C54.5498 52.8193 54.5498 50.8109 54.4998 48.8528C54.4998 48.4511 54.6499 48.3005 55.0503 48.3005C55.5007 48.3507 55.9512 48.3507 56.3515 48.3005C56.7519 48.2503 56.852 48.4009 56.852 48.8026C56.852 50.5097 56.852 52.267 56.852 53.9741C56.852 54.3255 56.9021 54.6268 57.0022 54.9782C57.1023 55.5305 57.4026 55.882 58.0031 55.882C58.6037 55.882 59.1042 55.6811 59.2544 55.0786C59.3544 54.6268 59.4545 54.1749 59.5046 53.723C59.5546 52.1163 59.5546 50.5097 59.5546 48.903C59.5546 48.4511 59.6547 48.2503 60.1552 48.3005C60.6057 48.3507 61.1562 48.3507 61.7067 48.3507Z" fill="white"/>
<path d="M22.1689 48.3507C22.9697 48.3507 23.6704 48.3507 24.4712 48.3507C24.4712 49.6561 24.4712 50.9615 24.4712 52.2168C24.4712 52.9197 24.4712 53.6226 24.5713 54.3255C24.5713 54.6268 24.7214 54.928 24.8215 55.2293C25.0217 55.6811 25.4221 55.9322 25.9726 55.882C26.5232 55.8318 26.9235 55.5305 27.0236 54.9782C27.1237 54.5765 27.1738 54.1247 27.1738 53.6728C27.1738 51.9155 27.1738 50.1582 27.1738 48.3507C27.8745 48.3507 28.5251 48.3507 29.1757 48.3507C29.2758 48.3507 29.426 48.6018 29.426 48.7524C29.426 50.6101 29.476 52.518 29.3759 54.3757C29.1757 57.9405 26.1228 58.4426 23.8706 57.5388C23.0198 57.1874 22.5693 56.4343 22.4192 55.5807C22.269 54.8778 22.1689 54.1749 22.1689 53.472C22.1689 51.7649 22.1689 50.0578 22.1689 48.3507Z" fill="white"/>
<path d="M29.526 37.2044C30.7772 37.1542 31.9283 37.4052 32.7791 38.309C34.1805 39.7148 34.4808 41.4721 33.8302 43.3298C33.2296 45.0871 31.8282 45.8402 30.0265 45.9909C28.3749 46.1415 26.8734 45.79 25.7724 44.4344C24.0707 42.2754 24.7214 38.2086 27.9245 37.4052C28.475 37.2546 28.9755 37.2546 29.526 37.2044ZM31.9784 41.5725C31.9784 40.2671 31.2777 39.1625 30.2767 38.8613C29.0756 38.5098 27.8744 39.0621 27.3739 40.2671C26.7733 41.7734 27.2238 43.4804 28.475 44.0829C30.1766 44.9867 31.9784 43.6813 31.9784 41.5725Z" fill="white"/>
<path d="M38.2341 55.3798C38.8347 55.5304 39.3852 55.681 39.9358 55.7814C40.0859 55.8317 40.2861 55.8317 40.4363 55.8317C40.9367 55.8317 41.5373 55.7814 41.6374 55.1789C41.7876 54.6267 41.237 54.4258 40.8366 54.225C40.3362 53.9739 39.7856 53.7731 39.3352 53.4719C38.134 52.7187 37.6836 51.6141 37.9839 50.3087C38.2842 49.2041 39.3352 48.2502 40.5864 48.2C41.4372 48.1498 42.3381 48.3004 43.1889 48.451C43.3391 48.451 43.5893 48.7523 43.5393 48.9029C43.4892 49.4552 43.3391 50.0075 43.239 50.4594C42.3881 50.4091 41.6875 50.3087 40.9868 50.3087C40.7365 50.3087 40.3362 50.61 40.3362 50.7606C40.3362 51.0116 40.5864 51.3631 40.8366 51.5137C41.2871 51.815 41.7876 51.9656 42.238 52.1664C43.7895 52.9196 44.2399 53.8735 43.9897 55.4802C43.7895 56.635 42.6884 57.6392 41.2871 57.7396C40.3362 57.7898 39.3352 57.5889 38.3843 57.4383C38.2341 57.4383 38.0339 57.0869 38.0339 56.9362C37.9839 56.4844 38.134 55.9321 38.2341 55.3798Z" fill="white"/>
<path d="M15.4622 45.7398C16.6133 42.9784 17.7143 40.3675 18.8655 37.7065C18.9155 37.5559 19.1657 37.355 19.3659 37.355C19.8664 37.3048 20.417 37.3048 20.9174 37.355C21.0676 37.355 21.2678 37.5057 21.3178 37.6563C22.4189 40.2671 23.4699 42.878 24.571 45.4888C24.571 45.539 24.571 45.5892 24.621 45.7398C23.9704 45.7398 23.3198 45.79 22.7192 45.7398C22.569 45.7398 22.3188 45.4386 22.2687 45.2378C22.0685 44.0328 21.3178 43.7315 20.2168 43.9323C20.1167 43.9323 19.9665 43.9323 19.8664 43.9323C18.415 43.9323 18.415 43.9323 17.9145 45.2378C17.7644 45.6394 17.5141 45.79 17.1138 45.79C16.5632 45.7398 16.1128 45.7398 15.4622 45.7398ZM21.1677 42.4261C20.8173 41.4721 20.467 40.6186 20.1167 39.5642C19.7163 40.5684 19.3659 41.4721 18.9655 42.4261C19.7163 42.4261 20.3669 42.4261 21.1677 42.4261Z" fill="white"/>
<path d="M37.5337 42.7775C37.5337 43.8318 37.5337 44.7356 37.5337 45.7398C36.833 45.7398 36.1824 45.7398 35.4817 45.7398C35.4817 45.6393 35.4316 45.4887 35.4316 45.3381C35.4316 42.8779 35.4316 40.4177 35.4316 37.9575C35.4316 37.5056 35.5317 37.355 35.9822 37.355C37.3835 37.4052 38.8349 37.2545 40.2363 37.4052C41.988 37.5558 42.8889 38.56 42.8388 40.1164C42.8388 41.6227 41.7878 42.6268 40.0861 42.7273C39.2854 42.7775 38.4846 42.7775 37.5337 42.7775ZM37.5337 38.9114C37.5337 39.6143 37.5337 40.267 37.5337 40.97C37.5337 41.1206 37.7839 41.3214 37.884 41.3214C38.4846 41.3214 39.0852 41.3214 39.6858 41.221C40.4865 41.0704 40.8369 40.6687 40.7868 40.0662C40.7368 39.4637 40.2363 38.9616 39.4856 38.9616C38.885 38.8612 38.2844 38.9114 37.5337 38.9114Z" fill="white"/>
<path d="M70.7659 53.2711C70.7659 52.1665 70.816 51.1122 71.5166 50.1582C72.968 48.0997 75.1201 47.949 77.2221 48.4511C77.3222 48.5013 77.5224 48.6519 77.5224 48.7524C77.4724 49.2544 77.4223 49.7565 77.3222 50.2084C77.3222 50.3088 77.022 50.359 76.8218 50.359C76.1711 50.359 75.5205 50.2084 74.9199 50.3088C74.0691 50.4092 73.5186 51.0117 73.3184 51.8653C73.2183 52.3172 73.1682 52.8192 73.1682 53.2711C73.2183 55.0284 74.5195 56.0326 76.2712 55.7313C76.4714 55.6811 76.6716 55.6309 76.8218 55.6309C76.9719 55.6811 77.1221 55.8317 77.2722 55.9322V56.0326C77.5224 57.7397 77.6726 57.589 75.8708 57.7899C74.7197 57.9405 73.5686 57.8401 72.5676 57.1372C71.1663 56.2334 70.7159 54.8778 70.7659 53.2711Z" fill="white"/>
<path d="M111.805 53.2208C112.055 52.1665 112.156 51.1121 112.506 50.1079C112.956 48.8527 113.807 48.4511 114.958 48.5515C116.059 48.6519 116.81 49.3046 117.11 50.5096C117.561 52.3171 117.461 54.1246 117.01 55.8819C116.66 57.2877 115.759 57.8902 114.508 57.9404C113.807 57.9404 113.156 57.6894 112.856 57.0367C112.506 56.2836 112.256 55.43 112.055 54.5765C111.955 54.1748 112.055 53.7229 112.055 53.2711C111.955 53.2208 111.905 53.2208 111.805 53.2208ZM113.807 53.2711C113.907 54.0744 113.957 54.8275 114.157 55.5806C114.207 55.8317 114.558 56.0325 114.758 56.2836C114.958 56.0827 115.208 55.8819 115.309 55.5806C115.659 53.974 115.659 52.3673 115.259 50.7606C115.208 50.5598 114.908 50.4092 114.758 50.2083C114.558 50.4092 114.258 50.5598 114.207 50.7606C114.007 51.564 113.957 52.4175 113.807 53.2711Z" fill="white"/>
<path d="M111.205 52.9197C110.954 54.0745 110.804 55.2293 110.454 56.2836C109.954 57.6895 108.702 58.2418 107.401 57.7899C106.75 57.5388 106.4 57.0368 106.15 56.4845C105.249 54.2753 105.299 52.0159 106.3 49.857C106.75 48.9532 107.551 48.6017 108.502 48.6017C109.453 48.6017 110.154 49.0536 110.404 49.9072C110.804 50.8611 110.954 51.8653 111.205 52.9197ZM109.153 53.1707C109.053 52.4176 109.053 51.564 108.903 50.7607C108.852 50.5599 108.552 50.2586 108.352 50.2586C108.152 50.2586 107.852 50.5599 107.801 50.7607C107.501 52.3172 107.451 53.9238 107.801 55.5305C107.852 55.7815 108.202 55.9824 108.402 56.2334C108.602 55.9824 108.903 55.7815 108.953 55.5305C109.003 54.7774 109.053 54.0243 109.153 53.1707Z" fill="white"/>
<path d="M32.7287 50.4594C32.0781 50.4594 31.5776 50.4594 31.0771 50.4594C30.7268 50.4594 30.6267 50.3087 30.5767 49.9573C30.4766 48.3004 30.4766 48.3004 32.1282 48.3004C33.6296 48.3004 35.1811 48.3004 36.6826 48.3004C36.8327 48.3004 36.9829 48.3004 37.183 48.3506C37.183 49.0535 37.183 49.7062 37.183 50.4594C36.6826 50.4594 36.1821 50.5096 35.6816 50.4594C35.081 50.359 34.9809 50.6602 34.9809 51.2125C35.031 53.2208 34.9809 55.179 34.9809 57.1873C34.9809 57.3379 34.9809 57.4885 34.9809 57.6894C34.2802 57.6894 33.5295 57.6894 32.7788 57.6894C32.7287 55.3296 32.7287 52.9698 32.7287 50.4594Z" fill="white"/>
<path d="M78.7734 48.3507C79.4741 48.3507 80.2248 48.3507 80.9756 48.3507C80.9756 51.4636 80.9756 54.5263 80.9756 57.6895C80.2749 57.6895 79.5742 57.6895 78.7734 57.6895C78.7734 54.5766 78.7734 51.5138 78.7734 48.3507Z" fill="white"/>
<path d="M102.247 50.5096C101.796 50.7104 101.446 50.861 101.095 51.0618C100.795 51.2125 100.645 51.1121 100.545 50.8108C100.245 49.9573 100.295 49.8066 101.095 49.3046C101.846 48.8527 102.647 48.6016 103.598 48.6518C103.998 48.6518 104.148 48.7523 104.148 49.2041C104.148 52.0158 104.148 54.8777 104.148 57.7396C103.548 57.7396 102.947 57.7396 102.297 57.7396C102.247 55.3798 102.247 52.9698 102.247 50.5096Z" fill="white"/>
<path d="M12.7097 37.355C13.3603 37.355 13.9609 37.355 14.6616 37.355C14.6616 40.1165 14.6616 42.878 14.6616 45.6896C14.011 45.6896 13.4104 45.6896 12.7097 45.6896C12.7097 42.9784 12.7097 40.2169 12.7097 37.355Z" fill="white"/>
<path d="M2.19945 41.1206H2.2495C2.69993 41.1206 3.20042 40.97 3.55075 41.1708C3.85105 41.3717 3.85105 41.924 4.00119 42.3256C4.55172 43.8319 5.65279 44.8361 7.05414 45.4386C8.40545 45.9908 9.9069 46.3423 11.3083 46.744C11.5085 46.7942 11.8087 46.7942 11.9589 46.8946C12.109 46.995 12.1591 47.2461 12.1591 47.3967C12.1591 47.4971 11.9088 47.6477 11.8087 47.6477C8.80584 47.3967 6.10322 46.5431 4.05124 44.2335C3.65085 43.7817 3.40061 43.2294 3.20042 42.6771C3.00022 42.175 2.74998 41.924 2.19945 41.9742C1.79906 42.0244 1.39867 42.0244 0.998287 41.9742C0.848142 41.924 0.647949 41.6729 0.5979 41.5223C0.5979 41.4219 0.848142 41.1708 0.998287 41.1708C1.39867 41.1206 1.79906 41.1206 2.19945 41.1206Z" fill="white"/>
<path d="M13.6103 34.4931C13.6604 35.6479 13.6604 35.6479 12.5093 35.6981C10.7075 35.7985 8.95584 36.2002 7.30425 37.0035C6.15313 37.5558 5.15217 38.3591 4.40144 39.4135C4.35139 39.5139 4.2513 39.6646 4.1512 39.7148C3.951 39.8654 3.70076 39.9156 3.45052 40.016C3.45052 39.7148 3.30038 39.3633 3.45052 39.1123C4.50154 37.4052 6.10309 36.3006 8.00493 35.7483C9.25613 35.3968 10.5574 35.1458 11.8086 34.8948C12.6094 34.7441 12.6594 34.7943 12.7095 33.9408C12.7095 33.6898 12.8596 33.3383 13.0098 33.2881C13.3601 33.1375 13.6604 33.2881 13.6103 33.7902C13.6103 34.0412 13.6103 34.242 13.6103 34.4931Z" fill="white"/>
<path d="M20.467 36.7024C19.8664 36.6521 19.2658 36.6521 18.6652 36.5015C17.5642 36.2505 16.4631 35.9994 15.3621 35.648C15.1118 35.5978 14.9617 35.3467 14.7114 35.1961C14.9617 35.0957 15.2119 34.8949 15.4622 34.9451C17.0137 35.0957 18.5151 35.3467 19.9165 36.0999C20.1167 36.2003 20.3669 36.3509 20.5671 36.5015C20.517 36.5517 20.467 36.6019 20.467 36.7024Z" fill="white"/>
<path d="M13.1099 31.2296V26.1083L17.364 22.3427C23.5199 16.9202 26.673 13.7571 26.723 10.5939C26.723 8.38476 25.2716 6.77809 22.1686 6.77809C19.6162 6.77809 17.3139 8.0333 15.6123 9.28851L13.3101 3.2133C15.6623 1.50621 19.5161 0.0501709 23.8703 0.0501709C30.9771 0.0501709 35.1812 3.91622 35.1812 9.99143C35.1812 14.9118 31.6778 18.8281 28.0743 21.7904L25.0714 24.1502V24.2506H35.7317V31.2296H13.1099Z" fill="white"/>
<path d="M63.6089 15.8156C63.6089 24.8531 59.8052 31.7317 51.5473 31.7317C42.7888 31.7317 39.5356 23.9494 39.5356 15.9161C39.5356 7.63167 42.9389 0 51.5973 0C60.556 0 63.6089 8.03334 63.6089 15.8156ZM48.0439 15.8658C48.0439 22.5436 49.3952 25.3552 51.6974 25.3552C53.8495 25.3552 55.2008 22.4934 55.2008 15.8658C55.2008 9.38897 53.8995 6.42667 51.6974 6.42667C49.4452 6.42667 47.9938 9.23834 48.0439 15.8658Z" fill="white"/>
<path d="M67.0125 31.2296V26.1083L71.2666 22.3427C77.4726 16.9202 80.6256 13.7571 80.6757 10.5939C80.6757 8.38476 79.2243 6.77809 76.1213 6.77809C73.5688 6.77809 71.2666 8.0333 69.5649 9.28851L67.2126 3.2133C69.5649 1.50621 73.4186 0.0501709 77.7729 0.0501709C84.8797 0.0501709 89.0838 3.91622 89.0838 9.99143C89.0838 14.9118 85.5804 18.8281 81.9769 21.7904L78.974 24.1502V24.2506H89.6343V31.2296H67.0125Z" fill="white"/>
<path d="M95.3396 23.1963C96.6408 23.849 99.6938 25.054 102.597 25.054C105.6 25.054 107.601 23.9494 107.601 21.7904C107.601 19.28 104.999 18.1252 102.196 18.1252H99.0432V12.1002H102.046C104.198 12.1002 106.851 11.4475 106.851 9.28855C106.851 7.73209 105.399 6.67771 102.747 6.67771C100.194 6.67771 97.4416 7.7823 96.2405 8.43501L94.5889 2.30958C96.5407 1.10458 100.445 0 104.699 0C111.455 0 115.459 3.36396 115.459 7.7823C115.459 11.0458 113.657 13.5563 109.904 14.8617V14.9621C113.507 15.6148 116.46 18.3261 116.46 22.2423C116.46 27.8657 111.305 31.6815 103.347 31.6815C99.1433 31.6815 95.6899 30.6773 93.7881 29.5225L95.3396 23.1963Z" fill="white"/>
</svg>
