<svg width="118" height="92" viewBox="0 0 118 92" fill="none" xmlns="http://www.w3.org/2000/svg">
<g clip-path="url(#clip0_5220_51950)">
<path d="M34.8646 29.5907V17.6329C34.0659 17.6329 33.3678 17.6269 32.6756 17.6329C32.3857 17.6329 32.2082 17.5436 32.2082 17.2339C32.1964 15.7153 32.1845 14.1968 32.1905 12.6723C32.1905 12.571 32.3739 12.4043 32.4922 12.3805C32.7762 12.3269 33.0779 12.3328 33.3737 12.3328C37.8701 12.3328 42.3664 12.3328 46.8628 12.3209C47.3302 12.3209 47.5195 12.4222 47.5136 12.9343C47.484 14.2861 47.5018 15.6439 47.5136 16.9957C47.5136 17.4423 47.4248 17.6865 46.8924 17.621C46.3836 17.5614 45.863 17.6329 45.3482 17.5971C44.9755 17.5733 44.8749 17.7103 44.8749 18.0676C44.869 21.462 44.8394 24.8505 44.8276 28.2449C44.8276 29.5729 44.8335 29.5729 46.1529 29.5729C47.4426 29.5729 47.4603 29.5729 47.5077 30.8473C47.5432 31.8656 47.5373 32.8839 47.5254 33.9082C47.5136 34.6407 47.4781 34.6585 46.7741 34.6585C42.112 34.6585 37.45 34.6764 32.788 34.6585C31.9538 34.6585 31.4213 34.992 30.9895 35.6888C29.753 37.6659 28.4987 39.631 26.8126 41.2687C23.4107 44.5619 19.364 46.4377 14.6665 46.67C11.9154 46.801 9.14658 46.6045 6.3896 46.539C6.10562 46.533 5.93405 46.5509 5.87489 46.8665C5.47258 49.0878 5.05844 51.3031 4.65022 53.5243C4.63247 53.6077 4.65022 53.703 4.65022 53.8935C5.26551 53.5124 5.80981 53.1372 6.38369 52.8216C12.649 49.3915 18.9321 49.2783 25.1323 52.9348C28.475 54.9059 30.173 58.0085 30.3919 61.8734C30.6641 66.572 29.1081 70.5738 25.5938 73.73C24.0556 75.1116 22.2156 75.9751 20.2692 76.5706C15.903 77.9105 11.4776 78.1725 7.02856 77.0529C5.1531 76.5825 3.39005 75.8024 2.05298 74.3315C0.366839 72.4735 -0.136044 70.2284 0.0710258 67.7808C0.201184 66.2682 0.496997 64.7973 1.46727 63.5765C2.6801 62.058 4.31299 61.5578 6.15887 61.8674C7.89233 62.1592 9.20575 63.1061 9.70271 64.8867C10.1583 66.5243 9.92753 68.1679 9.46014 69.7639C9.18208 70.7227 8.80344 71.6457 8.44255 72.5807C7.56694 74.8674 8.34197 76.2609 10.7499 76.7254C12.7378 77.1125 14.2937 76.3979 15.4888 74.8198C16.82 73.069 17.4589 71.0264 17.8139 68.8825C18.2991 65.9348 18.6599 62.9632 18.2517 59.9796C18.0624 58.61 17.8376 57.2224 17.3939 55.9242C16.2165 52.4822 13.4595 51.1482 9.98078 52.2082C8.43663 52.6787 7.16463 53.56 6.1352 54.7987C5.42525 55.6503 4.73305 56.5197 4.03493 57.3773C3.94027 57.4904 3.86335 57.6333 3.73911 57.7048C3.56163 57.806 3.33089 57.9311 3.16523 57.8894C3.04099 57.8537 2.90492 57.5738 2.90492 57.4011C2.91084 56.9247 2.95817 56.4364 3.04691 55.9719C3.86335 51.6663 4.70346 47.3608 5.51991 43.0552C5.9873 40.5839 6.40143 38.1006 6.91023 35.6352C7.25929 33.9618 7.24746 34.2059 8.51354 34.861C10.531 35.8972 12.7141 36.3319 14.9149 36.6714C19.5001 37.38 24.0201 37.1061 28.4395 35.6292C28.7354 35.528 29.0371 35.4387 29.327 35.3196C30.1612 34.9861 30.6167 34.3667 30.6522 33.4556C30.6936 32.4194 30.7351 31.3832 30.7587 30.3411C30.7765 29.6265 30.7587 29.6146 31.4923 29.6026C32.5928 29.5907 33.6932 29.6026 34.9001 29.6026L34.8646 29.5907Z" fill="white"/>
<path d="M58.0505 20.4972C58.2161 20.3365 58.3936 20.1876 58.5533 20.0208C60.5057 18.0199 62.9491 17.5078 65.6055 17.7162C66.3332 17.7698 67.0669 17.9246 67.7591 18.1569C70.0605 18.9191 71.2674 20.5866 71.3029 23.0282C71.3325 25.0469 71.3207 27.0717 71.3029 29.0905C71.3029 29.5014 71.368 29.7574 71.8413 29.6622C72.2022 29.5907 72.7997 29.9182 72.7287 29.0905C72.6459 28.1138 72.64 27.1312 72.5986 26.1486C72.4862 23.3378 73.5393 21.0987 75.9472 19.6397C79.8756 17.2517 84.0111 16.8825 88.2649 18.6512C90.5722 19.6159 91.856 21.462 92.2938 23.9155C92.4417 24.7313 92.3767 24.8087 91.5602 24.8981C89.8977 25.0827 88.2294 25.2673 86.5669 25.4459C86.3657 25.4698 86.1646 25.4459 85.9279 25.4459C85.8096 24.9159 85.7031 24.3978 85.5848 23.8857C85.1351 21.8967 83.6975 21.5513 81.9699 22.0634C81.4138 22.2302 81.0293 22.653 80.8281 23.2009C80.0412 25.3149 80.0353 27.4409 80.8281 29.549C81.2363 30.6209 82.4846 31.1271 83.8691 30.8591C84.863 30.6686 85.567 30.1326 85.8037 29.1202C85.9457 28.495 86.2533 28.3223 86.8804 28.3401C88.537 28.3878 90.1936 28.352 91.856 28.352C92.4122 28.352 92.4832 28.4414 92.3767 29.019C91.8619 31.8596 90.1817 33.6342 87.4662 34.4501C84.0761 35.4624 80.7394 35.2659 77.4677 33.9379C76.2016 33.4198 75.1426 32.598 74.2137 31.5976C73.9534 31.3117 73.6931 31.0259 73.3677 30.6745C73.3322 30.871 73.3026 30.9782 73.2967 31.0914C73.2967 32.0561 73.2789 33.0208 73.2967 33.9856C73.3085 34.3667 73.1784 34.5156 72.7997 34.5215C71.4922 34.5215 70.1847 34.5572 68.8772 34.5572C66.6291 34.5572 64.3809 34.5215 62.1327 34.5275C61.6298 34.5275 61.4642 34.3667 61.476 33.8545C61.5056 32.7409 61.4701 31.6333 61.4582 30.5197C61.4543 29.9639 61.7383 29.688 62.3102 29.6919C62.6415 29.6919 62.9728 29.6919 63.3041 29.68C63.3574 29.68 63.4106 29.6562 63.5408 29.6205C63.5408 29.4239 63.5408 29.2036 63.5408 28.9892C63.5408 27.691 63.5408 26.3928 63.5348 25.0946C63.5289 23.6118 63.1148 22.9448 61.9966 22.5934C60.8311 22.2302 59.4467 22.7006 58.7841 23.7249C58.5888 24.0286 58.3818 24.3919 58.3699 24.7373C58.3285 26.3392 58.3522 27.9471 58.3522 29.6562C58.8373 29.6562 59.3698 29.6681 59.8963 29.6562C60.2336 29.6443 60.3519 29.7753 60.3519 30.1088C60.346 31.4427 60.346 32.7767 60.3578 34.1106C60.3578 34.4739 60.2336 34.5811 59.8727 34.5811C56.246 34.5632 52.6134 34.5632 48.9867 34.5811C48.5489 34.5811 48.4069 34.4441 48.4129 34.0094C48.4306 32.7707 48.4247 31.5261 48.4069 30.2815C48.401 29.8527 48.5549 29.6741 48.9867 29.7038C49.4009 29.7336 49.8268 29.7098 50.3948 29.7098C50.3948 27.4052 50.3948 25.1482 50.3771 22.8912C50.3771 22.7661 50.17 22.5875 50.028 22.5339C49.8268 22.4565 49.5961 22.4803 49.3713 22.4624C48.3892 22.3791 48.3714 22.3791 48.3478 21.3667C48.3241 20.3126 48.3478 19.2526 48.33 18.1986C48.3241 17.7698 48.4484 17.5614 48.9276 17.5673C51.726 17.5792 54.5303 17.5733 57.3287 17.5554C57.802 17.5554 57.9321 17.7341 57.9144 18.1807C57.8848 18.937 57.9085 19.6933 57.9085 20.4496L58.0386 20.5151L58.0505 20.4972Z" fill="white"/>
<path d="M32.1607 57.282C32.1312 51.9462 33.9948 47.4739 37.6629 43.8056C42.3781 39.0832 50.4361 39.0891 55.1514 43.7996C57.3167 45.9613 58.6242 48.6649 59.3578 51.6246C60.9966 58.2288 59.6359 64.2316 55.5418 69.5852C53.5066 72.2472 50.7083 73.6466 47.3537 73.9741C44.0288 74.3017 40.9819 73.6407 38.2368 71.7172C36.2075 70.2998 34.9 68.3108 33.9356 66.0539C32.7228 63.2192 32.1548 60.2655 32.1667 57.2879L32.1607 57.282ZM41.4315 57.5261C41.4966 58.8005 41.5794 60.7598 41.6859 62.719C41.8457 65.6132 42.3131 68.4478 43.2892 71.1931C43.7034 72.3663 44.4252 73.1345 45.6853 73.2595C46.9396 73.3846 47.7797 72.7474 48.3713 71.6933C49.1049 70.3713 49.667 68.9659 49.8445 67.4771C50.1995 64.5234 50.5781 61.5577 50.6728 58.5861C50.7615 55.9302 50.5308 53.2563 50.3533 50.6003C50.2349 48.8495 50.0515 47.0928 49.7143 45.3718C49.4481 44.008 48.8446 42.7336 47.7915 41.7511C47.3064 41.2985 46.7384 40.9531 46.0462 41.1436C45.212 41.3699 44.3956 41.7391 44.0051 42.5431C43.4845 43.615 42.9934 44.7286 42.6917 45.8779C41.751 49.4629 41.5794 53.1491 41.4315 57.5261Z" fill="white"/>
<path d="M61.2217 58.199C61.2335 52.0593 63.0794 47.5155 66.8658 43.7341C72.0248 38.5829 81.6801 39.4047 85.6973 45.3062C87.3302 47.7002 88.259 50.3859 88.756 53.2146C89.6316 58.205 88.7382 62.9036 86.1942 67.2686C84.7921 69.6805 83.0231 71.7528 80.414 72.8903C74.4623 75.4748 66.3215 73.8133 63.1326 66.2205C61.9434 63.3859 61.1447 60.4977 61.2217 58.199ZM70.5102 56.2398C70.5102 56.2398 70.5575 56.2457 70.5812 56.2517C70.5812 57.1033 70.5339 57.9549 70.5871 58.8064C70.7764 61.7066 70.9658 64.6067 71.2202 67.5068C71.3621 69.1326 71.8591 70.669 72.8294 71.997C74.1369 73.7895 76.0892 73.7299 77.2488 71.8541C77.7162 71.0918 78.1244 70.2581 78.3788 69.4006C79.284 66.3694 79.568 63.2251 79.7041 60.0808C79.8934 55.686 79.6331 51.303 79.0355 46.9439C78.8107 45.2824 78.3019 43.6924 77.3967 42.2691C76.6395 41.0721 75.3675 40.6553 74.2611 41.3163C73.7582 41.614 73.3086 42.0845 72.9773 42.5728C71.7467 44.401 71.3385 46.527 71.1077 48.6649C70.8297 51.1839 70.6995 53.7148 70.5043 56.2457L70.5102 56.2398Z" fill="white"/>
<path d="M118 56.6745C118 60.0927 117.45 63.4038 115.841 66.4409C113.805 70.2759 110.741 72.8783 106.463 73.8311C101.434 74.9507 96.2341 72.7354 93.4357 68.3644C91.6667 65.5952 90.7615 62.5403 90.4539 59.2828C90.1403 55.9539 90.6077 52.7262 91.998 49.6891C93.1754 47.1284 94.5657 44.669 96.808 42.8646C99.423 40.7624 102.452 40.0955 105.73 40.3932C107.333 40.5421 108.889 40.8815 110.356 41.5902C113.462 43.0968 115.409 45.6218 116.651 48.784C117.651 51.3208 118.012 53.959 118.006 56.6685L118 56.6745ZM108.96 55.8289C108.753 53.6136 108.451 50.1655 108.084 46.7294C107.919 45.1692 107.463 43.6745 106.582 42.3644C105.41 40.6255 103.6 40.5838 102.34 42.2512C101.553 43.2934 101.032 44.4844 100.73 45.7528C99.7129 50.0405 99.5709 54.4175 99.636 58.7826C99.6774 61.5874 100.062 64.3923 100.328 67.1912C100.476 68.7753 100.938 70.2759 101.724 71.6575C102.955 73.8133 105.168 73.8847 106.44 71.7528C106.984 70.8476 107.428 69.8293 107.664 68.805C108.552 64.9521 108.883 61.0217 108.96 55.8229V55.8289Z" fill="white"/>
<path d="M59.3225 5.1986C59.1096 6.0085 58.9853 6.91963 58.6422 7.73548C58.0565 9.11111 56.7016 9.78404 55.1042 9.65898C53.7198 9.55179 52.5425 8.58111 52.0988 7.09233C51.6787 5.69288 51.6846 4.28152 52.1875 2.89398C52.7022 1.47071 53.9328 0.55362 55.3409 0.51789C56.962 0.482159 58.234 1.26823 58.7842 2.77488C59.0504 3.50735 59.1332 4.31129 59.3285 5.1986H59.3225ZM57.6068 5.14501C57.6068 5.14501 57.5595 5.1331 57.5299 5.12119C57.5003 4.75197 57.4885 4.38275 57.4353 4.01354C57.4057 3.77533 57.3406 3.54308 57.2578 3.31679C56.9324 2.43543 56.3112 1.97094 55.4888 1.97689C54.7079 1.97689 54.0571 2.44734 53.7613 3.29892C53.3294 4.5495 53.3235 5.80603 53.8263 7.04469C54.1222 7.77717 54.6664 8.19998 55.4829 8.19998C56.2934 8.19998 56.8791 7.80694 57.1513 7.06851C57.3761 6.45513 57.4589 5.78816 57.6009 5.14501H57.6068Z" fill="white"/>
<path d="M64.2626 91.3452C62.9669 91.3452 61.7541 91.0534 60.6418 90.3448C60.1626 90.041 60.3637 89.7195 60.5235 89.4038C60.7128 89.0346 60.9672 89.2311 61.2157 89.3681C62.606 90.1363 64.0673 90.44 65.6292 89.9874C66.4397 89.7492 66.8657 89.255 66.8894 88.5642C66.913 87.8853 66.5699 87.3791 65.7653 87.0992C64.9666 86.8253 64.1383 86.6466 63.3278 86.4084C62.9255 86.2893 62.5173 86.1643 62.1268 86.0035C61.1328 85.5926 60.5531 84.8482 60.5176 83.7584C60.4821 82.6686 60.9435 81.8051 61.896 81.2751C63.2982 80.495 64.7891 80.501 66.2918 80.9059C66.6941 81.0131 67.0846 81.2037 67.4633 81.3764C67.9839 81.6146 67.6467 81.9481 67.5402 82.2518C67.41 82.6269 67.197 82.5257 66.9367 82.3947C65.8067 81.8409 64.6116 81.6979 63.3869 81.9719C63.0261 82.0552 62.6474 82.2339 62.3634 82.4781C61.5943 83.1331 61.689 84.3003 62.5882 84.7529C63.2864 85.0983 64.0732 85.271 64.8246 85.5092C65.4517 85.7117 66.1025 85.8606 66.7119 86.1107C67.6644 86.4978 68.2146 87.2124 68.2383 88.2843C68.2619 89.38 67.8537 90.2912 66.8539 90.7378C66.0493 91.1011 65.1559 91.2559 64.298 91.506C64.2862 91.4524 64.2685 91.3988 64.2566 91.3512L64.2626 91.3452Z" fill="white"/>
<path d="M62.535 8.10473H66.6586C66.6586 8.50968 66.6823 8.90867 66.6409 9.30171C66.6291 9.39699 66.4161 9.53991 66.2977 9.53991C64.3276 9.55778 62.3575 9.55778 60.3874 9.53991C60.2809 9.53991 60.0975 9.3553 60.0916 9.24811C60.062 8.78361 60.1271 8.3608 60.5235 7.99754C61.6416 6.97922 62.748 5.94303 63.807 4.8592C64.162 4.49594 64.4341 3.98975 64.5879 3.49548C64.8068 2.78087 64.4223 2.21513 63.6828 2.05434C62.7776 1.85782 61.9256 1.97097 61.1979 2.60817C61.1269 2.66772 61.0559 2.72727 60.979 2.77491C60.9494 2.79278 60.9139 2.80469 60.837 2.82851C60.5116 2.57244 60.1685 2.30446 59.7839 2.00075C60.5176 1.00624 61.5233 0.648938 62.6178 0.53579C63.1385 0.482194 63.6887 0.53579 64.2034 0.637027C66.0611 1.01815 66.913 2.87615 65.9369 4.52571C65.5464 5.18077 64.9666 5.72864 64.4341 6.28247C63.8662 6.87203 63.245 7.4199 62.5291 8.09878L62.535 8.10473Z" fill="white"/>
<path d="M44.1473 1.97681C45.3897 0.476128 47.9278 0.0533148 49.4897 1.024C50.5191 1.66715 50.9214 3.04873 50.3534 4.26358C50.1168 4.76976 49.7322 5.21639 49.3654 5.65112C48.6436 6.50865 47.8864 7.33641 47.1882 8.12844C47.4604 8.12844 47.9455 8.12844 48.4307 8.12844C49.111 8.12844 49.7914 8.16417 50.4718 8.1344C50.8563 8.11653 50.9628 8.27732 50.951 8.61081C50.9451 8.77755 50.951 8.94429 50.951 9.11104C50.9628 9.43857 50.8267 9.55767 50.4895 9.55767C48.7028 9.5398 46.9161 9.54576 45.1294 9.53385C44.449 9.53385 44.1887 9.06339 44.5259 8.45002C44.6147 8.28923 44.7507 8.15822 44.8809 8.02721C45.8926 7.02675 46.922 6.04415 47.91 5.01988C48.2709 4.6447 48.6141 4.19807 48.8093 3.71571C49.1347 2.91177 48.7205 2.25075 47.8745 2.04828C47.0581 1.85176 46.2712 1.95299 45.6204 2.46513C45.2181 2.78075 44.9696 2.76289 44.6561 2.42345C44.5082 2.26266 44.3307 2.13165 44.1414 1.9649L44.1473 1.97681Z" fill="white"/>
<path d="M67.1792 1.98876C68.392 0.458295 71.0603 0.029527 72.5985 1.05976C73.5569 1.70291 73.9888 2.98326 73.4564 4.10878C73.1191 4.82339 72.5571 5.44868 72.0187 6.03823C71.4152 6.7052 70.723 7.29476 70.0663 7.926C70.0427 7.94387 70.0486 7.99151 70.0072 8.11061H73.8528C73.9237 8.23567 73.9533 8.26544 73.9592 8.29522C74.1426 9.48028 74.0835 9.55174 72.9357 9.55174C71.3679 9.55174 69.806 9.55174 68.2382 9.53388C67.9956 9.53388 67.5578 9.46837 67.5519 9.40287C67.5223 9.03365 67.5697 8.64657 67.6525 8.28331C67.6821 8.14634 67.8655 8.03319 67.9838 7.92005C69.0902 6.86004 70.1965 5.80003 71.2969 4.73406C71.7347 4.31125 72.0128 3.81102 71.9773 3.16191C71.9477 2.57831 71.6756 2.22101 71.1372 2.07213C70.2971 1.83988 69.451 1.9173 68.7707 2.4473C68.2855 2.82843 67.9779 2.75101 67.6111 2.37584C67.4868 2.24483 67.3389 2.13764 67.1792 1.98876Z" fill="white"/>
<path d="M94.8023 34.9503C93.2464 34.9503 92.0986 33.7772 92.1045 32.1991C92.1045 30.5495 93.2345 29.4061 94.8674 29.3883C96.3997 29.3704 97.6303 30.615 97.6303 32.1693C97.6303 33.7533 96.4116 34.9503 94.8083 34.9503H94.8023Z" fill="white"/>
<path d="M81.2067 81.9539C80.124 81.9539 79.0768 81.9659 78.0297 81.948C77.6274 81.942 77.5445 82.079 77.5504 82.4661C77.5741 85.2233 77.5682 87.9805 77.5859 90.7437C77.5859 91.2141 77.3611 91.3213 76.9706 91.2856C76.5861 91.2499 76.1779 91.3749 76.1897 90.6901C76.237 87.915 76.2252 85.1399 76.2429 82.3589C76.2429 82.0314 76.101 81.948 75.8051 81.9539C74.8822 81.9659 73.9652 81.942 73.0422 81.9659C72.6636 81.9718 72.4979 81.8587 72.5275 81.4656C72.5571 81.1143 72.5039 80.7629 73.06 80.7689C75.4679 80.7927 77.8818 80.7808 80.2897 80.7867C81.3369 80.7867 81.3487 80.8225 81.1949 81.9599L81.2067 81.9539Z" fill="white"/>
<path d="M39.7278 80.8701C40.5837 80.7589 41.0117 81.1142 41.0117 81.936C41.0117 84.4729 41.0235 87.0098 40.9998 89.5467C40.9998 89.9993 41.1477 90.1184 41.5678 90.1124C43.0587 90.0886 44.5496 90.0945 46.0405 90.0886C46.8451 90.0886 46.8629 90.1065 46.7919 90.9342C46.78 91.0414 46.7505 91.1426 46.7268 91.2677H39.7219V80.8701H39.7278Z" fill="white"/>
<path d="M53.8025 91.2618H52.5542V80.8463H53.8025V91.2618Z" fill="white"/>
</g>
<defs>
<clipPath id="clip0_5220_51950">
<rect width="118" height="91" fill="white" transform="translate(0 0.5)"/>
</clipPath>
</defs>
</svg>
