<svg width="40" height="40" viewBox="0 0 40 40" fill="none" xmlns="http://www.w3.org/2000/svg">
<mask id="mask0_1567_7991" style="mask-type:alpha" maskUnits="userSpaceOnUse" x="0" y="0" width="40" height="40">
<rect width="40" height="40" fill="#D9D9D9"/>
</mask>
<g mask="url(#mask0_1567_7991)">
<path d="M11.6667 30C9.83333 30 8.26389 29.3472 6.95833 28.0417C5.65278 26.7361 5 25.1667 5 23.3333C5 21.5 5.65278 19.9306 6.95833 18.625C8.26389 17.3194 9.83333 16.6667 11.6667 16.6667C13.5 16.6667 15.0694 17.3194 16.375 18.625C17.6806 19.9306 18.3333 21.5 18.3333 23.3333C18.3333 25.1667 17.6806 26.7361 16.375 28.0417C15.0694 29.3472 13.5 30 11.6667 30ZM11.6667 26.6667C12.5833 26.6667 13.3678 26.34 14.02 25.6867C14.6733 25.0344 15 24.25 15 23.3333C15 22.4167 14.6733 21.6317 14.02 20.9783C13.3678 20.3261 12.5833 20 11.6667 20C10.75 20 9.96556 20.3261 9.31333 20.9783C8.66 21.6317 8.33333 22.4167 8.33333 23.3333C8.33333 24.25 8.66 25.0344 9.31333 25.6867C9.96556 26.34 10.75 26.6667 11.6667 26.6667ZM27.5 23.3333C24.9444 23.3333 22.7778 22.4444 21 20.6667C19.2222 18.8889 18.3333 16.7222 18.3333 14.1667C18.3333 11.6111 19.2222 9.44444 21 7.66667C22.7778 5.88889 24.9444 5 27.5 5C30.0556 5 32.2222 5.88889 34 7.66667C35.7778 9.44444 36.6667 11.6111 36.6667 14.1667C36.6667 16.7222 35.7778 18.8889 34 20.6667C32.2222 22.4444 30.0556 23.3333 27.5 23.3333ZM24.1667 35C22.7778 35 21.5972 34.5139 20.625 33.5417C19.6528 32.5694 19.1667 31.3889 19.1667 30C19.1667 28.6111 19.6528 27.4306 20.625 26.4583C21.5972 25.4861 22.7778 25 24.1667 25C25.5556 25 26.7361 25.4861 27.7083 26.4583C28.6806 27.4306 29.1667 28.6111 29.1667 30C29.1667 31.3889 28.6806 32.5694 27.7083 33.5417C26.7361 34.5139 25.5556 35 24.1667 35ZM27.5 20C29.1389 20 30.5211 19.4378 31.6467 18.3133C32.7711 17.1878 33.3333 15.8056 33.3333 14.1667C33.3333 12.5278 32.7711 11.1456 31.6467 10.02C30.5211 8.89556 29.1389 8.33333 27.5 8.33333C25.8611 8.33333 24.4789 8.89556 23.3533 10.02C22.2289 11.1456 21.6667 12.5278 21.6667 14.1667C21.6667 15.8056 22.2289 17.1878 23.3533 18.3133C24.4789 19.4378 25.8611 20 27.5 20ZM24.1667 31.6667C24.6389 31.6667 25.035 31.5067 25.355 31.1867C25.6739 30.8678 25.8333 30.4722 25.8333 30C25.8333 29.5278 25.6739 29.1322 25.355 28.8133C25.035 28.4933 24.6389 28.3333 24.1667 28.3333C23.6944 28.3333 23.2989 28.4933 22.98 28.8133C22.66 29.1322 22.5 29.5278 22.5 30C22.5 30.4722 22.66 30.8678 22.98 31.1867C23.2989 31.5067 23.6944 31.6667 24.1667 31.6667Z" fill="#1A73E8"/>
</g>
</svg>
