<svg width="40" height="40" viewBox="0 0 40 40" fill="none" xmlns="http://www.w3.org/2000/svg">
<mask id="mask0_1567_7619" style="mask-type:alpha" maskUnits="userSpaceOnUse" x="0" y="0" width="40" height="40">
<rect width="40" height="40" fill="#D9D9D9"/>
</mask>
<g mask="url(#mask0_1567_7619)">
<path d="M27.8333 28.8335C27.5278 29.139 27.1461 29.2918 26.6883 29.2918C26.2294 29.2918 25.8333 29.1251 25.5 28.7918C25.1667 28.4585 25 28.0624 25 27.6035C25 27.1457 25.1667 26.7501 25.5 26.4168L31.9583 19.9585L25.4583 13.4585C25.1528 13.1529 25.0067 12.7707 25.02 12.3118C25.0344 11.854 25.1944 11.4724 25.5 11.1668C25.8056 10.8612 26.1944 10.7085 26.6667 10.7085C27.1389 10.7085 27.5278 10.8612 27.8333 11.1668L35.5 18.8335C35.8333 19.1668 36 19.5557 36 20.0001C36 20.4446 35.8333 20.8335 35.5 21.1668L27.8333 28.8335ZM12.1667 28.8335L4.5 21.1668C4.16667 20.8335 4 20.4446 4 20.0001C4 19.5557 4.16667 19.1668 4.5 18.8335L12.1667 11.1668C12.4722 10.8612 12.8611 10.7012 13.3333 10.6868C13.8056 10.6735 14.2083 10.8335 14.5417 11.1668C14.875 11.5001 15.0417 11.8957 15.0417 12.3535C15.0417 12.8124 14.875 13.2085 14.5417 13.5418L8.04167 20.0418L14.5417 26.5418C14.8472 26.8474 14.9933 27.229 14.98 27.6868C14.9656 28.1457 14.8056 28.5279 14.5 28.8335C14.1944 29.139 13.8056 29.2918 13.3333 29.2918C12.8611 29.2918 12.4722 29.139 12.1667 28.8335Z" fill="#F66135"/>
</g>
</svg>
