<svg width="40" height="40" viewBox="0 0 40 40" fill="none" xmlns="http://www.w3.org/2000/svg">
<mask id="mask0_1567_6929" style="mask-type:alpha" maskUnits="userSpaceOnUse" x="0" y="0" width="40" height="40">
<rect width="40" height="40" fill="#D9D9D9"/>
</mask>
<g mask="url(#mask0_1567_6929)">
<path d="M11.1667 29.3332C10.9444 29.3332 10.7361 29.2915 10.5417 29.2082C10.3472 29.1248 10.1667 28.9998 10 28.8332L2.95833 21.7915C2.65278 21.4859 2.5 21.0898 2.5 20.6032C2.5 20.1176 2.65278 19.7221 2.95833 19.4165C3.26389 19.1109 3.65278 18.9582 4.125 18.9582C4.59722 18.9582 4.98611 19.1109 5.29167 19.4165L13.5417 27.6665L12.3333 28.8332C12.1667 28.9998 11.9861 29.1248 11.7917 29.2082C11.5972 29.2915 11.3889 29.3332 11.1667 29.3332ZM20.5833 29.2915C20.3611 29.2915 20.1528 29.2565 19.9583 29.1865C19.7639 29.1176 19.5833 28.9998 19.4167 28.8332L12.3333 21.7498C12.0278 21.4443 11.875 21.0482 11.875 20.5615C11.875 20.0759 12.0278 19.6804 12.3333 19.3748C12.6389 19.0693 13.0278 18.9165 13.5 18.9165C13.9722 18.9165 14.3611 19.0693 14.6667 19.3748L20.5833 25.2915L34.75 11.1248C35.0556 10.8193 35.4444 10.6665 35.9167 10.6665C36.3889 10.6665 36.7778 10.8193 37.0833 11.1248C37.3889 11.4304 37.5417 11.8259 37.5417 12.3115C37.5417 12.7982 37.3889 13.1943 37.0833 13.4998L21.75 28.8332C21.5833 28.9998 21.4028 29.1176 21.2083 29.1865C21.0139 29.2565 20.8056 29.2915 20.5833 29.2915ZM20.5833 20.5832L18.2083 18.2498L25.2917 11.1665C25.5972 10.8609 25.9928 10.7082 26.4783 10.7082C26.965 10.7082 27.3611 10.8609 27.6667 11.1665C27.9722 11.4721 28.125 11.8609 28.125 12.3332C28.125 12.8054 27.9722 13.1943 27.6667 13.4998L20.5833 20.5832Z" fill="#FFAC00"/>
</g>
</svg>
