<svg width="40" height="40" viewBox="0 0 40 40" fill="none" xmlns="http://www.w3.org/2000/svg">
<mask id="mask0_1567_6935" style="mask-type:alpha" maskUnits="userSpaceOnUse" x="0" y="0" width="40" height="40">
<rect width="40" height="40" fill="#D9D9D9"/>
</mask>
<g mask="url(#mask0_1567_6935)">
<path d="M11.6667 15V11.6667H15V15H11.6667ZM11.6667 21.6667V18.3333H15V21.6667H11.6667ZM11.6667 8.33333C11.6667 7.41667 11.9933 6.63167 12.6467 5.97833C13.2989 5.32611 14.0833 5 15 5V8.33333H11.6667ZM18.3333 28.3333V25H21.6667V28.3333H18.3333ZM31.6667 8.33333V5C32.5833 5 33.3683 5.32611 34.0217 5.97833C34.6739 6.63167 35 7.41667 35 8.33333H31.6667ZM18.3333 8.33333V5H21.6667V8.33333H18.3333ZM15 28.3333C14.0833 28.3333 13.2989 28.0072 12.6467 27.355C11.9933 26.7017 11.6667 25.9167 11.6667 25H15V28.3333ZM31.6667 21.6667V18.3333H35V21.6667H31.6667ZM31.6667 15V11.6667H35V15H31.6667ZM31.6667 28.3333V25H35C35 25.9167 34.6739 26.7017 34.0217 27.355C33.3683 28.0072 32.5833 28.3333 31.6667 28.3333ZM8.33333 35C7.41667 35 6.63167 34.6739 5.97833 34.0217C5.32611 33.3683 5 32.5833 5 31.6667V13.3333C5 12.8611 5.16 12.465 5.48 12.145C5.79889 11.8261 6.19444 11.6667 6.66667 11.6667C7.13889 11.6667 7.535 11.8261 7.855 12.145C8.17389 12.465 8.33333 12.8611 8.33333 13.3333V31.6667H26.6667C27.1389 31.6667 27.5344 31.8267 27.8533 32.1467C28.1733 32.4656 28.3333 32.8611 28.3333 33.3333C28.3333 33.8056 28.1733 34.2011 27.8533 34.52C27.5344 34.84 27.1389 35 26.6667 35H8.33333ZM25 8.33333V5H28.3333V8.33333H25ZM25 28.3333V25H28.3333V28.3333H25Z" fill="#F66135"/>
</g>
</svg>
