<svg width="53" height="54" viewBox="0 0 53 54" fill="none" xmlns="http://www.w3.org/2000/svg">
<path fill-rule="evenodd" clip-rule="evenodd" d="M35.3626 20.3359H31.869L26.9733 33.7657H30.4669L35.3626 20.3359ZM22.0777 48.9922C21.8608 48.9922 21.6439 48.9845 21.427 48.9845L25.9121 36.6623H32.0782C33.1626 36.6623 34.3556 35.8336 34.7197 34.8112L39.5843 21.4512C40.3822 19.2594 39.1273 17.478 36.7957 17.478H28.2437L21.0629 37.2122L16.9884 48.3959C7.32871 46.0956 0.140137 37.4135 0.140137 27.0508C0.140137 16.9824 6.91816 8.50166 16.1595 5.92259L11.9533 17.4703L4.96609 36.6545H9.61387L15.5553 20.3514H19.0489L13.1075 36.6545H17.7552L23.3016 21.4435C24.0995 19.2516 22.8446 17.4703 20.5207 17.4703H16.6088L21.0939 5.13261C21.427 5.11712 21.7523 5.10938 22.0777 5.10938C34.2007 5.10938 44.023 14.93 44.023 27.0508C44.023 39.1639 34.2007 48.9922 22.0777 48.9922Z" fill="#52606D"/>
</svg>
