<svg id="instructure-logo" xmlns="http://www.w3.org/2000/svg" viewBox="0 0 706.15 100.06">
  <defs>
    <style>
    #instructure-logo .inst-cls-0 {
      fill: #2a7ba0;
    }

    #instructure-logo .inst-cls-1 {
      fill: #2a7ba0;
      transition: .3s;
    }

    #instructure-logo.light .inst-cls-1 {
      fill: #fff;
    }

    #instructure-logo .inst-cls-2 {
      fill: #fdcc10;
    }

    #instructure-logo .inst-cls-3 {
      fill: #f78f20;
    }

    #instructure-logo .inst-cls-4 {
      fill: #eb2227;
    }

    </style>
  </defs>
  <title>Instructure Logo</title>
  <g data-name="Layer 2">
    <g data-name="Layer 1">
      <polygon class="inst-cls-0" points="0 75.05 44.43 50.03 88.86 75.05 44.43 100.06 0 75.05" />
      <polygon class="inst-cls-2" points="22.21 12.51 0 25.01 22.22 37.52 44.43 25.01 22.21 12.51" />
      <polygon class="inst-cls-3" points="44.42 0 22.22 12.5 44.43 25.01 66.64 12.51 44.42 0" />
      <polygon class="inst-cls-4" points="66.64 12.51 44.43 25.01 66.64 37.52 88.85 25.01 66.64 12.51" />
      <path class="inst-cls-1" d="M133.59,86.82V12.41h12.33V86.82Z" />
      <path class="inst-cls-1" d="M167.61,86.82V12.41h12.33l15.63,46v-46h11.27V86.82h-11.7L178.88,38.45V86.82Z" />
      <path class="inst-cls-1" d="M315.7,23.25H303.26V86.82H290.93V23.25H278.49V12.41H315.7Z" />
      <path class="inst-cls-1" d="M360.67,86.82,351.2,57.16H345V86.82H332.71V12.41H352c11.27,0,18.71,4.46,18.71,15.73V41.43c0,7.12-3,11.59-8.08,13.82l10.63,31.57ZM345,46.53h6.48c4,0,6.81-1.49,6.81-6.8V30.05c0-5.31-2.77-6.8-6.81-6.8H345Z" />
      <path class="inst-cls-1" d="M428.17,71.94c0,11.48-7.23,15.73-18.5,15.73h-.42c-11.27,0-18.5-4.14-18.5-15.73V12.41h12.33V70c0,5.31,2.34,6.8,6.38,6.8s6.38-1.49,6.38-6.8V12.41h12.33Z" />
      <path class="inst-cls-1" d="M486.43,71.94c0,11.48-7.44,15.73-18.71,15.73h-.21c-11.27,0-18.71-4.14-18.71-15.73V27.29c0-11.06,7.44-15.73,18.71-15.73h.21c11.27,0,18.71,4.67,18.71,15.73V35.9H474.1V29.2c0-5.21-2.55-6.8-6.49-6.8s-6.48,1.59-6.48,6.8V70c0,5.2,2.55,6.8,6.48,6.8s6.49-1.6,6.49-6.8V61.52h12.33Z" />
      <path class="inst-cls-1" d="M539.37,23.25H526.93V86.82H514.6V23.25H502.16V12.41h37.21Z" />
      <path class="inst-cls-1" d="M593.59,71.94c0,11.48-7.23,15.73-18.5,15.73h-.43c-11.26,0-18.49-4.14-18.49-15.73V12.41H568.5V70c0,5.31,2.34,6.8,6.38,6.8s6.38-1.49,6.38-6.8V12.41h12.33Z" />
      <path class="inst-cls-1" d="M642.6,86.82l-9.47-29.66H627V86.82H614.64V12.41h19.24c11.27,0,18.71,4.46,18.71,15.73V41.43c0,7.12-3,11.59-8.08,13.82l10.63,31.57ZM627,46.53h6.48c4,0,6.81-1.49,6.81-6.8V30.05c0-5.31-2.77-6.8-6.81-6.8H627Z" />
      <path class="inst-cls-1" d="M251.27,34V28.57c0-4.68-2.65-6.38-6.27-6.38s-6.27,1.7-6.27,6.38v5.1c0,3.83,1.27,5.53,4.78,7.55l8.72,4.89c7.12,4,11.38,7.33,11.38,15.31V72.15c0,11.48-7.13,15.52-18.4,15.52H245c-11.27,0-18.39-3.93-18.39-15.52v-8h12.12v6.27c0,4.57,2.66,6.59,6.38,6.59s6.38-2,6.38-6.59V64.6c0-3.82-1.17-5.74-4.89-7.76L238,52c-7.23-4.14-11.38-7.54-11.38-15.31V26.86c0-11,8.08-15.3,18.29-15.3h.21c10.2,0,18.28,4.25,18.28,15.3V34Z" />
      <polygon class="inst-cls-1" points="673.21 86.78 673.21 12.41 705.83 12.41 705.83 23.24 685.54 23.24 685.54 43.64 702.53 43.64 702.53 54.48 685.54 54.48 685.54 75.94 706.15 75.94 706.15 86.78 673.21 86.78" />
    </g>
  </g>
</svg>
