<svg width="60" height="55" viewBox="0 0 60 55" fill="none" xmlns="http://www.w3.org/2000/svg">
<path d="M5.51964 54.421C3.1499 54.1169 1.90658 51.2596 2.32131 47.0709C2.76977 42.5415 4.32882 37.9248 6.65582 34.2352C7.17979 33.4045 7.17979 33.4045 6.06273 32.1982C3.93226 29.8975 2.77226 28.2966 1.79708 26.3109C0.542616 23.7566 0.00566676 21.3027 3.67305e-05 18.098C-0.00514475 15.1568 0.537521 12.8535 1.85478 10.2255C4.03576 5.87424 8.36604 2.01043 12.3432 0.866891C13.2703 0.600319 14.299 0.556357 14.5165 0.774009C14.7263 0.98391 14.6742 1.73205 14.3235 3.54447C13.6191 7.18482 13.4605 8.82399 13.467 12.3957C13.4728 15.6476 13.5263 16.4063 14.146 22.0292C14.3559 23.934 14.5276 25.6287 14.5276 25.7953C14.5276 25.9619 14.5472 26.0982 14.5711 26.0982C14.5951 26.0982 14.9314 25.9294 15.3184 25.7232C17.5696 24.524 20.1226 23.8902 22.7156 23.8869C25.8158 23.883 28.3189 24.7059 29.9219 26.2562C30.3815 26.7007 30.413 26.7172 30.413 26.5134C30.413 25.7298 29.7423 24.0603 28.9683 22.9173C28.7295 22.5646 28.5341 22.2004 28.5341 22.108C28.5341 21.8425 28.7606 21.6782 29.8569 21.1481C31.1154 20.5395 31.4846 20.4979 31.8081 20.9278C32.5903 21.9675 33.0648 24.1109 33.2026 27.2273C33.251 28.3213 33.2758 28.4791 33.3942 28.4447C33.4691 28.4229 33.8186 28.3479 34.1708 28.2779C36.0686 27.9011 36.4714 27.8543 37.8646 27.8487C38.6513 27.8455 39.2951 27.8411 39.2951 27.8389C39.2951 27.8367 39.0138 27.2789 38.6699 26.5993C37.2414 23.7761 36.6599 20.9998 36.758 17.4708C36.7967 16.079 36.8477 15.5579 37.0296 14.6937C37.9781 10.1891 40.6656 6.09128 44.5765 3.18642C46.6098 1.6761 48.9709 0.664092 50.516 0.640656C51.5567 0.62487 51.5977 0.829849 51.0782 3.4514C50.1016 8.38021 49.9271 12.3227 50.4433 17.8001C50.6203 19.6774 51.1791 24.8452 51.2198 24.9814C51.2434 25.0601 51.4019 24.9617 51.7018 24.682C53.4557 23.0466 56.6911 20.6476 57.9562 20.0445C58.6455 19.716 59.1953 19.7086 59.4446 20.0244C59.6748 20.316 59.6705 20.7365 59.4344 21.0357C59.3314 21.1662 58.8128 21.554 58.2818 21.8975C56.1483 23.2779 54.2072 24.8078 52.4663 26.4812C51.4038 27.5024 51.4038 27.5025 51.4966 28.6697C51.708 31.331 51.7969 34.8892 51.6931 36.5421C51.3522 41.977 49.7118 47.5315 47.3986 51.0837C46.5691 52.3576 45.3125 53.6051 44.4195 54.0415C42.9549 54.757 41.3592 54.5127 40.3875 53.4241C38.2611 51.042 38.6232 44.7745 41.2336 38.7793C41.9235 37.1949 43.0624 35.0769 43.952 33.724C44.079 33.5308 44.0543 33.4965 42.9601 32.349C42.343 31.7018 41.5331 30.801 41.1605 30.3472C40.4037 29.4258 40.4807 29.4635 39.0859 29.3296C37.7229 29.1986 35.7245 29.4503 33.7438 30.0024C33.2344 30.1444 33.1869 30.1775 33.1668 30.4043C33.0418 31.8146 32.6684 33.4108 32.3283 33.9892C32.0608 34.444 31.6732 34.6656 31.3789 34.532C31.022 34.3699 30.9125 33.9258 30.8136 32.2398C30.722 30.6792 30.722 30.6792 30.4643 30.7306C28.0069 31.2204 24.9127 31.0855 22.8516 30.3987C21.394 29.913 20.2992 29.0756 19.7994 28.0639C19.555 27.5691 19.5244 27.4274 19.5288 26.812C19.5337 26.1181 19.5337 26.1181 18.9309 26.2836C17.6856 26.6255 16.3173 27.2379 15.1932 27.9564C14.8185 28.1959 14.7139 28.3073 14.741 28.4384C14.7786 28.6204 14.9189 31.496 14.9965 33.6728C15.2461 40.6778 12.7663 49.1183 9.41601 52.6673C8.10038 54.0609 6.9054 54.5988 5.51964 54.421ZM7.85027 50.9147C8.45656 50.6078 9.00879 50.0766 9.52465 49.304C11.6528 46.1167 12.2396 40.6862 11.232 33.5026C11.1105 32.6366 10.9801 31.8957 10.9421 31.8562C10.9042 31.8166 10.5939 32.1421 10.2526 32.5796C8.01756 35.4444 6.31692 38.9475 5.39543 42.5848C4.92435 44.4443 4.76518 45.6377 4.75655 47.3752C4.74948 48.7974 4.76788 49.0105 4.94673 49.5779C5.17789 50.3112 5.65298 50.8811 6.20061 51.082C6.64877 51.2463 7.33194 51.1771 7.85027 50.9147ZM44.579 50.9288C45.1369 50.6711 46.0287 49.7522 46.4996 48.9497C47.034 48.0392 47.5248 46.7642 47.8323 45.4878C48.6601 42.0516 48.6866 38.1921 47.9171 33.1285C47.8254 32.5248 47.7503 31.9935 47.7503 31.9478C47.7503 31.493 45.3418 35.2015 44.2533 37.3325C42.3352 41.0875 41.3021 44.9858 41.4591 47.8768C41.544 49.4407 41.8631 50.3455 42.5009 50.8302C43.0467 51.2451 43.8151 51.2815 44.579 50.9288ZM46.1703 30.5988C46.593 30.0369 47.0106 29.488 47.0982 29.3789C47.2547 29.1838 47.2508 29.1431 46.8664 26.9372C45.7719 20.6565 45.635 17.8755 46.2194 13.8C46.6393 10.8719 47.3279 8.54892 49.1524 3.90541C49.4146 3.23795 49.6292 2.61817 49.6292 2.52813C49.6292 2.2841 49.353 2.2413 48.7582 2.39316C46.2462 3.03447 43.3664 6.63575 41.9507 10.9063C41.124 13.4002 40.8272 15.3053 40.8287 18.1091C40.8313 22.7872 41.6752 26.0454 43.7658 29.4482C44.3557 30.4083 45.2401 31.6329 45.3382 31.6253C45.3731 31.6226 45.7475 31.1607 46.1703 30.5988ZM9.95061 29.9491C10.5428 29.3319 10.5428 29.3319 10.1464 27.0554C9.33548 22.398 9.19182 21.0756 9.19182 18.2682C9.19182 13.6694 9.86619 10.462 11.9655 5.07642C12.9197 2.62846 12.9497 2.53127 12.7974 2.37958C12.6887 2.27124 12.5951 2.26686 12.188 2.35107C10.1466 2.77341 7.7963 5.19982 6.16824 8.56593C4.54576 11.9205 3.84706 15.6778 4.10383 19.6673C4.32449 23.0959 4.92053 25.4425 6.21991 27.9981C6.75024 29.0412 7.67744 30.5315 8.23556 31.2379C8.49715 31.5689 8.49715 31.5689 8.92778 31.0676C9.16463 30.7919 9.6249 30.2886 9.95061 29.9491ZM30.1354 28.9482C30.2411 28.9145 30.3276 28.8538 30.3276 28.8133C30.3276 28.6633 29.1596 27.5123 28.6735 27.1833C28.0212 26.7419 27.0979 26.3237 26.3935 26.1507C25.6918 25.9784 24.5311 25.9706 24.1349 26.1356C23.262 26.499 23.3203 27.7322 24.2378 28.3134C24.6606 28.5813 25.4738 28.8629 26.1991 28.9926C26.6706 29.0769 29.8443 29.0412 30.1354 28.9482Z" fill="#52606D"/>
</svg>
