<svg width="40" height="40" viewBox="0 0 40 40" fill="none" xmlns="http://www.w3.org/2000/svg">
<mask id="mask0_1567_7270" style="mask-type:alpha" maskUnits="userSpaceOnUse" x="0" y="0" width="40" height="40">
<rect width="40" height="40" fill="#D9D9D9"/>
</mask>
<g mask="url(#mask0_1567_7270)">
<path d="M16.6666 25.0001C16.1944 25.0001 15.7988 24.8401 15.4799 24.5201C15.1599 24.2012 14.9999 23.8056 14.9999 23.3334V22.5001C14.9999 21.1112 15.486 19.9306 16.4583 18.9584C17.4305 17.9862 18.611 17.5001 19.9999 17.5001H21.6666V16.1667C21.6666 15.7779 21.8333 15.514 22.1666 15.3751C22.4999 15.2362 22.8055 15.3056 23.0833 15.5834L26.0833 18.5834C26.1666 18.6667 26.2294 18.7567 26.2716 18.8534C26.3127 18.9512 26.3333 19.0556 26.3333 19.1667C26.3333 19.2223 26.2499 19.4167 26.0833 19.7501L23.0833 22.7501C22.8055 23.0279 22.4999 23.0973 22.1666 22.9584C21.8333 22.8195 21.6666 22.5556 21.6666 22.1667V20.8334H19.9999C19.5277 20.8334 19.1321 20.9929 18.8133 21.3117C18.4933 21.6317 18.3333 22.0279 18.3333 22.5001V23.3334C18.3333 23.8056 18.1738 24.2012 17.8549 24.5201C17.5349 24.8401 17.1388 25.0001 16.6666 25.0001ZM11.6666 38.3334C10.7499 38.3334 9.96547 38.0073 9.31325 37.3551C8.65992 36.7017 8.33325 35.9167 8.33325 35.0001V5.00008C8.33325 4.08341 8.65992 3.29841 9.31325 2.64508C9.96547 1.99286 10.7499 1.66675 11.6666 1.66675H28.3333C29.2499 1.66675 30.0349 1.99286 30.6883 2.64508C31.3405 3.29841 31.6666 4.08341 31.6666 5.00008V35.0001C31.6666 35.9167 31.3405 36.7017 30.6883 37.3551C30.0349 38.0073 29.2499 38.3334 28.3333 38.3334H11.6666ZM11.6666 30.0001H28.3333V10.0001H11.6666V30.0001ZM11.6666 33.3334V35.0001H28.3333V33.3334H11.6666ZM11.6666 6.66675H28.3333V5.00008H11.6666V6.66675Z" fill="#F66135"/>
</g>
</svg>
