<svg width="126" height="30" viewBox="0 0 126 30" fill="none" xmlns="http://www.w3.org/2000/svg">
<path d="M79.9845 18.5058C77.7931 18.5058 76.01 16.7135 76.01 14.5109C76.01 12.3083 77.7931 10.516 79.9845 10.516C82.1758 10.516 83.959 12.3083 83.959 14.5109C83.959 16.7351 82.1544 18.5058 79.9845 18.5058ZM79.9845 8.14062C76.4826 8.14062 73.6467 10.991 73.6467 14.5109C73.6467 18.0307 76.4826 20.8811 79.9845 20.8811C83.4863 20.8811 86.3222 18.0307 86.3222 14.5109C86.3222 11.0126 83.4863 8.14062 79.9845 8.14062Z" fill="#52606D"/>
<path d="M72.2277 18.8295H72.7433V21.2265H72.2277C69.4992 21.2265 67.2649 18.9807 67.2649 16.2382V5.29004H69.6496V8.48597H72.7218V10.8829H69.6496V16.2598C69.6496 17.6634 70.8097 18.8295 72.2277 18.8295Z" fill="#52606D"/>
<path d="M101.274 18.5058C99.0829 18.5058 97.2998 16.7135 97.2998 14.5109C97.2998 12.3083 99.0829 10.516 101.274 10.516C103.466 10.516 105.249 12.3083 105.249 14.5109C105.227 16.7351 103.444 18.5058 101.274 18.5058ZM101.274 8.14062C97.7724 8.14062 94.9365 10.991 94.9365 14.5109C94.9365 18.0307 97.7724 20.8811 101.274 20.8811C104.776 20.8811 107.612 18.0307 107.612 14.5109C107.612 11.0126 104.776 8.14062 101.274 8.14062Z" fill="#52606D"/>
<path d="M119.516 18.5058C117.325 18.5058 115.542 16.7135 115.542 14.5109C115.542 12.3083 117.325 10.516 119.516 10.516C121.708 10.516 123.491 12.3083 123.491 14.5109C123.491 16.7351 121.686 18.5058 119.516 18.5058ZM119.516 8.14062C116.014 8.14062 113.178 10.991 113.178 14.5109C113.178 18.0307 116.014 20.8811 119.516 20.8811C121.063 20.8811 122.481 20.3197 123.577 19.3911V20.6436H125.854V14.7052C125.854 14.6404 125.854 14.5756 125.854 14.5109C125.854 11.0126 123.018 8.14062 119.516 8.14062Z" fill="#52606D"/>
<path d="M92.8754 8.14062H94.014V10.5376H92.8754C91.4574 10.5376 90.2973 11.7036 90.2973 13.1289V14.6836V17.642V20.73H87.9126V13.1289C87.9126 10.3864 90.1469 8.14062 92.8754 8.14062Z" fill="#52606D"/>
<path d="M111.587 4.96582H109.202V20.6863H111.587V4.96582Z" fill="#52606D"/>
<path d="M51.4122 13.4526V21.0321H49.0275V13.4526C49.0275 12.0274 47.8674 10.8613 46.4494 10.8613C45.0315 10.8613 43.8714 12.0274 43.8714 13.4526V21.0321H41.4866V13.4526C41.4866 12.0274 40.3265 10.8613 38.9086 10.8613C37.4906 10.8613 36.3305 12.0274 36.3305 13.4526V21.0321H33.9458V13.4526C33.9458 10.7101 36.1801 8.46436 38.8871 8.46436C40.4124 8.46436 41.7444 9.13377 42.6683 10.2135C43.5921 9.13377 44.9241 8.46436 46.4494 8.46436C49.1779 8.46436 51.4122 10.7101 51.4122 13.4526Z" fill="#52606D"/>
<path d="M59.3612 18.8295C57.1698 18.8295 55.3867 17.0372 55.3867 14.8346C55.3867 12.632 57.1698 10.8397 59.3612 10.8397C61.5525 10.8397 63.3357 12.632 63.3357 14.8346C63.3357 17.0372 61.5311 18.8295 59.3612 18.8295ZM59.3612 8.46436C55.8378 8.46436 53.002 11.3148 53.002 14.8346C53.002 18.3544 55.8378 21.2049 59.3397 21.2049C62.8416 21.2049 65.6774 18.3544 65.6774 14.8346C65.6989 11.3364 62.8631 8.46436 59.3612 8.46436Z" fill="#52606D"/>
<path fill-rule="evenodd" clip-rule="evenodd" d="M0 14.8563C0 6.84492 6.44517 0.366699 14.4157 0.366699C22.4721 0.366699 28.8314 6.8881 28.8314 14.8563C28.8314 22.8677 22.3862 29.3459 14.4157 29.3459C6.44517 29.3459 0 22.8677 0 14.8563ZM14.4362 18.182L18.7115 3.92987L24.2113 22.1768H23.1801C23.1801 22.1768 22.4926 19.0025 21.354 17.1023C20.7524 16.0657 19.7857 15.2235 18.5181 15.2452C17.6158 15.2668 16.8424 15.7634 15.8756 17.1238C15.2955 17.9444 14.3932 20.0174 14.3932 20.0174C14.3932 20.0174 14.0495 19.1969 13.6413 18.3979C13.6004 18.3226 13.5595 18.2467 13.5188 18.1711C13.3028 17.7702 13.0916 17.3782 12.9108 17.1238C11.944 15.7634 11.1706 15.2668 10.2683 15.2452C9.00075 15.2236 8.05546 16.0657 7.43243 17.1023C6.29378 19.0025 5.60629 22.1768 5.60629 22.1768H4.57507L10.0964 3.92987L14.3717 18.182L14.4147 18.2036L14.4362 18.182Z" fill="#52606D"/>
</svg>
