<?xml version="1.0" encoding="utf-8"?>
<!-- Generator: Adobe Illustrator 19.2.0, SVG Export Plug-In . SVG Version: 6.00 Build 0)  -->
<svg version="1.1" id="Capa_1" xmlns="http://www.w3.org/2000/svg" xmlns:xlink="http://www.w3.org/1999/xlink" x="0px" y="0px"
	 viewBox="0 0 1795 270" style="enable-background:new 0 0 1795 270;" xml:space="preserve">
<style type="text/css">
	.st0{fill:#BE2864;}
	.st1{fill:#262729;}
</style>
<path class="st0" d="M0,239c2.3-8.2,4.6-16.4,9.6-23.5c11.1-15.8,26.2-24.1,45.6-24.5c10.1-0.2,20.3,0,31.1,0
	c-5.1-10.2-9.2-20.1-11.6-30.6c-9.9-44.6-0.1-84.3,30.6-118.2c23.5-26,53.4-39.4,88.4-41.6c7.8-0.5,15.6-0.6,23.5-0.6
	c59.2,0,118.3,0,177.5-0.1c4.1,0,5.2,1,5.3,5.2c0.3,22.9-7.3,41.8-27.1,54.5c-8.6,5.5-18,8.4-28.3,8.3c-10-0.1-20,0-30.5,0
	c3.9,8.8,7.7,17.2,10.3,26.2c21.3,74.5-27.4,150.9-103.9,162.9c-8.2,1.3-16.5,1.9-24.9,1.9c-65.2,0-130.3,0-195.5,0
	C0,252.3,0,245.7,0,239z M261.2,129.6c1-29.3-22.5-61.3-61-61.4c-37.7-0.1-61.7,30.7-61.5,61.6c0.3,33.6,27.6,61.1,60.9,61.1
	C234,191,261.2,163.9,261.2,129.6z"/>
<path class="st1" d="M1484,270c-6.5-1.7-13-3-19.4-5.1c-36.4-12.1-58.2-37-64.7-74.8c-5-29.2,0.5-56.2,18.9-79.9
	c15.9-20.4,37.6-31.2,62.8-34.9c25.6-3.7,50.1,0,72.5,13.5c25.2,15.1,39.4,37.8,43.8,66.8c3.2,21,0.8,41.4-8.4,60.7
	c-13,27.1-34.9,43.3-63.6,50.6c-5.2,1.3-10.6,2.1-15.9,3.1C1501.3,270,1492.7,270,1484,270z M1546.1,171c0-2,0.2-4,0-6
	c-1.7-18-9.3-32.5-26.2-39.9c-17.8-7.8-35.4-6.7-51.3,5.2c-12.9,9.7-17.5,23.8-17.7,39.5c-0.6,40,31.1,57.8,62.6,49.2
	C1533.9,213.5,1546.2,195.2,1546.1,171z"/>
<path class="st1" d="M628.7,175.9c0-7.3,0-14.1,0-20.9c0-49.7,0.1-99.3-0.1-149c0-5,1.4-6,6.1-5.9c13.3,0.3,26.7,0.2,40,0.1
	c3.2,0,4.7,0.4,4.7,4.2c-0.1,83.5-0.1,166.9,0,250.4c0,3.2-0.7,4.1-4.1,4.1c-14-0.2-28-0.2-42,0c-3.3,0.1-5-1-6.8-3.6
	c-37.1-53.6-74.3-107.1-111.5-160.7c-1.4-2-2.8-3.9-5-6.9c0,3,0,4.8,0,6.5c0,53.2,0,106.3,0.1,159.5c0,4-0.8,5.4-5.1,5.3
	c-15.2-0.3-30.3-0.2-45.5,0c-3.3,0-4.2-0.8-4.2-4.2c0.1-74.8,0-149.6,0.1-224.4c0-17.5,13-30.1,30.4-30.2c1.8,0,3.7,0,5.5,0
	c16.8,0.3,12.8-2.5,22.8,11.9c37.1,53.4,74.1,106.9,111.1,160.3C626,173.6,626.5,175.1,628.7,175.9z"/>
<path class="st1" d="M1195,142.9c0-36.7,0-73.3,0-110c0-17.2,12.6-29.9,29.9-29.8c30.8,0,61.7-0.5,92.5,0.4
	c24.3,0.7,46.4,8.3,63.4,26.9c10.5,11.4,16.4,24.9,18.7,40c3.6,24.4-0.5,47-16.1,66.8c-9.1,11.5-21,19.2-34.7,24.2
	c-7,2.6-7.1,2.8-3,8.7c19.2,28,38.5,55.9,57.7,83.8c1.2,1.7,3.3,3.3,2.1,5.7c-1.3,2.6-3.9,2.1-6.2,2.1c-16.8,0-33.7-0.1-50.5,0.1
	c-3.8,0-6-1.3-8-4.5c-18.1-28.7-36.4-57.2-54.6-85.8c-1.7-2.7-3.4-3.9-6.7-3.8c-8.2,0.3-16.3,0.3-24.5,0c-4.6-0.2-6.1,1.2-6,5.9
	c0.2,27.2,0.1,54.3,0.1,81.5c0,6.3-0.4,6.7-6.8,6.7c-13.7,0-27.3-0.1-41,0.1c-4.7,0.1-6.3-1.5-6.3-6.4
	C1195.1,217.9,1195,180.4,1195,142.9z M1282.9,119.8c9.3,0,18.7,0.2,28,0c17.8-0.5,33-7.3,33.5-30.4c0.4-15.8-5.9-29.9-26.7-32.1
	c-21.4-2.3-42.9-0.5-64.4-0.9c-3.5-0.1-4.5,1.8-4.5,5.1c0.1,17.6,0.1,35.3,0,52.9c0,4.1,1.4,5.6,5.5,5.5
	C1264,119.6,1273.5,119.8,1282.9,119.8z"/>
<path class="st1" d="M814.5,187.8c-19.7,0-39.3,0-59,0c-6.9,0-7.8,1.2-6.1,8c3.8,15.6,17.5,26.4,34.6,28.4
	c18.3,2.1,34.6-2.2,49-13.4c2.3-1.8,3.4-1.3,5.2,0.5c7.8,8,15.7,15.9,23.7,23.7c3.3,3.2,2.8,5.5-0.5,8.1
	c-14.2,11.4-30.6,17.8-48.4,21c-26.9,4.9-52.7,1.3-76.7-12.1c-15.8-8.8-25.5-22.8-31.6-39.6c-11.2-30.8-11.2-61.4,1.3-91.8
	c11.8-28.7,34.1-44.2,64-49.3c23-3.9,45.4-2,66.4,9c22.1,11.5,34.3,30.7,40.8,54c4.5,16.1,4.9,32.5,4.4,49c-0.1,4.2-3,4.5-6.3,4.5
	C855.1,187.7,834.8,187.8,814.5,187.8z M790.5,151.8c12.3,0,24.7-0.1,37,0.1c4.4,0.1,6.1-1.6,5.5-6c-0.6-4.3-1.6-8.5-3.6-12.4
	c-8.7-17-30.1-26.7-49.1-22.1c-17.6,4.3-31.2,18.8-32.6,34.3c-0.4,4.8,1.2,6.1,5.7,6.1C765.8,151.6,778.2,151.8,790.5,151.8z"/>
<path class="st1" d="M867.1,260.6c12.4-16.3,25.6-31.4,38.6-46.8c10.8-12.8,21.4-25.9,32.3-38.8c2.5-3,2.4-5.2,0-8.2
	c-20.9-27.8-41.7-55.7-62.5-83.6c-1.1-1.5-3.2-2.8-2-5.2c1.2-2.5,3.6-2,5.7-1.8c14.6,1.4,29.2,1.7,43.8-0.1c5.6-0.7,9.4,1.3,12.6,6
	c9.8,14.7,19.8,29.1,29.8,43.6c3.9,5.6,4.8,5.6,8.7-0.1c10.1-14.5,20.2-28.9,30-43.6c3.3-5,7.4-6.7,13.1-5.9
	c11.9,1.7,23.8,2.1,35.8,0.9c2.8-0.3,5.6-0.7,8.4-0.9c1.6-0.1,3.4-0.3,4.4,1.5c1.1,2,0,3.5-1.1,5c-11.8,15.9-23.7,31.8-35.5,47.6
	c-8.8,11.7-17.4,23.5-26.4,35.1c-3.2,4.1-3.4,7.1,0,11.3c18.2,23,38.2,44.4,56.7,67.2c3,3.7,6,7.6,9,11.3c1.1,1.4,2,2.8,1.3,4.5
	c-0.7,1.8-2.5,2.1-4.2,2.1c-9.8,0-19.7,0.3-29.5-0.2c-5.7-0.3-11.3-0.5-17-0.2c-5.2,0.3-8.3-1.7-11.1-5.8
	c-11.2-15.7-22.7-31.2-34.1-46.8c-3.7-5.1-4.5-5.1-8.2,0c-11.3,15.4-22.7,30.8-33.8,46.4c-3.1,4.3-6.6,6.2-12.1,6.2
	c-15.1-0.1-30.3-0.7-45.4,0.3C872.1,261.9,869.7,262.1,867.1,260.6z"/>
<path class="st1" d="M1079.3,134.4c0-34.1,0-62.1,0-90.1c0-15.1,9.2-24.2,24.3-24.2c5.5,0,11,0,16.5,0c6.3,0,6.7,0.4,6.7,6.9
	c0,15.5,0,31,0,46.5c0,6.8,0,6.8,7,6.8c12.5,0,25,0.1,37.5-0.1c4.5-0.1,6.3,1.3,6.1,6c-0.3,9.5-0.3,19,0,28.5c0.1,4.6-1.4,6.2-6,6.2
	c-13-0.2-26,0-39-0.1c-3.9-0.1-5.7,0.9-5.6,5.3c0.2,25.5,0.1,51,0.3,76.5c0.1,12.7,6.2,19.6,17.9,21.2c5.1,0.7,9.6-0.5,13.4-4
	c2.7-2.5,4.7-2.2,7,0.8c5.8,7.7,11.6,15.4,17.7,22.9c2.9,3.6,2.6,5.8-1.1,8.5c-16.9,12.2-35.7,16.3-56.2,13.7
	c-7.6-1-15.1-2.4-22-5.9c-15.1-7.6-22.1-20.8-23.4-37C1077.6,191.3,1080.2,159.8,1079.3,134.4z"/>
<path class="st1" d="M1756,111c0,32,0,64,0,95.9c0,9.4,3.1,14.5,9.8,16.6c3,0.9,5.8,0.8,8.8-0.2c2.7-0.9,4.6-0.1,6,2.8
	c4.4,9.1,8.9,18.1,13.5,27.2c1.3,2.6,1.5,4.6-1.3,6.3c-21.4,13.3-51.9,13.1-69.6-2.5c-10-8.8-14.7-20.3-17.1-33
	c-1.2-6.2-1.3-12.6-1.3-18.9c0-59.1,0-118.2,0-177.4c0-9.3-0.8-8.1,7.8-10.1c12.3-2.9,24.5-5.9,36.8-8.9c6.3-1.5,6.7-1.2,6.7,5.6
	C1756,46.7,1756,78.8,1756,111z"/>
<path class="st1" d="M1667,122c0,28.3,0,56.6,0,84.9c0,13.2,6,18.3,19.1,16.2c2.5-0.4,4.1,0.2,5.2,2.6c4.6,9.4,9.2,18.7,13.9,28
	c1.1,2.3,1.2,4-1.2,5.5c-20.6,13.3-51.4,13.3-68.9-1.3c-10.5-8.8-15.5-20.4-18.1-33.4c-1.2-5.9-1.4-11.9-1.4-17.9
	c0-53.1,0.1-106.3-0.1-159.4c0-5.2,1.7-7.2,6.6-8.3c12.9-2.9,25.8-6.2,38.7-9.4c5.2-1.3,6.1-0.6,6.1,4.9
	C1667,63.7,1667,92.9,1667,122z"/>
</svg>
