<svg width="138" height="21" viewBox="0 0 138 21" fill="none" xmlns="http://www.w3.org/2000/svg">
<g clip-path="url(#clip0_7973_53163)">
<path d="M107.843 19.3429L103.123 12.4929C103.042 12.3708 103.096 12.208 103.232 12.1538C105.931 11.2992 107.491 9.10179 107.491 6.25328C107.491 2.57734 104.9 0.0136719 100.641 0.0136719H94.035C92.8142 0.0136719 91.824 1.00387 91.824 2.22466V19.465C91.824 19.587 91.9189 19.682 92.041 19.682H95.7169C95.839 19.682 95.934 19.587 95.934 19.465V12.737C95.934 12.615 96.0289 12.52 96.151 12.52H98.4569C98.5383 12.52 98.6062 12.5607 98.6468 12.615L103.082 19.5735C103.123 19.6413 103.191 19.6684 103.272 19.6684H107.667C107.843 19.682 107.952 19.4921 107.843 19.3429ZM100.532 8.89833H96.1646C96.0425 8.89833 95.9475 8.80338 95.9475 8.6813V4.25932C95.9475 4.13724 96.0425 4.04229 96.1646 4.04229H100.532C102.309 4.04229 103.232 4.88328 103.232 6.48387C103.232 8.05734 102.309 8.89833 100.532 8.89833Z" fill="#52606D"/>
<path d="M137.549 19.2073C137.604 19.3022 137.563 19.4379 137.468 19.4921C136.695 19.9533 135.813 20.2789 134.85 20.2789C132.015 20.2789 130.699 18.3392 130.699 15.5856V1.43799C130.699 1.34304 130.767 1.24809 130.862 1.22096L134.321 0.393535C134.457 0.366406 134.592 0.461357 134.592 0.610565V15.6127C134.592 16.3859 134.972 16.8607 135.65 16.8607C135.8 16.8607 135.962 16.8335 136.139 16.7793C136.247 16.7521 136.356 16.7928 136.396 16.8878L137.549 19.2073Z" fill="#52606D"/>
<path d="M130.767 19.2073C130.821 19.3022 130.781 19.4379 130.686 19.4921C129.913 19.9533 129.031 20.2789 128.068 20.2789C125.233 20.2789 123.917 18.3392 123.917 15.5856V3.05213C123.917 2.95718 123.985 2.86223 124.08 2.8351L127.525 1.98055C127.661 1.93985 127.797 2.04837 127.797 2.19758V15.6127C127.797 16.3859 128.163 16.8606 128.855 16.8606C129.004 16.8606 129.18 16.8335 129.343 16.7793C129.451 16.7521 129.56 16.7928 129.601 16.8878L130.767 19.2073Z" fill="#52606D"/>
<path d="M114.965 5.42578C110.543 5.42578 107.328 8.49133 107.328 12.8726C107.328 17.281 110.543 20.3466 114.965 20.3466C119.387 20.3466 122.629 17.281 122.629 12.8726C122.642 8.45063 119.4 5.42578 114.965 5.42578ZM114.965 16.6299C112.767 16.6299 111.302 15.0836 111.302 12.7777C111.302 10.4717 112.767 8.92539 114.965 8.92539C117.162 8.92539 118.627 10.4988 118.627 12.7777C118.641 15.0836 117.176 16.6299 114.965 16.6299Z" fill="#52606D"/>
<path d="M67.6795 14.0528H57.9946C57.8725 14.0528 57.764 14.1613 57.7776 14.2834C57.8182 15.4092 58.6321 16.5215 60.2191 16.8199C61.7248 17.0912 63.0812 16.7657 64.2884 15.8026C64.3427 15.7619 64.4105 15.7212 64.4241 15.6941C65.1294 16.3994 65.8348 17.1048 66.5401 17.8101C66.6351 17.9051 66.6215 18.0407 66.5266 18.1357C66.1061 18.529 65.6042 18.8546 65.048 19.1123C62.6472 20.2653 60.1784 20.3467 57.6962 19.3836C56.1227 18.7732 55.0511 17.6067 54.4814 16.0468C53.6133 13.6459 53.5455 11.5705 54.4543 9.16963C55.3631 6.75517 57.2078 5.50725 59.7173 5.15458C60.8431 4.9918 61.9554 5.04606 63.0541 5.33091C65.5364 5.99557 66.9606 7.67755 67.6117 10.092C67.9373 11.2992 67.9644 12.5336 67.8966 13.8358C67.8966 13.9578 67.8016 14.0528 67.6795 14.0528ZM64.0172 11.3264C64.1392 11.3264 64.2342 11.2314 64.2342 11.1093C64.2477 9.54943 62.7964 8.20656 60.9923 8.16586C59.2561 8.12517 57.7504 9.48161 57.6826 11.1093C57.6826 11.2314 57.7776 11.3399 57.8996 11.3399H64.0172V11.3264Z" fill="#52606D"/>
<path d="M82.2475 19.3292C82.356 19.4784 82.2475 19.6819 82.0712 19.6819C80.6876 19.6819 79.3719 19.6819 78.0561 19.6683C77.9476 19.6683 77.812 19.5327 77.7306 19.4242C76.7946 18.1491 75.8587 16.8741 74.9363 15.5854C74.9092 15.5448 74.8685 15.4905 74.8278 15.4498C74.7329 15.3413 74.5701 15.3413 74.4751 15.4498C74.2988 15.694 74.136 15.911 73.9597 16.1416C73.1594 17.2267 72.3727 18.3254 71.5588 19.4106C71.4774 19.5191 71.2875 19.6412 71.1519 19.6548C69.7547 19.6683 68.3576 19.6683 66.9741 19.6683C66.9334 19.6683 66.9062 19.6548 66.8113 19.6276C68.6696 17.1996 70.5144 15.3006 72.3591 12.8997C72.4134 12.8183 72.4269 12.7098 72.3591 12.6284C70.6907 10.4446 69.0223 8.12505 67.3267 5.9005C67.2182 5.75129 67.3132 5.54782 67.5031 5.54782C67.5573 5.54782 67.6251 5.54782 67.693 5.56139C68.8052 5.6699 69.9311 5.69703 71.0434 5.56139C71.491 5.50713 71.708 5.56139 71.8979 5.83267C72.7118 6.98565 73.5528 8.30139 74.3938 9.44079C74.4209 9.48149 74.448 9.52218 74.4887 9.56287C74.5837 9.67139 74.7464 9.67139 74.8414 9.56287C74.8549 9.54931 74.8685 9.52218 74.8821 9.50862C75.7366 8.34208 76.5912 7.01277 77.4186 5.83267C77.6221 5.54782 77.8527 5.50713 78.3274 5.57495C79.3583 5.7106 80.4028 5.72416 81.4337 5.57495C81.5693 5.56139 81.6778 5.54782 81.7999 5.54782C81.9762 5.54782 82.0712 5.75129 81.9762 5.9005C81.9762 5.9005 81.9762 5.91406 81.9627 5.91406C80.3349 8.0301 78.7208 10.336 77.0795 12.4385C76.8896 12.6827 76.876 12.8319 77.0659 13.0896C78.8022 15.3277 80.5113 17.0368 82.234 19.2885C82.234 19.3156 82.234 19.3292 82.2475 19.3292Z" fill="#52606D"/>
<path d="M86.3846 1.31581C86.5067 1.31581 86.6016 1.41076 86.6016 1.53284C86.6016 2.14324 86.6016 2.1568 86.6016 2.86215C86.6016 3.56749 86.6016 4.85611 86.6016 5.68353C86.6016 5.80561 86.6966 5.90056 86.8187 5.90056H90.2504C90.3725 5.90056 90.4675 5.99551 90.4675 6.11759V8.72195C90.4675 8.84403 90.3725 8.93898 90.2504 8.93898H86.8322C86.7102 8.93898 86.6152 9.03393 86.6152 9.14244C86.6152 9.16957 86.6152 9.21027 86.6152 9.23739C86.6152 11.367 86.6016 12.7913 86.6152 14.9209C86.6288 16.2502 87.1578 16.8606 88.2972 16.8199C88.2972 16.8199 88.6498 16.8877 89.1246 16.4265C89.2196 16.3316 89.3688 16.3451 89.4501 16.4536L91.0236 18.4883C91.0914 18.5832 91.0779 18.7189 90.9829 18.7867C89.1653 20.211 87.3884 20.0346 87.2527 20.0211H87.2392C86.6152 20.0211 86.0048 19.9397 85.3808 19.7498C84.0108 19.3293 83.3055 18.3119 83.0885 16.9419C83.0206 16.5079 83.0071 16.0738 83.0071 15.6398C83.0071 13.3203 83.0071 11.0008 83.0206 8.69482C83.0206 8.55918 83.0206 8.23363 83.0206 8.23363V5.22234L83.0071 2.9571C83.0071 2.04829 83.7396 1.30225 84.6484 1.30225H86.3846V1.31581Z" fill="#52606D"/>
<path d="M52.5009 19.465V19.1937C52.4874 12.9676 52.4874 6.74159 52.5009 0.515553V0.0136719H48.6622V0.312088C48.6622 0.339216 48.6622 0.366345 48.6622 0.407038C48.6758 4.62555 48.6758 8.85763 48.6758 13.0761C48.6758 13.1982 48.6758 13.3203 48.6758 13.4288C48.6487 13.4424 48.6215 13.4424 48.5944 13.4559C48.5266 13.361 48.4588 13.2525 48.3909 13.1575C45.4203 8.88476 42.4633 4.59842 39.4927 0.325652C39.3842 0.16288 39.2893 0.0272362 39.0315 0.0272362H37.6751C36.4543 0.0272362 35.4641 1.01743 35.4641 2.23823V2.44169V9.16961V15.3278V19.1937V19.465V19.682H35.6811H35.6947H39.33H39.3435H39.5605V19.5463V19.465V19.1937V12.737V6.57882C42.5718 10.9059 45.6645 15.355 48.6622 19.682C48.6622 19.682 48.7436 19.682 49.0013 19.682C50.0865 19.6684 51.1852 19.6684 52.2703 19.682H52.5145V19.465C52.5009 19.465 52.5009 19.465 52.5009 19.465Z" fill="#52606D"/>
<path d="M15.8366 14.541H7.23676H4.8223C2.47567 14.541 0.57666 16.4807 0.57666 18.868V19.6819H15.8366V14.541Z" fill="#52606D"/>
<path d="M15.7688 0V0.0135644C10.3702 0.0542574 6.00244 4.43554 6.00244 9.84772C6.00244 15.2735 10.4109 19.6819 15.8366 19.6819C21.2623 19.6819 25.6708 15.2735 25.6708 9.84772C25.6708 8.15218 25.2367 6.55158 24.4771 5.15446H26.783C29.1297 5.15446 31.0287 3.21475 31.0287 0.813861V0H15.7688ZM15.8366 14.541C13.2458 14.541 11.1433 12.4385 11.1433 9.84772C11.1433 7.25693 13.2458 5.15446 15.8366 5.15446C18.4274 5.15446 20.5299 7.25693 20.5299 9.84772C20.5299 12.4385 18.4274 14.541 15.8366 14.541Z" fill="#52606D"/>
</g>
<defs>
<clipPath id="clip0_7973_53163">
<rect width="137" height="20.3465" fill="white" transform="translate(0.57666)"/>
</clipPath>
</defs>
</svg>
