<svg width="49" height="48" viewBox="0 0 49 48" fill="none" xmlns="http://www.w3.org/2000/svg">
<rect x="0.888062" width="48" height="48" rx="24" fill="#F66135"/>
<mask id="mask0_1108_22252" style="mask-type:alpha" maskUnits="userSpaceOnUse" x="12" y="12" width="25" height="24">
<rect x="12.8881" y="12" width="24" height="24" fill="#D9D9D9"/>
</mask>
<g mask="url(#mask0_1108_22252)">
<path d="M25.3881 23.95C25.8714 23.4167 26.2424 22.8083 26.5011 22.125C26.7591 21.4417 26.8881 20.7333 26.8881 20C26.8881 19.2667 26.7591 18.5583 26.5011 17.875C26.2424 17.1917 25.8714 16.5833 25.3881 16.05C26.3881 16.1833 27.2214 16.625 27.8881 17.375C28.5547 18.125 28.8881 19 28.8881 20C28.8881 21 28.5547 21.875 27.8881 22.625C27.2214 23.375 26.3881 23.8167 25.3881 23.95ZM30.4131 32C30.5631 31.8833 30.6797 31.7373 30.7631 31.562C30.8464 31.3873 30.8881 31.1917 30.8881 30.975V29C30.8881 28.4 30.7547 27.8293 30.4881 27.288C30.2214 26.746 29.8714 26.2667 29.4381 25.85C30.2881 26.15 31.0757 26.5373 31.8011 27.012C32.5257 27.4873 32.8881 28.15 32.8881 29V31C32.8881 31.2833 32.7921 31.5207 32.6001 31.712C32.4087 31.904 32.1714 32 31.8881 32H30.4131ZM33.8881 25C33.6047 25 33.3674 24.904 33.1761 24.712C32.9841 24.5207 32.8881 24.2833 32.8881 24V23H31.8881C31.6047 23 31.3674 22.904 31.1761 22.712C30.9841 22.5207 30.8881 22.2833 30.8881 22C30.8881 21.7167 30.9841 21.479 31.1761 21.287C31.3674 21.0957 31.6047 21 31.8881 21H32.8881V20C32.8881 19.7167 32.9841 19.479 33.1761 19.287C33.3674 19.0957 33.6047 19 33.8881 19C34.1714 19 34.4087 19.0957 34.6001 19.287C34.7921 19.479 34.8881 19.7167 34.8881 20V21H35.8881C36.1714 21 36.4087 21.0957 36.6001 21.287C36.7921 21.479 36.8881 21.7167 36.8881 22C36.8881 22.2833 36.7921 22.5207 36.6001 22.712C36.4087 22.904 36.1714 23 35.8881 23H34.8881V24C34.8881 24.2833 34.7921 24.5207 34.6001 24.712C34.4087 24.904 34.1714 25 33.8881 25ZM20.8881 24C19.7881 24 18.8464 23.6083 18.0631 22.825C17.2797 22.0417 16.8881 21.1 16.8881 20C16.8881 18.9 17.2797 17.9583 18.0631 17.175C18.8464 16.3917 19.7881 16 20.8881 16C21.9881 16 22.9297 16.3917 23.7131 17.175C24.4964 17.9583 24.8881 18.9 24.8881 20C24.8881 21.1 24.4964 22.0417 23.7131 22.825C22.9297 23.6083 21.9881 24 20.8881 24ZM13.8881 32C13.6047 32 13.3674 31.904 13.1761 31.712C12.9841 31.5207 12.8881 31.2833 12.8881 31V29.2C12.8881 28.6333 13.0341 28.1123 13.3261 27.637C13.6174 27.1623 14.0047 26.8 14.4881 26.55C15.5214 26.0333 16.5714 25.6457 17.6381 25.387C18.7047 25.129 19.7881 25 20.8881 25C21.9881 25 23.0714 25.129 24.1381 25.387C25.2047 25.6457 26.2547 26.0333 27.2881 26.55C27.7714 26.8 28.1587 27.1623 28.4501 27.637C28.7421 28.1123 28.8881 28.6333 28.8881 29.2V31C28.8881 31.2833 28.7924 31.5207 28.6011 31.712C28.4091 31.904 28.1714 32 27.8881 32H13.8881ZM20.8881 22C21.4381 22 21.9091 21.804 22.3011 21.412C22.6924 21.0207 22.8881 20.55 22.8881 20C22.8881 19.45 22.6924 18.9793 22.3011 18.588C21.9091 18.196 21.4381 18 20.8881 18C20.3381 18 19.8674 18.196 19.4761 18.588C19.0841 18.9793 18.8881 19.45 18.8881 20C18.8881 20.55 19.0841 21.0207 19.4761 21.412C19.8674 21.804 20.3381 22 20.8881 22ZM14.8881 30H26.8881V29.2C26.8881 29.0167 26.8424 28.85 26.7511 28.7C26.6591 28.55 26.5381 28.4333 26.3881 28.35C25.4881 27.9 24.5797 27.5623 23.6631 27.337C22.7464 27.1123 21.8214 27 20.8881 27C19.9547 27 19.0297 27.1123 18.1131 27.337C17.1964 27.5623 16.2881 27.9 15.3881 28.35C15.2381 28.4333 15.1174 28.55 15.0261 28.7C14.9341 28.85 14.8881 29.0167 14.8881 29.2V30Z" fill="white"/>
</g>
</svg>
