<svg width="49" height="48" viewBox="0 0 49 48" fill="none" xmlns="http://www.w3.org/2000/svg">
<rect x="0.888062" width="48" height="48" rx="24" fill="#F66135"/>
<mask id="mask0_1108_22250" style="mask-type:alpha" maskUnits="userSpaceOnUse" x="12" y="12" width="25" height="24">
<rect x="12.8881" y="12" width="24" height="24" fill="#D9D9D9"/>
</mask>
<g mask="url(#mask0_1108_22250)">
<path d="M32.8381 33C30.6881 33 28.5924 32.5207 26.5511 31.562C24.5091 30.604 22.7007 29.3373 21.1261 27.762C19.5507 26.1873 18.2841 24.379 17.3261 22.337C16.3674 20.2957 15.8881 18.2 15.8881 16.05C15.8881 15.75 15.9881 15.5 16.1881 15.3C16.3881 15.1 16.6381 15 16.9381 15H20.9881C21.2214 15 21.4297 15.075 21.6131 15.225C21.7964 15.375 21.9047 15.5667 21.9381 15.8L22.5881 19.3C22.6214 19.5333 22.6174 19.7457 22.5761 19.937C22.5341 20.129 22.4381 20.3 22.2881 20.45L19.8631 22.9C20.5631 24.1 21.4424 25.225 22.5011 26.275C23.5591 27.325 24.7214 28.2333 25.9881 29L28.3381 26.65C28.4881 26.5 28.6841 26.3873 28.9261 26.312C29.1674 26.2373 29.4047 26.2167 29.6381 26.25L33.0881 26.95C33.3214 27 33.5131 27.1123 33.6631 27.287C33.8131 27.4623 33.8881 27.6667 33.8881 27.9V31.95C33.8881 32.25 33.7881 32.5 33.5881 32.7C33.3881 32.9 33.1381 33 32.8381 33ZM18.9131 21L20.5631 19.35L20.1381 17H17.9131C17.9964 17.6833 18.1131 18.3583 18.2631 19.025C18.4131 19.6917 18.6297 20.35 18.9131 21ZM31.8881 30.95V28.75L29.5381 28.275L27.8631 29.95C28.5131 30.2333 29.1757 30.4583 29.8511 30.625C30.5257 30.7917 31.2047 30.9 31.8881 30.95Z" fill="white"/>
</g>
</svg>
