<svg width="127" height="31" viewBox="0 0 127 31" fill="none" xmlns="http://www.w3.org/2000/svg">
<path d="M79.1847 13.7949C78.9317 13.9865 78.6788 14.1781 78.489 14.4335C78.742 14.1781 78.9317 13.9865 79.1847 13.7949Z" fill="#52606D"/>
<path d="M78.0468 15.3906C78.1732 15.0713 78.2997 14.752 78.4895 14.4966C78.2997 14.752 78.1732 15.0075 78.0468 15.3906Z" fill="#52606D"/>
<path d="M53.8868 10.9204H49.9023V23.6926H53.8868V10.9204Z" fill="#52606D"/>
<path d="M62.6129 10.5371C60.842 10.5371 59.7668 11.2396 58.7549 12.6445H58.6284V10.9203H54.7704L54.8336 23.5648H58.8181V16.5401C58.8181 15.0712 59.6403 13.9217 61.0317 13.9217C62.3599 13.9217 62.9924 14.7519 62.9924 16.1569V23.5009H66.9768V15.2628C66.9768 12.5168 64.3838 10.5371 62.6129 10.5371Z" fill="#52606D"/>
<path d="M51.862 9.89955C53.1544 9.89955 54.2021 8.84166 54.2021 7.53669C54.2021 6.23172 53.1544 5.17383 51.862 5.17383C50.5696 5.17383 49.5219 6.23172 49.5219 7.53669C49.5219 8.84166 50.5696 9.89955 51.862 9.89955Z" fill="#52606D"/>
<path d="M95.1212 10.793H94.7418C93.2239 10.793 92.1487 11.4316 91.2632 12.9004H91.1368V10.9207H87.2787V23.6929H91.2632V17.9454C91.2632 15.3271 92.7811 14.0499 94.9948 14.3053L95.1212 10.793Z" fill="#52606D"/>
<path d="M114.727 15.6464C113.146 15.3909 111.755 15.2632 111.755 14.2414C111.755 13.2197 112.514 13.0919 113.462 13.0919C114.474 13.0919 115.297 13.4751 115.423 14.6246H119.155C118.902 12.134 117.067 10.4736 113.462 10.4736C109.857 10.4736 108.023 11.8786 108.023 14.6246C108.023 17.3706 110.363 18.2647 112.514 18.6479C114.601 19.031 115.739 19.031 115.739 20.1805C115.739 21.33 114.98 21.4577 113.779 21.4577C112.514 21.4577 111.818 20.9469 111.565 19.9251H107.833C108.086 22.5434 110.427 24.2038 113.905 24.2038C117.384 24.2038 119.597 22.7988 119.597 19.9251C119.534 17.0513 116.941 16.0295 114.727 15.6464Z" fill="#52606D"/>
<path d="M105.557 12.1986C104.102 10.7936 103.09 10.6021 101.193 10.6021C97.3348 10.6021 94.7417 13.4758 94.7417 17.3713C94.7417 21.2669 97.398 24.0767 101.446 24.0767C103.027 24.0767 104.292 23.6936 105.43 22.9272C106.505 22.2248 107.201 21.1391 107.517 19.9258H103.533C103.343 20.6921 102.584 21.0753 101.572 21.0753C99.9911 21.0753 98.9792 19.9258 98.7262 18.3292H107.77C107.77 15.7109 107.011 13.6035 105.557 12.1986ZM98.7262 15.9025C98.7894 15.5194 98.8527 15.2 99.0424 14.8807C99.4219 13.9867 100.181 13.4119 101.319 13.4119C102.711 13.4119 103.533 14.4337 103.659 15.9025H98.7262Z" fill="#52606D"/>
<path d="M98.7252 15.9022C98.7885 15.519 98.8517 15.1997 99.0414 14.8804C98.8517 15.1997 98.7885 15.519 98.7252 15.9022Z" fill="#52606D"/>
<path d="M126.681 13.4113V10.9207H124.594V6.89746H120.61V10.9207H119.345V13.4113H120.61V20.3083C120.61 23.0543 122.191 23.8207 124.594 23.8207H126.555L126.618 20.6915H125.986C125.1 20.6915 124.594 20.436 124.594 19.4142V13.4113H126.681Z" fill="#52606D"/>
<path d="M73.5552 20.6915C72.6698 20.6915 72.1638 20.436 72.1638 19.4142V13.4113H73.998V10.9207H72.1638V6.89746H68.2426V10.9207H66.9777V13.4113H68.3691V20.3083C68.3691 23.0543 69.9502 23.8207 72.3536 23.8207H74.1877L74.0612 20.6915H73.5552Z" fill="#52606D"/>
<path d="M84.7484 12.1336C83.61 11.1757 82.0921 10.5371 80.3844 10.5371C76.5264 10.5371 73.9333 13.5386 73.9333 17.3064C73.9333 21.0742 76.3999 24.0757 80.6374 23.8841C82.2818 23.8841 83.4835 23.5009 84.6219 22.7346C85.6338 22.0321 86.3928 20.9465 86.709 19.7331H82.7245C82.345 20.4994 82.2186 21.0103 80.6374 21.0103C79.0563 21.0103 78.0443 19.9886 77.7913 18.2643H86.962C86.962 15.7737 85.8868 13.1554 84.7484 12.1336ZM77.9178 15.9014C77.9178 15.7099 77.9811 15.5183 78.0443 15.3906C78.1708 15.0712 78.2973 14.7519 78.487 14.4965C78.6768 14.2411 78.9298 13.9856 79.1828 13.8579C79.5622 13.6024 80.005 13.4747 80.5109 13.4747C81.7126 13.4747 82.7245 14.4326 82.851 15.9653H77.9178V15.9014Z" fill="#52606D"/>
<path d="M42.7545 5.93994H35.7974H35.7342V23.5656H39.8452V17.6904H43.3237C46.9287 17.6904 49.2688 15.3275 49.2688 11.9429C49.2688 10.1548 48.6364 8.55825 47.5612 7.53647C46.486 6.57855 44.8416 5.93994 42.7545 5.93994ZM42.8177 14.3057L39.8452 14.3696V9.70774H42.8177C44.3989 9.70774 45.2843 10.5379 45.2843 11.9429C45.2843 13.284 44.3989 14.3057 42.8177 14.3057Z" fill="#52606D"/>
<path d="M42.8171 14.369V14.3052L39.8445 14.369H42.8171Z" fill="#52606D"/>
<path d="M15.1794 0.000976562C16.5709 0.0648377 17.9623 0.256421 19.2904 0.703449C27.3227 3.06631 31.8764 11.5598 29.5363 19.6702C28.6508 22.7355 26.9432 25.2261 24.6663 27.1419C28.0816 24.3321 30.2952 20.0534 30.2952 15.2638C30.2952 6.83411 23.5279 0.000976562 15.1794 0.000976562Z" fill="#52606D"/>
<path d="M10.8169 29.8876C10.8169 29.9515 10.7537 29.9515 10.7537 30.0153C15.7501 31.4842 20.9363 30.2708 24.6678 27.1416C22.0747 29.249 18.7859 30.5262 15.1809 30.5262C13.663 30.5262 12.2083 30.3347 10.8169 29.8876Z" fill="#52606D"/>
<path d="M0.0632459 15.2632C0.0632459 6.83358 6.83056 0.000444007 15.179 0.000444007C6.83056 -0.0634171 0 6.76972 0 15.1994C0 21.2662 3.47852 26.6944 8.91767 29.185C3.66826 26.7582 0.0632459 21.4578 0.0632459 15.2632Z" fill="#52606D"/>
<path d="M29.5344 19.6702C31.8745 11.5598 27.3208 3.06631 19.2886 0.703449C17.9604 0.256421 16.569 0.0648377 15.1776 0.000976562C6.82914 0.000976562 0.0618286 6.83411 0.0618286 15.2638C0.0618286 21.4583 3.66685 26.7588 8.91626 29.1855C9.16924 29.3132 9.42222 29.4409 9.67521 29.5048C9.42222 29.3771 9.23249 29.3132 8.9795 29.1855C9.16924 29.2494 9.35898 29.3771 9.67521 29.5048C9.54872 28.2276 9.42222 26.5033 9.67521 25.0984L11.3828 17.4351C11.0666 16.7326 10.8769 15.9662 10.8769 15.1999C10.8769 13.0925 12.1418 11.4321 13.5965 11.4321C15.0511 11.4321 15.4306 12.4539 15.4306 13.5395C15.4306 14.689 14.5451 16.7964 14.1657 18.6484C13.7862 20.5004 14.9246 21.3944 16.3793 21.3944C17.8339 21.3944 21.0595 18.5207 21.0595 14.3697C21.0595 10.2188 18.4664 8.11133 14.7349 8.11133C11.0034 8.11133 8.09406 11.496 8.09406 14.8806C8.09406 16.1578 8.60003 17.6266 9.23249 18.393C9.29573 18.5207 9.35898 18.6484 9.35898 18.7761L8.9795 20.5004C8.85301 20.7558 8.72652 20.8836 8.47353 20.7558C6.6394 19.8618 5.37449 17.1157 5.37449 14.8806C5.37449 10.1549 8.85301 5.62075 15.4306 5.62075C22.0082 5.62075 24.7277 9.38856 24.7277 14.3697C24.7277 19.3509 21.5022 24.0766 17.075 24.0766C15.5571 24.0766 14.1024 23.3103 13.5965 22.3524L12.5845 25.9924C12.205 27.3335 11.3828 28.8662 10.8136 29.888C12.205 30.2711 13.6597 30.5266 15.1776 30.5266C18.7826 30.5266 22.0714 29.2494 24.6645 27.1419C26.9413 25.2261 28.649 22.7355 29.5344 19.6702Z" fill="#52606D"/>
<path d="M9.6741 29.5049C9.42112 29.3771 9.16813 29.2494 8.97839 29.1855C9.23138 29.3133 9.42112 29.3771 9.6741 29.5049Z" fill="#52606D"/>
<path d="M10.8155 29.8877C12.2069 30.3347 13.6616 30.5263 15.1795 30.5263C13.6616 30.5263 12.2069 30.2709 10.8155 29.8877Z" fill="#52606D"/>
</svg>
