<?xml version="1.0" encoding="utf-8"?>
<svg version="1.1" id="Capa_1" x="0px" y="0px" viewBox="-3.378 -19.935 193.229 83.987" style="enable-background:new 0 0 187.1 41.7;" xmlns="http://www.w3.org/2000/svg">
  <style type="text/css">
	.st0{fill-rule:evenodd;clip-rule:evenodd;}
	.st1{fill-rule:evenodd;clip-rule:evenodd;fill:#BA2434;}
</style>
  <g>
    <polygon class="st0" points="108.3,0.4 92.5,40.8 89.9,40.8 105.7,0.4 108.3,0.4 &#9;"/>
    <polygon class="st1" points="0,0.2 40.5,0.2 40.5,41.4 0,41.4 0,0.2 &#9;"/>
    <path class="st0" d="M173.2,26.4l-4.5-14.2l-4.5,14.2H173.2L173.2,26.4z M173.3,1.1l13.8,39.4h-0.5h-9.1l-2.4-7.4h-12.8l-2.3,7.4 h-0.5h-9.1l13.7-39.4h0.5H173.3L173.3,1.1z"/>
    <path class="st0" d="M144.7,19.1v21.4h-0.5h-6.4v-3.7c-1,1.4-2.1,2.5-3.3,3.1c-1.3,0.7-2.5,1.1-3.8,1.4c-0.6,0.1-1.2,0.2-1.9,0.2 c-0.6,0.1-1.2,0.1-1.8,0.1l-0.5,0.1c0,0-0.1-0.1-0.1-0.1c0,0,0,0-0.1,0c-0.7,0-1.9-0.1-3.5-0.2c-1.6-0.1-3.3-0.6-5.1-1.5 c-2.3-1.1-4.5-3.1-6.4-6c-1.9-2.9-2.9-7.3-2.9-13.2c0-6.2,1.6-11.1,4.7-15c3.1-3.8,8-5.7,14.6-5.7h0.5c3.8,0,6.7,0.7,8.9,2.2 c2.1,1.5,3.7,3.1,4.8,4.8c0.9,1.6,1.5,3,1.9,4.4c0.3,1.3,0.5,2.2,0.5,2.5h-0.5h-9c-0.1-1.6-0.6-3-1.7-4.2c-1.1-1.3-2.8-1.9-5.1-2 c-2.8,0-4.9,0.8-6.2,2.3c-1.3,1.5-2.2,3.2-2.7,5c-0.3,1.1-0.5,2.2-0.6,3.3c-0.1,1.1-0.1,1.9-0.1,2.7c0,4.4,0.8,7.6,2.5,9.5 c1.7,1.9,3.5,3.1,5.5,3.4c0.3,0.1,0.5,0.1,0.7,0.1c0.2,0,0.5,0,0.7,0c2.5-0.1,4.5-0.9,5.9-2.4c1.4-1.5,2.2-3.3,2.3-5.4h-7.3v-7.2 h0.5H144.7L144.7,19.1z"/>
    <path class="st0" d="M60.1,18.8h7.4c0,0,0.1,0,0.1,0c0,0,0,0,0.1,0c1.3,0,2.6-0.4,3.7-1.1c1.1-0.7,1.7-2,1.7-3.9 c0-2.1-0.6-3.4-1.7-4.1c-1.1-0.7-2.5-1-4.2-1h-7.1V18.8L60.1,18.8z M51,1.1h0.5h18.8c4.4,0,7.6,1.1,9.4,3.4 c1.8,2.2,2.7,4.9,2.7,7.8c0,2.6-0.5,4.6-1.5,6.1c-1,1.5-2.1,2.5-3.3,3.2c-0.2,0.1-0.5,0.3-0.7,0.3c-0.2,0.1-0.4,0.2-0.6,0.2v0.2 c1.9,0.6,3.3,1.5,3.9,2.9c0.7,1.4,1.1,2.8,1.2,4.3c0,0.4,0.1,0.8,0.1,1.2c0,0.4,0,0.8,0,1.2c0,2.4,0.1,4.1,0.2,5.2 c0.1,1.1,0.4,2,0.9,2.8c0,0.1,0.1,0.2,0.1,0.3c0.1,0.1,0.1,0.2,0.2,0.3h-0.5h-8.8c-0.5-0.8-0.9-1.8-1.1-2.9 c-0.2-1.1-0.3-2.9-0.4-5.5c0-0.2,0-0.4,0-0.6c0-0.2,0-0.4,0-0.6c-0.1-1.2-0.5-2.4-1.2-3.4c-0.7-1-2.3-1.6-4.7-1.6h-6.2v14.5h-0.5 H51V1.1L51,1.1z"/>
  </g>
</svg>