<svg width="39" height="64" viewBox="0 0 39 64" fill="none" xmlns="http://www.w3.org/2000/svg">
<path d="M37.6445 4.51082V59.4537C37.6445 59.8017 37.6031 60.1358 37.5065 60.4559C37.6169 60.1358 37.6859 59.8017 37.6859 59.4398V4.51082C37.6859 4.13497 37.6169 3.77305 37.4927 3.43896C37.5893 3.77305 37.6445 4.13497 37.6445 4.51082Z" fill="#52606D"/>
<path d="M14.7273 5.17927C14.465 5.01223 14.1751 4.92871 13.8438 4.92871C13.5263 4.92871 13.2502 4.99831 12.9879 5.15143C12.7395 5.30455 12.5324 5.51336 12.3805 5.79176C12.2287 6.07016 12.1597 6.39033 12.1597 6.75225C12.1597 7.08633 12.2287 7.39258 12.3667 7.67098C12.5048 7.94938 12.698 8.17211 12.9603 8.32523C13.2226 8.49227 13.5125 8.57579 13.8438 8.57579C14.1613 8.57579 14.4512 8.50619 14.6997 8.35307C14.962 8.19995 15.1552 7.99115 15.3071 7.71274C15.4589 7.43434 15.528 7.11418 15.528 6.75225C15.528 6.41817 15.4589 6.11192 15.3209 5.83352C15.1829 5.55512 14.9758 5.3324 14.7273 5.17927Z" fill="#52606D"/>
<path d="M7.79815 5.16486C7.6187 5.02566 7.35641 4.95605 7.0113 4.95605H6.45912L6.44531 6.65431H6.96988C7.70152 6.65431 8.06044 6.36199 8.06044 5.79126C8.06044 5.51286 7.97761 5.30406 7.79815 5.16486Z" fill="#52606D"/>
<path d="M36.706 4.497C36.706 3.27202 35.6845 2.28369 34.4007 2.28369H4.51394C3.27153 2.28369 2.25 3.27202 2.25 4.497V10.9838H36.706V4.497ZM8.43442 9.41081L7.30245 7.48983C7.21962 7.48983 7.1506 7.50375 7.10919 7.50375C7.05397 7.50375 6.99875 7.50375 6.95734 7.50375H6.44657V9.41081H5.42504V4.07939H7.1506C7.758 4.07939 8.24116 4.23251 8.58627 4.52484C8.93138 4.83108 9.11084 5.23477 9.11084 5.76373C9.11084 6.08389 9.02801 6.3623 8.87616 6.61286C8.72431 6.86342 8.50344 7.07223 8.21355 7.22535L9.63541 9.41081H8.43442ZM16.303 8.13016C16.0683 8.54776 15.737 8.89577 15.3091 9.14633C14.8673 9.39689 14.3842 9.52217 13.8458 9.52217C13.335 9.52217 12.8657 9.41081 12.4515 9.17417C12.0236 8.93753 11.6923 8.61736 11.4438 8.18584C11.1953 7.76823 11.0711 7.28103 11.0711 6.73814C11.0711 6.23702 11.1815 5.77765 11.4162 5.36005C11.6509 4.94244 11.9822 4.60836 12.4101 4.34388C12.8381 4.09331 13.3212 3.96803 13.8596 3.96803C14.3704 3.96803 14.8397 4.07939 15.2677 4.31603C15.6956 4.55268 16.0269 4.87284 16.2754 5.30437C16.5239 5.72197 16.6481 6.20918 16.6481 6.75206C16.6481 7.25319 16.5377 7.71255 16.303 8.13016ZM22.1699 9.41081H18.705V4.07939H19.7679V8.53384H22.1699V9.41081ZM27.7331 9.41081H24.2682V4.07939H25.3311V8.53384H27.7331V9.41081ZM32.8822 9.10457C32.4957 9.38297 31.9987 9.52217 31.3775 9.52217C31.0462 9.52217 30.7149 9.48041 30.3836 9.39689C30.0523 9.31337 29.79 9.20201 29.5967 9.07673L29.7072 8.158C29.928 8.2972 30.1903 8.42248 30.494 8.506C30.7977 8.58952 31.0738 8.63128 31.3499 8.63128C31.6674 8.63128 31.9159 8.5756 32.0953 8.45032C32.2748 8.32504 32.3576 8.158 32.3576 7.9492C32.3576 7.76823 32.2886 7.61511 32.1368 7.50375C31.9849 7.39239 31.7088 7.26711 31.3085 7.14183C30.7287 6.96086 30.3284 6.73814 30.0799 6.48758C29.8314 6.23702 29.7072 5.90293 29.7072 5.48533C29.7072 5.17908 29.7762 4.92852 29.928 4.69188C30.0799 4.46916 30.3008 4.28819 30.5907 4.14899C30.8805 4.02371 31.2119 3.95411 31.5984 3.95411C31.8745 3.95411 32.1506 3.99587 32.4405 4.06547C32.7304 4.13507 32.9788 4.23251 33.1859 4.3578L33.0341 5.24869C32.8408 5.13732 32.6061 5.03988 32.3576 4.97028C32.1091 4.90068 31.8607 4.85892 31.6398 4.85892C31.3361 4.85892 31.1152 4.9146 30.9634 5.02596C30.8115 5.13732 30.7425 5.29045 30.7425 5.48533C30.7425 5.61061 30.7701 5.72197 30.8253 5.79157C30.8805 5.87509 30.9772 5.94469 31.1152 6.01429C31.2533 6.08389 31.4327 6.1535 31.6812 6.23702C32.3162 6.4319 32.758 6.66854 33.0202 6.93302C33.2825 7.19751 33.4206 7.53159 33.4206 7.9492C33.4206 8.4364 33.2411 8.82617 32.8822 9.10457Z" fill="#52606D"/>
<path d="M2.25 59.4541C2.25 60.6791 3.27153 61.6674 4.51394 61.6674H34.4007C35.6845 61.6674 36.706 60.6651 36.706 59.4541V52.9673H2.25V59.4541ZM30.2593 54.6516H33.7657V55.5425H31.2947V56.8232H33.4758V57.7141H31.2947V59.0782H33.8623V59.9691H30.2593V54.6516ZM24.0197 55.9323C24.2544 55.5147 24.5857 55.1806 25.0274 54.944C25.4692 54.7073 25.9661 54.582 26.5321 54.582C26.822 54.582 27.1119 54.6238 27.4156 54.6934C27.7193 54.7769 27.9678 54.8743 28.1887 54.9996L28.0092 55.9044C27.4984 55.6539 27.0153 55.5286 26.5459 55.5286C26.2008 55.5286 25.8971 55.5982 25.621 55.7513C25.3449 55.8905 25.1379 56.0993 24.986 56.3777C24.8342 56.6422 24.7513 56.9624 24.7513 57.3382C24.7513 57.8811 24.917 58.3126 25.2345 58.6328C25.5658 58.953 25.9938 59.12 26.5459 59.12C26.7806 59.12 27.0429 59.0782 27.319 59.0086C27.5951 58.939 27.8436 58.8416 28.092 58.7163L28.2025 59.649C27.9678 59.7882 27.6917 59.8856 27.388 59.9691C27.0981 60.0109 26.7806 60.0527 26.4769 60.0527C25.9247 60.0527 25.4416 59.9413 25.0274 59.7325C24.5995 59.5098 24.2682 59.2035 24.0335 58.7859C23.7988 58.3683 23.6746 57.895 23.6746 57.3382C23.6746 56.8093 23.785 56.3499 24.0197 55.9323ZM18.6912 54.6516L20.0026 56.9206L21.3278 54.6516H22.4736L20.5134 57.7558V59.9691H19.4504V57.7558L17.504 54.6516H18.6912ZM11.0987 55.9323C11.3334 55.5147 11.6647 55.1667 12.0926 54.9161C12.5206 54.6655 13.0037 54.5403 13.5421 54.5403C14.0529 54.5403 14.5222 54.6516 14.9501 54.8883C15.3781 55.1249 15.7094 55.4451 15.9579 55.8766C16.2064 56.2942 16.3306 56.7814 16.3306 57.3243C16.3306 57.8254 16.2202 58.2848 15.9855 58.7024C15.7508 59.12 15.4195 59.468 14.9916 59.7186C14.5498 59.9552 14.0667 60.0944 13.5283 60.0944C13.0175 60.0944 12.5482 59.9831 12.134 59.7464C11.7061 59.5098 11.3748 59.1896 11.1263 58.7581C10.8778 58.3405 10.7536 57.8533 10.7536 57.3104C10.7536 56.8093 10.864 56.3499 11.0987 55.9323ZM5.10753 54.6516H6.8331C7.4405 54.6516 7.92365 54.8048 8.26877 55.111C8.61388 55.4172 8.79334 55.8209 8.79334 56.3499C8.79334 56.6701 8.71051 56.9485 8.55866 57.199C8.40681 57.4496 8.18594 57.6584 7.89604 57.8115L9.31791 59.997H8.11692L6.98495 58.076C6.90212 58.076 6.8331 58.0899 6.79168 58.0899C6.73646 58.0899 6.68125 58.0899 6.63983 58.0899H6.12907V59.997H5.10753V54.6516Z" fill="#52606D"/>
<path d="M12.6454 58.8828C12.8939 59.0499 13.1976 59.1334 13.5289 59.1334C13.8464 59.1334 14.1363 59.0638 14.3848 58.9107C14.647 58.7576 14.8403 58.5488 14.9922 58.2704C15.144 57.992 15.213 57.6718 15.213 57.3099C15.213 56.9758 15.144 56.6695 15.006 56.3911C14.8679 56.1127 14.6608 55.89 14.4124 55.7369C14.1501 55.5699 13.8602 55.4863 13.5289 55.4863C13.2114 55.4863 12.9353 55.5559 12.673 55.7091C12.4245 55.8622 12.2174 56.071 12.0656 56.3494C11.9137 56.6278 11.8447 56.9479 11.8447 57.3099C11.8447 57.644 11.9137 57.9502 12.0518 58.2286C12.1898 58.507 12.3831 58.7297 12.6454 58.8828Z" fill="#52606D"/>
<path d="M7.73012 56.3494C7.73012 56.071 7.63349 55.8622 7.46783 55.723C7.28837 55.5838 7.02609 55.5142 6.68098 55.5142H6.1288L6.11499 57.2124H6.63956C7.3712 57.2124 7.73012 56.9201 7.73012 56.3494Z" fill="#52606D"/>
<path d="M34.3865 0.0981445H4.49978C2.01497 0.0981445 -0.000488281 2.07481 -0.000488281 4.51083V59.4398C-0.000488281 61.8758 2.01497 63.8524 4.49978 63.8524H34.4003C36.8851 63.8524 38.9282 61.8758 38.9144 59.4537V4.51083C38.9144 2.07481 36.8851 0.0981445 34.3865 0.0981445ZM37.6858 59.4398C37.6858 59.8017 37.6168 60.1358 37.5064 60.4559C37.0646 62.0568 35.6013 63.24 33.862 63.24H4.92772C2.85704 63.24 1.17289 61.5417 1.17289 59.4537V4.51083C1.17289 2.42281 2.85704 0.724551 4.92772 0.724551H33.862C35.5875 0.724551 37.037 1.866 37.4925 3.43898C37.6168 3.77307 37.6858 4.13499 37.6858 4.51083V59.4398Z" fill="#52606D"/>
<path d="M2.25 52.0341H36.7198V11.9858H2.25V52.0341ZM17.0346 45.5612C17.0346 46.7445 17.5316 47.524 18.4703 47.8302V48.2478H12.7138V47.8302C13.6249 47.5379 14.0943 46.8001 14.1495 45.5752V45.5612C14.1495 45.4499 14.1495 39.0049 14.1495 33.0192C14.8397 32.9357 16.372 32.7129 17.0346 32.5181V34.787H17.2831C17.6282 34.7731 18.1804 34.7592 18.5117 34.7453C18.6912 35.0654 18.9258 35.5805 19.0639 36.1234C18.5255 36.1512 17.8077 36.1651 17.2693 36.1651H17.0208L17.0346 45.5612ZM28.3129 21.4237C30.1765 22.7044 31.4741 24.9873 31.4465 27.2006C31.4465 30.2073 29.7624 32.7269 26.7116 34.2998C26.6564 34.3277 26.615 34.3416 26.5597 34.3694C26.5045 34.3973 26.4493 34.4251 26.3803 34.453L26.0904 34.5922L26.2974 34.8427C28.2853 37.1535 29.5277 40.4247 30.0937 42.1647C30.3422 42.8886 30.5216 43.6542 30.8529 45.0323L30.922 45.3107C31.3775 47.1342 32.4266 47.691 32.9374 47.8442V48.2339H27.0015V47.8302C27.8298 47.5518 27.954 46.9393 27.9816 46.4939V46.4521C27.9816 46.4243 27.9816 46.3965 27.9816 46.3547V46.2573C27.9816 45.7004 27.8159 44.1692 27.8159 44.1553C27.3742 40.9258 25.9937 37.585 24.2268 35.4274L24.1301 35.3021L23.9783 35.3439C23.9093 35.3578 23.6746 35.4135 23.6056 35.4274C23.4675 35.1072 23.2052 34.5365 22.8877 33.9797C27.8159 32.3232 28.4924 28.9127 28.4924 27.2284C28.4924 25.2796 27.7055 23.6509 26.2974 22.6348C26.187 22.5652 26.0766 22.4956 25.9661 22.426C25.9109 21.9109 25.6486 20.7834 25.2897 20.1291C26.4631 20.3379 27.5122 20.8808 28.3129 21.4237ZM6.04624 15.786H15.599C18.4013 15.786 20.2235 16.3985 21.6867 17.3869C23.5504 18.6675 24.848 20.9504 24.8204 23.1637C24.8204 26.1705 23.1362 28.69 20.0854 30.263C20.0302 30.2908 19.975 30.3187 19.9336 30.3326C19.8784 30.3604 19.8231 30.3883 19.7541 30.4161L19.4642 30.5553L19.6713 30.8059C21.6591 33.1027 22.9015 36.3739 23.4675 38.1279C23.7022 38.8657 23.8955 39.6173 24.2268 40.9954L24.2958 41.2738C24.7513 43.1113 25.7867 43.6542 26.3113 43.8073V44.211L20.3615 44.1971V43.7934C21.176 43.5289 21.314 42.9164 21.3416 42.457V42.4153C21.3416 42.3874 21.3416 42.3457 21.3416 42.3178V42.2204C21.3416 41.6636 21.176 40.1185 21.176 40.1185C20.7342 36.889 19.3538 33.5482 17.5868 31.3905L17.4902 31.2652L17.3383 31.307C15.3229 31.836 12.9899 32.1283 10.6293 32.1283H10.3809L10.3947 41.5244C10.3947 42.7076 10.8916 43.4871 11.8303 43.7934V44.211H6.07385V43.7934C6.98495 43.5011 7.4543 42.7633 7.50952 41.5383V41.5244C7.50952 41.3017 7.50952 18.7789 7.50952 18.5144C7.48191 17.2198 7.01255 16.482 6.04624 16.1897V15.786Z" fill="#52606D"/>
<path d="M10.616 30.7217C20.7486 30.5408 21.8391 25.3903 21.8391 23.177C21.8391 21.2282 21.0661 19.5995 19.6442 18.5834C18.5674 17.8177 17.2146 17.4419 15.42 17.4141H10.3538V30.7217H10.3676H10.616ZM12.6729 19.8083H19.4509C19.6718 20.0311 20.1826 20.6296 20.4449 21.4509H17.0213V28.3135C16.5658 28.5502 15.5304 28.9956 14.1362 29.2184C14.1362 25.5991 14.1362 22.648 14.1362 22.5506C14.1224 21.2699 13.653 20.5183 12.6729 20.212V19.8083Z" fill="#52606D"/>
</svg>
