<?xml version="1.0" encoding="utf-8"?>
<!-- Generator: Adobe Illustrator 28.0.0, SVG Export Plug-In . SVG Version: 6.00 Build 0)  -->
<svg version="1.1" id="Layer_1" xmlns="http://www.w3.org/2000/svg" xmlns:xlink="http://www.w3.org/1999/xlink" x="0px" y="0px"
	 viewBox="0 0 2500 565" style="enable-background:new 0 0 2500 565;" xml:space="preserve">
<g>
	<path d="M17.6,49.4c0-17.8,14.4-32.2,32.2-32.2h248.1c18,0,32.5,14.5,32.5,32.2v467.2c0,17.8-14.5,32.2-32.5,32.2h-248
		c-17.8,0-32.2-14.4-32.2-32.2L17.6,49.4z M346.7,49.4c0-27-21.8-48.8-48.7-48.9c0,0-0.1,0-0.1,0H49.8C22.9,0.5,1,22.3,1,49.3
		c0,0,0,0.1,0,0.1v467.2c0,26.9,21.8,48.8,48.7,48.8c0,0,0.1,0,0.1,0h248.1c27,0,48.8-21.8,48.8-48.8L346.7,49.4"/>
	<path d="M297.9,30.5H49.8C39.5,30.6,31,39,31,49.4v55.1h286V49.4C317,39,308.5,30.5,297.9,30.5z M88.6,91.9
		c-3.3-4.6-5.2-10.7-7.9-15c-1.6-3-3.8-4.4-7.6-4.4h-7.7v8.7c0,4.1,1.4,9.3,3.8,10.7h-18c2.5-1.4,3.8-6.6,3.8-10.7V53.7
		c0-4.4-1.4-9.3-3.8-10.9h25.1c6.3,0,10.4,0,13.6,1.4c5.2,1.9,7.9,6.8,7.9,13.1c0,6.6-3.8,10.9-11.4,12.5c3.5,1.6,5.4,5.2,7.9,9.8
		c2.2,4.6,4.4,9.3,8.8,12.3H88.6z M149.4,87.6c-4.4,3.8-10.1,5.7-16.9,5.7c-6.6,0-12.5-1.9-16.9-5.7c-5.2-4.4-8.7-10.9-8.7-20.2
		c0-9,3.6-15.8,8.7-20.2c4.4-3.6,10.1-5.5,16.9-5.5c6.8,0,12.6,1.9,16.9,5.5c5.2,4.4,8.7,11.2,8.7,20.2
		C158.2,76.6,154.6,83.2,149.4,87.6z M201.8,91.9H165c2.4-1.6,3.8-6.3,3.8-10.7V53.7c0-4.1-1.4-9.3-3.8-10.9h17.7
		c-2.2,1.6-3.5,6.8-3.5,10.9V84h9.5c6.3,0,12-1.1,14.8-4.6L201.8,91.9z M246.1,92.2h-36.6c2.4-1.6,3.8-6.5,3.8-10.9V53.7
		c0-4.1-1.4-9.3-3.8-10.9h17.7c-2.5,1.6-3.8,6.8-3.8,10.9V84h9.8c6.3,0.3,12-1.1,14.8-4.6L246.1,92.2z M275,92.7
		c-6,0-13.6-1.1-18.3-3.5V77.5l0,0h0v0c1.1,1.6,3.5,3.5,5.2,4.4c4,2.2,8.5,3.3,13.1,3.3c6.8,0,10.9-3,10.9-7.4c0-5.2-5.2-6-13.1-7.1
		c-10.1-1.4-15.6-6-15.6-14.2c0.3-8.2,7.9-14.5,19.1-14.5c7.6,0,12.8,1.6,16.1,3.3v10.6c-1.1-1.9-3.5-3.3-6-4.4
		c-3.2-1.1-6.7-1.6-10.1-1.6c-5.5,0-8.7,2.2-8.7,4.9c0,4.6,4.4,5.2,13.9,7.1c9.6,1.9,15.3,6,15,14.5C296.3,86.2,288.6,92.7,275,92.7
		z"/>
	<path d="M31,117.9V448h286V117.9H31z M170.2,427.8h-63.9c6.3-4.1,16.7-10.1,16.7-32.5v-101c10.3-1,20.5-2.7,30.6-4.9v15.3
		c4.4-0.3,8.7-0.3,12.8-0.8c3,5.5,5.5,11.2,7.9,16.9c-6.9,0.5-13.8,0.9-20.7,1.1v73.4C153.5,417.8,164.2,423.8,170.2,427.8z
		 M238.4,394.5C238.4,394.5,238.4,394.5,238.4,394.5l-56.5,0c4.9-4.9,12-15.6,9.3-36.3c-3.8-27.5-15.8-57.6-31.9-77
		c-17.7,4.6-38.7,7.4-61.1,7.4v73.4c0,22.7,10.6,28.4,16.6,32.5H50.9c6.3-4.1,16.6-9.8,16.6-32.5V172.7c0-22.4-10.4-28.4-16.6-32.5
		h92c24.3,0,43.4,3.8,57.6,13.4c18,12.3,28.1,32.7,27.8,52.7c0,28.4-16.7,51.6-43.9,65.5c-1.1,0.6-1.9,0.8-3,1.4
		c24,27.5,36,66.3,42,93.9C226.4,382,232.9,389.6,238.4,394.5L238.4,394.5L238.4,394.5z M302,427.6C302,427.6,302,427.6,302,427.6
		l-56.5,0c4.9-4.9,12.3-15.3,9.3-36c-4.1-28.7-17.7-59.5-34.6-79.1c-1.9,0.5-3.8,1.1-5.7,1.6c-2.5-5.7-5.5-11.7-8.5-17.5
		c36.3-12.3,46.7-36.3,46.7-56.8c0-16.1-6-29.5-17.2-38.2c-0.6-8.7-3-17.5-6.8-25.7c10.6,2.2,19.7,5.8,27.3,10.7
		c18,12.3,28.1,33,27.8,52.7c0,27.6-15.8,49.9-41.8,64.1c26.5,29.5,39,69,45,96.6C290.2,415,296.8,422.7,302,427.6L302,427.6
		L302,427.6z"/>
	<path d="M87.2,57.8c0,4.9-4.1,6.8-10.3,6.8H65.4V50.7h11.5C83.1,50.7,87.2,52.6,87.2,57.8"/>
	<path d="M122.2,80.5c-3-2.7-4.4-7.1-4.4-13.1c0-5.7,1.4-10.1,4.4-13.1c2.4-2.4,6-4.1,10.4-4.1c4.4,0,7.9,1.6,10.4,4.1
		c3,3,4.6,7.4,4.6,13.1c0,6-1.6,10.3-4.6,13.1c-2.5,2.4-6,4.1-10.4,4.1C128.2,84.6,124.6,82.9,122.2,80.5z"/>
	<g>
		<path d="M31,461.4v55.1c0,10.4,8.4,18.8,18.8,18.8h248.1c10.6,0,19.1-8.5,19.1-18.8v-55.1H31z M87,521.7c-3-4.3-4.9-10.1-7.4-14.2
			c-1.6-2.7-3.8-4.3-7.6-4.3h-7.1v8.5c0,3.8,1.4,8.7,3.5,10.4H51.5c2.2-1.6,3.5-6.5,3.5-10.4v-26.2c0-4.4-1.4-9-3.5-10.4h23.8
			c6,0,10.1,0,13.1,1.1c4.9,1.9,7.6,6.5,7.6,12.8c-0.3,6-3.8,10.4-10.9,11.7c3.3,1.4,5.2,4.9,7.4,9.3c2.2,4.6,4.1,8.7,8.5,12
			L87,521.7z M144.8,517.6c-4.1,3.6-9.6,5.5-16.1,5.5c-6.3,0-11.7-1.9-15.8-5.5c-4.9-4.1-8.5-10.3-8.5-19.1c0-8.7,3.5-15,8.5-19.4
			c4.1-3.3,9.5-5.2,15.8-5.2c6.5,0,12,1.9,16.1,5.2c4.9,4.4,8.5,10.7,8.5,19.4C153.3,507.3,149.7,513.5,144.8,517.6z M198.3,484.3
			L184.4,504v7.6c0,3.8,1.4,8.7,3.5,10.1H171c2.2-1.3,3.5-6.3,3.5-10.1V504l-15.3-21.6c-2.5-3.5-4.1-6-7.4-7.4h18.8
			c-1.1,0.6-1.4,1.4-1.6,2.2c-0.3,1.4,0.8,3,1.9,4.6l9.3,13.6l9.3-13.4c1.1-1.6,1.6-3.3,1.6-4.4c0.3-1.1-0.3-1.9-1.4-2.7h0l0,0
			c0,0,0,0,0,0h16.9C203.5,476.7,200.5,481.6,198.3,484.3z M245.2,520.4c-2.4,1.1-6.8,2.5-13.9,2.5c-15.3,0-25.9-9-25.9-24.3
			c0-8.2,3.3-14.5,8.2-18.6c4.4-3.8,10.4-6,17.7-6c7.1,0,11.5,1.4,13.9,2.7v10.1c-3-3.3-7.4-4.9-14.2-4.9c-9.5,0-15,7.1-15,16.7v0
			c0,9.3,5.5,16.4,15,16.4c6.8,0,13.1-1.9,15.8-5.2L245.2,520.4z M292.7,522H255c2.2-1.6,3.6-6.3,3.6-10.4v-26.2
			c0-3.8-1.4-8.7-3.6-10.4h37.4v10.4c-2.4-2.5-7.4-2.7-13.4-2.7h-10.6v11.7h19.1l-1.1,7.1h-18v12.8h12c6,0,11.2-0.3,13.9-3.8
			L292.7,522z"/>
		<path d="M129,482.2c-4.4,0-7.7,1.4-10.1,3.8c-2.7,2.7-4.1,6.8-4.1,12.5c0,5.7,1.4,9.8,4.1,12.3c2.4,2.5,5.7,4.1,10.1,4.1
			c3.7,0,7.3-1.4,9.8-4.1c2.7-2.5,4.1-6.5,4.1-12.3c0-5.7-1.4-9.8-4.1-12.5C136.4,483.5,133.1,482.2,129,482.2z"/>
		<path d="M75.8,482.7H64.9v13.1h10.9c6,0,9.8-1.9,9.8-6.6C85.6,484.3,81.8,482.7,75.8,482.7z"/>
	</g>
	<g>
		<path d="M974.1,428.4h47.5V129h-49.9v299.4H974.1 M1073.4,428.4h47.5V129H1071v299.4H1073.4 M1868.1,519.5
			c30.8,5.2,58.4-7.4,76.7-24.6c25.6-24.3,42-55.9,69.3-129.9l52.4-139.7l1.1-3h-50.2l-0.5,1.4l-47.2,138.6l-50.2-138.6l-0.6-1.4
			H1864l1.1,3l78.3,196.2c-6.3,17.5-16.4,32.2-26.2,42c-12.6,12-30,17.4-49.1,14.2V519.5"/>
		<path d="M1761.6,217.2c-61.7,0-104,44.5-104,108.1c0,64.7,41.8,108.3,104,108.3c62.2,0,103.7-43.7,103.7-108.3
			C1865.3,261.7,1823,217.2,1761.6,217.2z M1761.4,393.5c-31.1,0-54.3-27-54.3-68.5c0-41.5,23.2-68.5,54.3-68.5
			c31.6,0,54.6,27,54.6,68.5C1815.9,366.4,1792.7,393.5,1761.4,393.5 M835.2,216.6c-63.3,0-104,43.7-104,108.1
			c0,64.7,40.6,108.3,104,108.3c63.3,0,103.7-43.7,103.7-108.3C938.9,260.3,898.5,216.6,835.2,216.6L835.2,216.6z M834.9,392.9
			c-31.1,0-54.3-27.3-54.3-68.5c0-41.5,23.2-68.5,54.3-68.5c31.7,0,54.6,27,54.6,68.5C889.5,365.6,866.3,392.9,834.9,392.9
			 M1313.8,271.8h98v37.7h-98V271.8z M697.4,342.4c10.4,32.7,15.8,65.5,19.7,85.1l-53.2,0.3c-3-16.9-6-40.4-15.3-68.8
			c-10.6-33.8-24-49.4-55.7-49.4h-24.3v117.9h-50.2V140.8c10.6,0,23.2-0.8,36.6-0.8h40.4c40.7,0,67.4,8.5,86,24.6
			c15.5,13.4,24,33.6,24,56.8c0,37.9-22.1,59.8-46.7,69.3C676.7,299,688.1,313.8,697.4,342.4L697.4,342.4z M600.5,181.2h-16.6
			c-7.1,0-11.8,0.6-15.3,0.6v90h29.2c34.4,0,57.8-17.7,57.8-45.8C655.6,196.7,636.5,181.4,600.5,181.2 M1626.3,342.4
			c10.4,32.7,15.8,65.5,19.6,85.1l-53.2,0.3c-3-16.9-6-40.4-15.3-68.8c-10.7-33.8-24-49.4-55.7-49.4h-24.3v117.9h-50.2V140.8
			c10.6,0,23.2-0.8,36.6-0.8h40.4c40.7,0,67.4,8.5,86,24.6c15.6,13.4,24,33.6,24,56.8c0,37.9-22.1,59.8-46.7,69.3
			C1605.6,299,1617,313.8,1626.3,342.4z M1529.4,181.2h-16.6c-7.1,0-11.7,0.6-15.3,0.6v90h29.2c34.4,0,57.8-17.7,57.8-45.8
			C1584.5,196.7,1565.4,181.4,1529.4,181.2 M1165.7,381.5c11.5,7.1,32.5,13.9,50.8,13.9c24.6,0,34.4-7.9,34.4-22.9
			c0-15.3-7.9-21.8-34.1-31.4c-38.5-13.7-55.4-36.3-55.4-60.3c0-34.6,28.7-63.3,74.8-63.3c21.8,0,40.9,6.5,52.7,13.4l-9.8,33.3
			c-11.2-5.2-24.3-9.8-42.8-9.6c-19.1,0.3-26.7,9-26.7,21.3c0,14.2,14.5,22.4,33,28.7c36.8,12.3,56.5,33,56.5,64.1
			c-0.3,36.8-31.1,63.8-83,63.8c-23.5,0-45.8-4.9-60-15.5L1165.7,381.5 M2228,420.8c-10.4,4.9-31.9,11.2-58.1,11.2
			c-59.8-0.5-104.2-41.5-104.2-104.8c0-61.7,40.1-109.4,112.2-109.4c20.4,0,39.6,5.5,50.7,10.6l-8.7,36.3
			c-8.7-4.4-21.6-7.1-40.9-7.1c-42.3,0-62.2,27.8-61.9,67.4c0,44.2,24.3,68.8,61.7,68.8c19.1,0,32.5-4.4,42.6-8.7L2228,420.8
			 M2287.2,336.7c1.4,42.3,26.7,57.3,61.7,57.3c24.8,0,41.8-4.1,56.5-9.8l7.4,34.4c-22.2,9.6-46.2,14.5-70.4,14.5
			c-65,0-103.7-42.8-103.7-105.1c0-58.4,35.2-110,98.8-110c66.6,0,86.8,56.2,86.8,97.9c0,9,0,15.8-1.1,20.5L2287.2,336.7
			L2287.2,336.7z M2377.5,301.5c0.3-20.5-5.8-48-43.1-48c-34.4,0-44.5,25.4-46.9,48H2377.5"/>
		<path d="M2442.6,216.1c0-15.2,11.4-26.6,26.1-26.6c14.5,0,25.9,11.4,25.9,26.6c0,15.4-11.4,26.8-25.9,26.8
			C2454,242.9,2442.6,231.5,2442.6,216.1L2442.6,216.1z M2468.7,248.2c17.4,0,32.3-13.6,32.3-32.1c0-18.4-14.9-31.9-32.3-31.9
			c-17.6,0-32.5,13.5-32.5,31.9C2436.2,234.6,2451.1,248.2,2468.7,248.2z M2461.9,218.6h6.4l9.7,16h6.3l-10.5-16.3
			c5.4-0.7,9.6-3.6,9.6-10.2c0-7.3-4.3-10.5-13-10.5h-14v36.9h5.6L2461.9,218.6L2461.9,218.6z M2461.9,213.9v-11.4h7.6
			c3.9,0,8,0.8,8,5.4c0,5.7-4.2,6-9,6H2461.9z"/>
	</g>
	<path d="M178.4,167.3c-9.3-6.6-21-9.8-36.8-10.1H98.1v114.6c79.7-1.4,99.1-37.1,99.1-65.2C197.2,189.9,190.6,176,178.4,167.3z
		 M153.5,190.7v64.7c-8.7,3.6-19.1,6-30.6,7.7v-57c0-22.6-10.4-28.4-16.7-32.5h68.8c6,4.3,10.4,10.3,12.8,17.2H153.5z"/>
</g>
</svg>
