<svg width="89" height="63" viewBox="0 0 89 63" fill="none" xmlns="http://www.w3.org/2000/svg">
<path fill-rule="evenodd" clip-rule="evenodd" d="M36.6207 6.9276C39.4726 3.96799 43.4263 2.11418 47.8013 2.11418C53.6347 2.11418 58.6903 5.36649 61.4125 10.2124C63.8431 9.13917 66.4357 8.55375 69.0931 8.58627C79.5932 8.58627 88.1164 17.2049 88.1164 27.84C88.1164 38.475 79.5932 47.0936 69.0931 47.0936C67.7968 47.0936 66.5653 46.9635 65.3338 46.7359C62.9357 50.9964 58.3986 53.891 53.2134 53.891C51.1069 53.891 49.0328 53.4031 47.1207 52.4925C44.7226 58.184 39.0837 62.1844 32.5373 62.1844C25.6993 62.1844 19.8984 57.8588 17.6623 51.777C16.6576 51.9721 15.653 52.1022 14.6483 52.1022C6.51404 52.1022 -0.0646973 45.4024 -0.0646973 37.1741C-0.0646973 31.6452 2.88439 26.8317 7.29183 24.2299C6.35201 22.0834 5.86589 19.7417 5.86589 17.4C5.86589 7.87077 13.5465 0.195312 23.0095 0.195312C28.5512 0.195312 33.5096 2.82968 36.6207 6.9276Z" fill="#52606D"/>
<path fill-rule="evenodd" clip-rule="evenodd" d="M12.7686 32.2954C12.7038 32.4255 12.801 32.458 12.801 32.4906C12.9631 32.6207 13.1251 32.6857 13.2871 32.7833C14.1946 33.2711 15.0371 33.4012 15.9122 33.4012C17.727 33.4012 18.8288 32.4255 18.8288 30.8644V30.8319C18.8288 29.4009 17.5649 28.8805 16.3659 28.4902L16.2038 28.4252C15.2964 28.1325 14.5186 27.8723 14.5186 27.2869V27.3194C14.5186 26.799 14.9723 26.4413 15.6853 26.4413C16.4631 26.4413 17.4029 26.7015 17.9862 27.0267C17.9862 27.0267 18.1483 27.1243 18.2131 26.9616C18.2455 26.8641 18.5372 26.051 18.5696 25.9534C18.602 25.8559 18.5372 25.7908 18.4724 25.7583C17.7918 25.3355 16.852 25.0428 15.8797 25.0428H15.6853C14.0325 25.0428 12.8658 26.051 12.8658 27.482V27.5145C12.8658 29.0431 14.1297 29.531 15.3288 29.8562L15.5233 29.9212C16.3983 30.1814 17.1436 30.4091 17.1436 31.027V31.0596C17.1436 31.6124 16.6575 32.0352 15.8797 32.0352C15.5881 32.0352 14.6158 32.0352 13.5464 31.3523C13.4168 31.2872 13.352 31.2222 13.2547 31.1571C13.1899 31.1246 13.0603 31.0596 13.0279 31.2547L12.7686 32.2954ZM39.2456 32.2954C39.1808 32.4255 39.278 32.458 39.278 32.4906C39.4401 32.6207 39.6021 32.6857 39.7965 32.7833C40.704 33.2711 41.5466 33.4012 42.4216 33.4012C44.2364 33.4012 45.3707 32.4255 45.3707 30.8644V30.8319C45.3707 29.4009 44.1068 28.8805 42.9077 28.4902L42.7456 28.4252C41.8382 28.1325 41.0604 27.8723 41.0604 27.2869V27.3194C41.0604 26.799 41.5141 26.4413 42.2271 26.4413C43.0049 26.4413 43.9123 26.7015 44.5281 27.0267C44.5281 27.0267 44.6901 27.1243 44.7549 26.9616C44.7873 26.8641 45.079 26.051 45.1114 25.9534C45.1438 25.8559 45.079 25.7908 45.0142 25.7583C44.3336 25.3355 43.3938 25.0428 42.4216 25.0428H42.2271C40.5743 25.0428 39.4077 26.051 39.4077 27.482V27.5145C39.4077 29.0431 40.6715 29.531 41.8706 29.8562L42.0651 29.9212C42.9401 30.1814 43.6855 30.4091 43.6855 31.027V31.0596C43.6855 31.6124 43.1993 32.0352 42.4216 32.0352C42.1299 32.0352 41.1577 32.0352 40.0882 31.3523C39.9586 31.2872 39.8938 31.2222 39.7965 31.1571C39.7641 31.1246 39.6021 31.0921 39.5697 31.2547L39.2456 32.2954ZM57.329 29.2383C57.329 30.1164 57.167 30.7994 56.8429 31.2872C56.5189 31.7751 56.0327 32.0027 55.3846 32.0027C54.7364 32.0027 54.2179 31.7751 53.9263 31.2872C53.6022 30.7994 53.4401 30.1164 53.4401 29.2383C53.4401 28.3601 53.6022 27.6771 53.9263 27.1893C54.2503 26.7015 54.704 26.4738 55.3846 26.4738C56.0652 26.4738 56.5513 26.7015 56.8429 27.1893C57.167 27.6771 57.329 28.3601 57.329 29.2383ZM58.8198 27.6121C58.6578 27.0917 58.4309 26.6689 58.1392 26.2787C57.8152 25.9209 57.4587 25.5957 56.9726 25.4005C56.5189 25.1729 55.9679 25.0753 55.3522 25.0753C54.7364 25.0753 54.1855 25.1729 53.7318 25.4005C53.2781 25.6282 52.8892 25.9209 52.5651 26.2787C52.2735 26.6364 52.0142 27.0917 51.8846 27.6121C51.7225 28.0999 51.6577 28.6528 51.6577 29.2383C51.6577 29.8237 51.7225 30.3766 51.8846 30.8644C52.0466 31.3848 52.2735 31.8076 52.5651 32.1979C52.8892 32.5556 53.2781 32.8808 53.7318 33.076C54.1855 33.2711 54.7364 33.4012 55.3522 33.4012C55.9679 33.4012 56.5189 33.3036 56.9726 33.076C57.4263 32.8808 57.8152 32.5556 58.1392 32.1979C58.4309 31.8401 58.6902 31.3848 58.8198 30.8644C58.9818 30.3766 59.0467 29.8237 59.0467 29.2383C59.0467 28.6854 58.9818 28.1325 58.8198 27.6121ZM71.2319 31.7751C71.1671 31.6124 71.0375 31.6775 71.0375 31.6775C70.8106 31.7751 70.5838 31.8401 70.3245 31.8726C70.0652 31.9052 69.806 31.9377 69.4819 31.9377C68.7689 31.9377 68.1532 31.71 67.7643 31.2872C67.343 30.8644 67.1161 30.1489 67.1161 29.2057C67.1161 28.3601 67.3106 27.7097 67.6995 27.2218C68.056 26.734 68.6393 26.4738 69.3847 26.4738C70.0004 26.4738 70.4865 26.5388 70.9726 26.7015C70.9726 26.7015 71.1023 26.7665 71.1347 26.6039C71.2643 26.2461 71.3615 25.9859 71.4912 25.5631C71.5236 25.4331 71.4264 25.4005 71.3939 25.4005C71.1995 25.3355 70.7458 25.2054 70.3893 25.1403C70.0652 25.0753 69.6763 25.0753 69.255 25.0753C68.6069 25.0753 68.056 25.1729 67.5698 25.4005C67.0837 25.6282 66.6624 25.9209 66.3384 26.2787C66.0143 26.6364 65.755 27.0917 65.593 27.6121C65.4309 28.0999 65.3337 28.6528 65.3337 29.2383C65.3337 30.5067 65.6578 31.5149 66.3384 32.2629C67.0189 33.0109 68.0236 33.4012 69.3199 33.4012C70.0976 33.4012 70.8754 33.2386 71.4588 33.0109C71.4588 33.0109 71.556 32.9459 71.5236 32.8158L71.2319 31.7751ZM73.8893 28.3927C73.9541 27.9048 74.0838 27.482 74.3106 27.1893C74.6347 26.7015 75.0884 26.4413 75.769 26.4413C76.4495 26.4413 76.8708 26.7015 77.1949 27.1893C77.3893 27.5145 77.4866 27.9373 77.519 28.3927H73.8893ZM78.9773 27.3194C78.8477 26.8315 78.5236 26.3437 78.3292 26.116C78.0051 25.7583 77.681 25.4981 77.3569 25.368C76.9032 25.1729 76.3847 25.0753 75.8986 25.0753C75.2504 25.0753 74.6671 25.1729 74.2134 25.4005C73.7597 25.6282 73.3384 25.9209 73.0467 26.3112C72.7227 26.7015 72.4958 27.1243 72.3662 27.6446C72.2041 28.165 72.1393 28.6854 72.1393 29.2708C72.1393 29.8562 72.2041 30.4091 72.3662 30.8969C72.5282 31.3848 72.7551 31.8401 73.1115 32.1979C73.4356 32.5556 73.8893 32.8483 74.4079 33.0435C74.9264 33.2386 75.5421 33.3362 76.2551 33.3362C77.7458 33.3362 78.5236 33.0109 78.8153 32.8158C78.8801 32.7833 78.9125 32.7182 78.8477 32.5556L78.5236 31.6124C78.4588 31.4824 78.3292 31.5149 78.3292 31.5149C77.9727 31.645 77.4542 31.9052 76.2227 31.9052C75.4449 31.9052 74.8291 31.6775 74.4727 31.2872C74.0838 30.8969 73.9217 30.3766 73.8893 29.596H79.0097C79.0097 29.596 79.1394 29.596 79.1718 29.4659C79.1394 29.4659 79.3014 28.4902 78.9773 27.3194ZM32.9585 28.3927C33.0234 27.9048 33.153 27.482 33.3798 27.1893C33.7039 26.7015 34.1576 26.4413 34.8382 26.4413C35.5187 26.4413 35.94 26.7015 36.2641 27.1893C36.4586 27.5145 36.5558 27.9373 36.5882 28.3927H32.9585ZM38.0465 27.3194C37.9169 26.8315 37.5928 26.3437 37.3984 26.116C37.0743 25.7583 36.7502 25.4981 36.4262 25.368C35.9725 25.1729 35.4539 25.0753 34.9678 25.0753C34.3197 25.0753 33.7363 25.1729 33.2826 25.4005C32.8289 25.6282 32.4076 25.9209 32.1159 26.3112C31.7919 26.7015 31.565 27.1243 31.4354 27.6446C31.2733 28.165 31.2085 28.6854 31.2085 29.2708C31.2085 29.8562 31.2733 30.4091 31.4354 30.8969C31.5974 31.3848 31.8243 31.8401 32.1808 32.1979C32.5048 32.5556 32.9585 32.8483 33.4771 33.0435C33.9956 33.2386 34.6113 33.3362 35.3243 33.3362C36.815 33.3362 37.5928 33.0109 37.8845 32.8158C37.9493 32.7833 37.9817 32.7182 37.9169 32.5556L37.5928 31.6124C37.528 31.4824 37.3984 31.5149 37.3984 31.5149C37.0419 31.645 36.5234 31.9052 35.2919 31.9052C34.5141 31.9052 33.8984 31.6775 33.5419 31.2872C33.153 30.8969 32.991 30.3766 32.9585 29.596H38.0789C38.0789 29.596 38.2086 29.596 38.241 29.4659C38.2086 29.4659 38.3706 28.4902 38.0465 27.3194ZM21.9076 31.7425C21.7131 31.5799 21.6807 31.5474 21.6159 31.4498C21.5187 31.2872 21.4539 31.0596 21.4539 30.7668C21.4539 30.3115 21.6159 29.9863 21.9076 29.7586C21.9076 29.7586 22.3613 29.3684 23.3983 29.4009C23.852 29.4009 24.3381 29.4334 24.7918 29.531V31.8726C24.7918 31.8726 24.1437 32.0027 23.3983 32.0678C22.3613 32.1003 21.9076 31.7425 21.9076 31.7425ZM23.9492 28.1325C23.7548 28.1325 23.4631 28.0999 23.139 28.0999C22.7177 28.0999 22.264 28.165 21.8751 28.2626C21.4863 28.3601 21.1298 28.5227 20.8057 28.7504C20.4816 28.9781 20.2548 29.2708 20.0603 29.596C19.8659 29.9212 19.8011 30.344 19.8011 30.7668C19.8011 31.2222 19.8659 31.6124 20.0279 31.9377C20.19 32.2629 20.4168 32.5231 20.7085 32.7508C21.0001 32.9459 21.3566 33.1085 21.7455 33.2061C22.1344 33.3036 22.5881 33.3362 23.1066 33.3362C23.6252 33.3362 24.1437 33.3036 24.6622 33.2061C25.0835 33.141 25.5372 33.0435 25.9585 32.9459C26.1205 32.9134 26.315 32.8483 26.315 32.8483C26.4446 32.8158 26.4446 32.6857 26.4446 32.6857V28.0024C26.4446 26.9616 26.1854 26.2136 25.6344 25.7258C25.0835 25.2704 24.3057 25.0103 23.3011 25.0103C22.9122 25.0103 22.2964 25.0753 21.94 25.1403C21.94 25.1403 20.8381 25.368 20.352 25.7258C20.352 25.7258 20.2548 25.7908 20.3196 25.9209L20.6761 26.8966C20.7085 27.0267 20.8381 26.9942 20.8381 26.9942C20.8381 26.9942 20.8705 26.9942 20.9353 26.9616C21.9076 26.4087 23.1715 26.4413 23.1715 26.4413C23.7224 26.4413 24.1437 26.5388 24.4353 26.7665C24.727 26.9942 24.8566 27.3194 24.8566 28.0024V28.23C24.3381 28.1975 23.9492 28.165 23.9492 28.1325ZM65.1069 25.4981C65.1393 25.4331 65.1069 25.3355 65.0421 25.303C64.9448 25.2704 64.5235 25.1729 64.1995 25.1729C63.5513 25.1403 63.1948 25.2379 62.8707 25.4005C62.5467 25.5306 62.1902 25.7908 61.9957 26.051V25.4331C61.9957 25.3355 61.9309 25.2704 61.8337 25.2704H60.5374C60.4402 25.2704 60.3754 25.3355 60.3754 25.4331V33.076C60.3754 33.1736 60.4402 33.2386 60.5374 33.2386H61.8661C61.9633 33.2386 62.0281 33.1736 62.0281 33.076V29.2057C62.0281 28.6854 62.093 28.165 62.1902 27.8723C62.2874 27.5471 62.4495 27.2869 62.6439 27.1243C62.8059 26.9616 63.0328 26.8315 63.2596 26.734C63.4865 26.6689 63.7133 26.6364 63.9402 26.6364C64.1995 26.6364 64.4911 26.7015 64.4911 26.7015C64.5883 26.7015 64.6532 26.6364 64.6856 26.5714C64.8152 26.3112 65.0421 25.6282 65.1069 25.4981Z" fill="#FFFFFE"/>
<path fill-rule="evenodd" clip-rule="evenodd" d="M52.5653 21.9534C52.4032 21.8884 52.2412 21.8559 52.0467 21.8233C51.8199 21.7908 51.593 21.7583 51.3662 21.7583C50.4264 21.7583 49.7134 22.0185 49.1949 22.5389C48.6763 23.0592 48.3523 23.8398 48.1578 24.8805L48.093 25.2383H46.9263C46.9263 25.2383 46.7967 25.2383 46.7643 25.4009L46.5699 26.4742C46.5699 26.5717 46.6023 26.6368 46.7319 26.6368H47.8662L46.7319 33.0438C46.6347 33.5642 46.5374 33.987 46.4402 34.3122C46.343 34.6375 46.2134 34.8651 46.0837 35.0277C45.9541 35.1903 45.8245 35.3204 45.63 35.3855C45.468 35.4505 45.2411 35.4831 45.0143 35.4831C44.8847 35.4831 44.7226 35.4505 44.593 35.4505C44.4634 35.418 44.3985 35.3855 44.3013 35.353C44.3013 35.353 44.1717 35.2879 44.1069 35.4505C44.0745 35.5481 43.7504 36.3937 43.718 36.4913C43.6856 36.5888 43.718 36.6864 43.7828 36.6864C43.9448 36.7515 44.0421 36.784 44.2365 36.8165C44.5282 36.8815 44.755 36.8815 44.9819 36.8815C45.468 36.8815 45.8893 36.8165 46.2458 36.6864C46.6023 36.5563 46.9263 36.3287 47.1856 36.0359C47.4773 35.7107 47.6717 35.353 47.8662 34.8976C48.0282 34.4423 48.1902 33.8569 48.3199 33.1739L49.4865 26.6368H51.1717C51.1717 26.6368 51.3014 26.6368 51.3338 26.4742L51.5282 25.4009C51.5282 25.3033 51.4958 25.2383 51.3662 25.2383H49.7458C49.7458 25.2057 49.843 24.6203 50.0051 24.0674C50.0699 23.8398 50.2319 23.6446 50.3615 23.5145C50.4912 23.3845 50.6208 23.2869 50.7828 23.2544C50.9449 23.1893 51.1393 23.1568 51.3338 23.1893C51.4958 23.1893 51.6254 23.2218 51.7551 23.2218C51.9171 23.2544 51.9819 23.2869 52.0143 23.2869C52.1764 23.3519 52.2088 23.2869 52.2412 23.2218L52.6301 22.1486C52.6949 22.0185 52.5977 21.986 52.5653 21.9534ZM29.7179 33.0763C29.7179 33.1739 29.6531 33.239 29.5559 33.239H28.1948C28.0975 33.239 28.0327 33.1739 28.0327 33.0763V22.1161C28.0327 22.0185 28.0975 21.9534 28.1948 21.9534H29.5559C29.6531 21.9534 29.7179 22.0185 29.7179 22.1161V33.0763Z" fill="#FFFFFE"/>
</svg>
