<svg width="48" height="48" viewBox="0 0 48 48" fill="none" xmlns="http://www.w3.org/2000/svg">
<rect x="0.388062" y="0.5" width="47" height="47" rx="23.5" fill="#F66135"/>
<mask id="mask0_1108_22254" style="mask-type:alpha" maskUnits="userSpaceOnUse" x="12" y="12" width="24" height="24">
<rect x="12.3881" y="12.5" width="23" height="23" fill="#D9D9D9"/>
</mask>
<g mask="url(#mask0_1108_22254)">
<path d="M18.8088 30.9959C18.6331 30.8202 18.5453 30.5966 18.5453 30.325C18.5453 30.0535 18.6331 29.8299 18.8088 29.6542L22.9297 25.5334V19.0886L21.1328 20.8854C20.9571 21.0611 20.7376 21.149 20.4744 21.149C20.2106 21.149 19.9828 21.0532 19.7911 20.8615C19.5995 20.6698 19.5036 20.4421 19.5036 20.1782C19.5036 19.915 19.5995 19.6875 19.7911 19.4959L23.2172 16.0698C23.313 15.974 23.4168 15.9059 23.5286 15.8657C23.6404 15.8261 23.7602 15.8063 23.888 15.8063C24.0158 15.8063 24.1356 15.8261 24.2474 15.8657C24.3592 15.9059 24.463 15.974 24.5588 16.0698L28.0328 19.5438C28.2085 19.7195 28.3005 19.9389 28.3088 20.2021C28.3165 20.466 28.2245 20.6938 28.0328 20.8854C27.8411 21.0771 27.6137 21.1729 27.3505 21.1729C27.0866 21.1729 26.8588 21.0771 26.6672 20.8854L24.8463 19.0886V26.3L20.1265 31.0198C19.9508 31.1955 19.7352 31.2834 19.4797 31.2834C19.2241 31.2834 19.0005 31.1875 18.8088 30.9959ZM27.6255 31.0198L25.2297 28.6479L26.5953 27.2823L28.9911 29.7021C29.1668 29.8778 29.2547 30.0934 29.2547 30.349C29.2547 30.6045 29.1588 30.8282 28.9672 31.0198C28.7915 31.1955 28.572 31.2834 28.3088 31.2834C28.0449 31.2834 27.8172 31.1955 27.6255 31.0198Z" fill="white"/>
</g>
</svg>
