<?xml version="1.0" encoding="utf-8"?>
<!-- Generator: Adobe Illustrator 19.2.0, SVG Export Plug-In . SVG Version: 6.00 Build 0)  -->
<svg version="1.1" id="Capa_1" xmlns="http://www.w3.org/2000/svg" xmlns:xlink="http://www.w3.org/1999/xlink" x="0px" y="0px"
	 viewBox="0 0 777.03 169.565" style="enable-background:new 0 0 777.03 169.565;" xml:space="preserve">
<style type="text/css">
	.st0{fill:#FF0000;}
	.st1{fill:#C626B6;}
	.st2{fill:#00C473;}
	.st3{fill:#1D1DEA;}
	.st4{fill:#6E6D72;}
</style>
<path class="st0" d="M64.024,97.333C43.093,97.333,0.958,88.988,0,87.209c0,7.935,1.094,17.1,3.283,24.351
	c2.462,8.482,6.293,16.416,11.218,23.667c13.817,19.973,36.116,33.243,61.698,34.337C76.062,169.565,64.024,97.88,64.024,97.333z"/>
<path class="st1" d="M3.01,11.147c-1.642,0-3.01,1.368-3.01,3.146v75.652c1.094,1.778,7.114,5.199,16.143,6.84
	c1.368,0.274,3.01,0.547,4.925,0.821c9.576,1.368,26.813,2.462,44.187,2.462l-1.778-58.141C43.777,15.798,13.407,11.147,3.01,11.147
	"/>
<path class="st2" d="M63.476,0v99.932c4.651,0,30.37,0.684,52.259-1.231c5.472-0.547,10.944-1.231,16.006-2.189
	c12.586-2.326,23.12-6.019,26.813-9.166V9.029C148.978,2.052,108.621,0,63.476,0"/>
<path class="st3" d="M158.554,88.441v-1.231c-3.694,3.01-14.227,6.703-26.813,9.029c-5.062,0.821-10.534,1.505-16.006,2.052
	c-21.888,1.915-47.607,1.231-52.259,1.231v1.505c0,4.378,0.137,8.755,0.274,13.133c0.137,4.378,0.274,8.892,0.684,13.133
	c0.547,9.029,1.642,17.511,3.146,24.624c1.778,7.935,4.241,14.091,7.798,17.374l0.137,0.137c1.094,0,2.326,0.137,3.42,0.137
	c26.95,0,50.891-13.27,65.255-33.517c5.199-7.251,9.166-16.827,11.628-26.813C157.597,102.531,158.554,95.554,158.554,88.441"/>
<path id="path7907" class="st4" d="M191.834,50.918H210.6
	v38.681c0,7.897,6.371,15.697,15.547,15.697c8.559,0,15.474-6.043,15.474-15.697V50.918h18.766v38.681
	c0,21.087-14.781,33.164-34.443,33.164c-20.76,0-34.11-15.014-34.11-32.398V50.918z"/>
<path id="path7911" class="st4" d="M344.654,121.243h-18.766
	V82.562c0-7.897-6.371-15.697-15.547-15.697c-8.559,0-15.474,6.043-15.474,15.697v38.681h-18.766V82.562
	c0-21.087,14.781-33.164,34.443-33.164c20.76,0,34.11,15.014,34.11,32.398V121.243z"/>
<path id="path7913" class="st4" d="M777.03,121.243h-18.766
	V82.562c0-7.897-6.371-15.697-15.547-15.697c-8.559,0-15.474,6.043-15.474,15.697v38.681h-18.766V82.562
	c0-21.087,14.781-33.164,34.443-33.164c20.76,0,34.11,15.014,34.11,32.398V121.243z"/>
<path id="path7915" class="st4" d="M361.71,50.918h18.766v70.277
	H361.71V50.918z"/>
<path id="path7917" class="st4" d="M482.746,50.918h18.766v70.277
	h-18.766V50.918z"/>
<path id="path7919" class="st4" d="M587.838,50.918h18.766v70.277
	h-18.766V50.918z"/>
<path id="path7921" class="st4" d="M393.045,50.918h19.769
	l19.071,42.894l19.227-42.894h19.667l-32.306,70.277h-13.066L393.045,50.918z"/>
<path id="path7923" class="st4" d="M516.014,113.183
	l9.174-13.574c0,0,6.715,7.041,19.092,7.041c5.064,0,9.072-2.594,9.072-5.924c0-10.41-34.088-6.558-34.088-29.213
	c0-13.486,12.556-22.139,27.216-22.139c14.053,0,23.696,7.21,23.696,7.21l-8.903,13.676c0,0-6.683-4.739-13.439-4.739
	c-6.546,0-9.58,2.779-9.58,5.619c0,9.09,34.02,5.346,34.02,29.958c0,13.518-13.003,21.597-27.961,21.597
	C528.146,122.695,516.014,113.183,516.014,113.183L516.014,113.183z"/>
<path id="path7925" class="st4" d="M657.275,49.379c-24.485,0-37.64,19.574-37.64,36.79
	c0,21.772,17.993,36.599,37.604,36.599c20.736,0,37.412-15.508,37.412-36.599C694.652,63.747,676.266,49.379,657.275,49.379z
	 M657.167,66.948c10.302,0,18.551,7.973,18.551,19.185c0,10.897-8.067,19.161-18.311,19.161c-9.02,0-18.79-6.809-18.79-19.053
	C638.617,76.671,645.795,66.948,657.167,66.948z"/>
</svg>
