<svg width="105" height="100" viewBox="0 0 105 100" fill="none" xmlns="http://www.w3.org/2000/svg">
<path d="M0.0246865 55.4665C0.0246865 37.3692 0.024686 19.3131 0.0164568 1.25692C0.0164568 0.829162 0.123437 0.755127 0.526666 0.755127C34.9822 0.763353 69.4295 0.763353 103.885 0.755127C104.272 0.755127 104.379 0.829162 104.379 1.23224C104.371 25.351 104.371 49.4615 104.379 73.5802C104.379 73.9833 104.28 74.0656 103.885 74.0656C82.9006 74.0573 61.9162 74.0573 40.9319 74.0491C40.5862 74.0491 40.3641 74.1643 40.1172 74.3946C38.4467 75.974 36.8667 77.6439 35.1961 79.2233C33.8877 80.4572 32.678 81.7734 31.3614 82.9908C29.9706 84.2659 28.7033 85.6725 27.3126 86.9558C25.9712 88.1897 24.7533 89.547 23.412 90.7726C22.0377 92.0312 20.7951 93.4214 19.4208 94.68C18.0713 95.9221 16.8204 97.263 15.4955 98.538C15.2486 98.7766 14.9442 98.9329 14.722 99.2619C14.5903 98.9329 14.7384 98.6614 14.7631 98.4064C14.9277 96.8928 15.1252 95.3875 15.3227 93.8821C15.5037 92.5001 15.7177 91.1181 15.8905 89.7279C16.0469 88.5434 16.1539 87.3506 16.3102 86.1578C16.4913 84.7759 16.697 83.3939 16.878 82.0037C17.0344 80.8191 17.1496 79.6264 17.2977 78.4336C17.4458 77.2655 17.6269 76.0892 17.7832 74.9211C17.8079 74.7072 17.775 74.4933 17.8573 74.2794C17.9149 74.1396 17.8408 74.0491 17.668 74.0656C17.5693 74.0738 17.4788 74.0656 17.38 74.0656C11.743 74.0656 6.10604 74.0656 0.469061 74.0738C0.0987485 74.0738 0 73.9915 0 73.6131C0.0246875 67.5752 0.0246865 61.5373 0.0246865 55.4665Z" fill="#FEFEFE"/>
<path d="M22.7457 89.5304C20.672 91.5623 18.6147 93.5694 16.4751 95.6671C16.5492 95.0419 16.6068 94.5154 16.6726 93.989C17.0758 90.7808 17.4873 87.5809 17.8987 84.3727C18.3513 80.8437 18.8039 77.3148 19.273 73.7858C19.4129 72.7246 19.4211 72.7246 18.3678 72.7246C12.8378 72.7246 7.31603 72.7164 1.78603 72.7329C1.39103 72.7329 1.3252 72.6177 1.3252 72.2558C1.33342 49.0172 1.33342 25.7787 1.3252 2.5401C1.3252 2.17815 1.39926 2.06299 1.78603 2.06299C35.4022 2.07121 69.0183 2.07121 102.634 2.06299C102.988 2.06299 103.087 2.14525 103.087 2.50719C103.079 25.7622 103.079 49.009 103.087 72.264C103.087 72.6506 102.98 72.7329 102.61 72.7329C81.8887 72.7246 61.1595 72.7246 40.4384 72.7164C40.0681 72.7164 39.8048 72.8151 39.5332 73.0784C36.3897 76.1796 33.2379 79.2644 30.0861 82.3491C27.6503 84.7429 25.2062 87.1284 22.7457 89.5304Z" fill="black"/>
<path d="M28.2507 5.49325C51.8931 5.49325 75.4944 5.49325 99.0956 5.49325C99.7622 5.49325 99.6634 5.45211 99.6634 6.06907C99.6634 26.9632 99.6634 47.8573 99.6634 68.7432C99.6634 69.3684 99.7457 69.2944 99.1203 69.2944C79.0823 69.2944 59.0443 69.2944 39.0145 69.2862C38.6606 69.2862 38.4055 69.3849 38.1504 69.6399C35.7804 71.9843 33.4022 74.3123 31.024 76.6485C28.4235 79.1985 25.8149 81.7486 23.2062 84.2987C22.5315 84.9568 21.8484 85.6066 21.116 86.3223C21.3135 84.7347 21.5028 83.2211 21.7003 81.7075C22.1035 78.5734 22.4985 75.431 22.9018 72.2969C23.0087 71.4578 23.1075 70.6106 23.2309 69.7715C23.2885 69.4013 23.2062 69.2862 22.803 69.2862C16.9768 69.3026 11.1423 69.2944 5.31604 69.2944C4.72354 69.2944 4.72354 69.2944 4.72354 68.7103C4.72354 47.8327 4.72354 26.955 4.72354 6.07729C4.72354 5.44389 4.62479 5.50147 5.32427 5.50147C12.9609 5.49325 20.5811 5.49325 28.2507 5.49325Z" fill="#FDFDFD"/>
<path d="M15.4134 67.0652C12.7389 67.0652 10.1056 67.057 7.47228 67.0735C7.15134 67.0735 7.03613 67.0241 7.03613 66.6622C7.04436 47.076 7.04436 27.4816 7.03613 7.89536C7.03613 7.54164 7.13488 7.47583 7.47228 7.47583C37.2865 7.48406 67.1008 7.48406 96.9151 7.47583C97.2772 7.47583 97.3595 7.56632 97.3595 7.92826C97.3512 27.4898 97.3512 47.0513 97.3595 66.6128C97.3595 66.983 97.2689 67.0817 96.8904 67.0817C77.3379 67.0735 57.7772 67.0735 38.2247 67.0652C37.8955 67.0652 37.6733 67.1475 37.4429 67.3861C34.3734 70.5449 31.2875 73.6954 28.2098 76.846C26.8849 78.2033 25.56 79.5688 24.2269 80.9343C24.1446 81.0166 24.087 81.14 23.9142 81.1729C24.0787 79.9637 24.2433 78.7627 24.4079 77.5699C24.877 74.1561 25.3543 70.7423 25.8398 67.3285C25.8809 67.0159 25.7081 67.0735 25.5353 67.0735C23.297 67.0735 21.0669 67.0735 18.8285 67.0735C17.7011 67.0652 16.582 67.0652 15.4134 67.0652Z" fill="#040405"/>
<path d="M8.25432 10.1411C8.25432 9.71333 8.26255 9.33494 8.25432 8.94831C8.24609 8.74266 8.3037 8.63572 8.52588 8.66863C8.60818 8.67685 8.69047 8.66863 8.77276 8.66863C37.723 8.66863 66.6732 8.66863 95.6234 8.6604C96.0431 8.6604 96.1583 8.74266 96.1583 9.17864C96.1418 27.9011 96.1418 46.6318 96.1583 65.3542C96.1583 65.7738 96.0595 65.856 95.6481 65.856C76.3507 65.8478 57.0615 65.8478 37.7641 65.8396C37.3773 65.8396 37.1222 65.9547 36.8589 66.2427C36.0524 67.1146 35.1966 67.9537 34.3572 68.801C32.0284 71.1783 29.7078 73.5721 27.3707 75.9412C26.8029 76.517 26.1774 77.027 25.6426 77.5123C25.7166 76.9612 25.8071 76.2702 25.9059 75.5792C26.2597 73.0291 26.6054 70.4873 26.9592 67.9372C27.0415 67.3285 27.1238 66.7198 27.2143 66.111C27.2472 65.9136 27.2061 65.8314 26.9921 65.8478C26.8934 65.856 26.8029 65.8478 26.7041 65.8478C20.7133 65.8478 14.7142 65.8396 8.72339 65.856C8.31193 65.856 8.24609 65.7409 8.24609 65.3625C8.25432 46.9773 8.25432 28.5756 8.25432 10.1411Z" fill="#FEFEFE"/>
<path d="M64.9285 33.5441C65.488 30.9776 66.0394 28.4358 66.5743 25.8939C66.6319 25.6307 66.6977 25.4991 67.0187 25.5155C67.5371 25.5484 68.0638 25.532 68.5822 25.5238C68.7797 25.5155 68.8538 25.5649 68.8373 25.7705C68.8209 25.9433 68.8455 26.1243 68.8538 26.3052C68.862 28.5756 68.8702 30.8542 68.8785 33.1246C68.8867 35.2881 68.8949 37.4515 68.9196 39.615C68.9196 39.944 68.8538 40.0345 68.5164 39.9769C68.0967 39.9029 67.677 39.87 67.2491 39.8453C67.0351 39.8288 66.9364 39.7713 66.9446 39.5245C66.9775 37.9944 67.0104 36.4562 67.0187 34.9261C67.0269 33.5688 67.0187 32.2198 67.0187 30.8789C66.8541 31.6439 66.6813 32.4419 66.5085 33.2316C66.2451 34.4326 65.9736 35.6336 65.7267 36.8428C65.6773 37.0978 65.5703 37.1554 65.3482 37.106C65.2823 37.0896 65.2083 37.0896 65.1424 37.0813C64.8133 37.0238 64.3689 37.1965 64.1631 36.9497C63.9656 36.7194 63.9739 36.3081 63.8998 35.9791C63.5295 34.3667 63.1674 32.7544 62.8053 31.1421C62.7724 31.0023 62.7313 30.8542 62.649 30.7226C62.6901 32.2609 62.7313 33.8074 62.7724 35.3457C62.8053 36.6454 62.8465 37.9451 62.8959 39.2448C62.9041 39.4422 62.8218 39.4669 62.6572 39.4587C62.1552 39.4258 61.645 39.3846 61.143 39.3682C60.8797 39.36 60.9126 39.1954 60.9126 39.0309C60.9044 38.1096 60.8962 37.1965 60.8962 36.2752C60.8879 33.0259 60.8797 29.7766 60.8715 26.5356C60.8715 26.4368 60.8715 26.3464 60.8715 26.2477C60.8468 25.5402 60.8468 25.5402 61.538 25.5402C61.933 25.5402 62.3363 25.5484 62.7313 25.532C62.9535 25.5238 63.0522 25.5731 63.1098 25.8199C63.6365 28.1972 64.1714 30.5663 64.7145 32.9436C64.7556 33.1493 64.731 33.3961 64.9285 33.5441Z" fill="#020202"/>
<path d="M83.5263 38.9567C83.3288 37.912 83.1231 36.9085 82.9668 35.8967C82.9092 35.5429 82.7528 35.4278 82.4236 35.4031C81.6336 35.3373 81.683 35.3291 81.6912 36.1188C81.7159 38.0519 81.6995 39.985 81.6995 41.951C81.1152 41.8441 80.5309 41.7454 79.9466 41.6384C79.8314 41.6138 79.7409 41.5644 79.7574 41.4163C79.7656 41.3505 79.7574 41.2765 79.7574 41.2107C79.7492 38.9238 79.7491 36.637 79.7409 34.3419C79.7327 31.5369 79.7245 28.7236 79.708 25.9185C79.708 25.5977 79.7821 25.5072 80.1112 25.5154C81.1975 25.5401 82.2755 25.5236 83.3617 25.5236C84.8348 25.5236 85.5919 26.0501 85.7235 27.5143C85.9128 29.6531 85.9128 31.8083 85.7071 33.9553C85.6495 34.5558 85.3861 35.0905 84.8183 35.3949C84.6126 35.51 84.7113 35.6581 84.736 35.7815C85.0734 37.6406 85.419 39.4914 85.7647 41.3423C85.8552 41.8194 85.9375 42.3047 86.028 42.8477C85.4273 42.716 84.8759 42.5927 84.3246 42.4857C84.1271 42.4446 84.16 42.2965 84.1353 42.1731C83.9213 41.1202 83.7238 40.0508 83.5263 38.9567Z" fill="#020202"/>
<path d="M25.3626 37.616C25.3626 35.0083 25.3709 32.45 25.3791 29.8835C25.3791 28.5426 25.4038 27.2018 25.3955 25.8527C25.3955 25.5895 25.4614 25.499 25.7329 25.5072C26.1938 25.5319 26.6628 25.5237 27.1319 25.5072C27.3294 25.499 27.387 25.5648 27.387 25.7622C27.3623 28.9786 27.3459 32.2032 27.3294 35.4196C27.3212 36.2998 27.3129 37.1717 27.3294 38.0519C27.3459 38.7018 27.5927 38.9074 28.2346 38.8416C28.4403 38.817 28.6461 38.8005 28.8436 38.7676C29.5019 38.6689 29.7405 38.4057 29.757 37.7311C29.7735 37.0484 29.7817 36.3656 29.7899 35.6746C29.7981 32.4171 29.8146 29.1514 29.8146 25.8939C29.8146 25.6059 29.8557 25.4825 30.1849 25.5072C30.6211 25.5401 31.0654 25.5319 31.5016 25.5072C31.7567 25.4908 31.8225 25.573 31.8143 25.828C31.7896 27.5226 31.7814 29.2254 31.7731 30.92C31.7567 33.1903 31.7567 35.469 31.7238 37.7393C31.6991 39.3845 30.8844 40.2976 29.2715 40.5526C28.6872 40.6431 28.1112 40.7254 27.5269 40.7994C26.2761 40.9557 25.4943 40.2236 25.3873 38.7923C25.3462 38.4221 25.3626 38.0437 25.3626 37.616Z" fill="#020202"/>
<path d="M57.7931 35.6418C57.7931 36.0778 57.8013 36.4808 57.7931 36.8757C57.7519 38.3317 57.143 39.0062 55.7111 39.0803C54.8141 39.1214 53.9007 39.0967 53.0037 39.0062C51.8187 38.8911 51.1686 38.1589 51.1604 36.9333C51.1357 33.8403 51.1275 30.7391 51.1604 27.6378C51.1768 26.2723 51.9833 25.5402 53.3493 25.5237C54.1064 25.5155 54.8553 25.5155 55.6124 25.5237C56.9126 25.5484 57.6779 26.2888 57.7273 27.5885C57.7602 28.4358 57.7519 29.283 57.7602 30.1386C57.7766 31.9565 57.7849 33.7745 57.7931 35.6418Z" fill="#030303"/>
<path d="M44.9563 21.8302C58.7237 21.8302 72.45 21.8302 86.1762 21.8302C86.4149 21.8302 86.6864 21.7314 86.6946 22.1839C86.7029 22.6199 86.5136 22.6281 86.1844 22.6281C67.0023 22.6199 47.8201 22.6199 28.6379 22.6199C24.5809 22.6199 20.5239 22.6199 16.4587 22.6199C15.9238 22.6199 15.8662 22.5458 15.932 22.0358C15.9567 21.8795 16.0143 21.8137 16.1624 21.8219C16.2694 21.8302 16.3846 21.8219 16.4916 21.8219C25.9634 21.8302 35.4434 21.8302 44.9563 21.8302Z" fill="black"/>
<path d="M20.384 39.6806C20.5651 39.2529 20.4992 38.8416 20.5075 38.4303C20.5075 38.2575 20.5322 38.1423 20.7379 38.1177C21.3057 38.0436 21.8735 37.9614 22.466 37.8709C22.4825 38.6277 22.5236 39.368 22.3343 40.0919C22.1039 40.9886 21.5773 41.6384 20.6803 41.9346C19.9232 42.1813 19.1497 42.3459 18.3514 42.4117C17.5038 42.4775 16.9772 42.1073 16.7138 41.3011C16.5904 40.9227 16.541 40.5279 16.541 40.1248C16.541 36.1599 16.541 32.2031 16.541 28.2382C16.541 27.9092 16.5739 27.5801 16.648 27.2593C16.8866 26.1406 17.652 25.5154 18.7958 25.5154C19.1908 25.5154 19.594 25.5154 19.989 25.5154C21.5937 25.5154 22.3673 26.2064 22.4825 27.8104C22.5319 28.4932 22.4825 29.176 22.4907 29.867C22.4907 30.0479 22.4166 30.0973 22.2438 30.1055C21.7418 30.122 21.2316 30.1466 20.7297 30.1878C20.5322 30.2042 20.5075 30.1055 20.5075 29.941C20.5157 29.431 20.5157 28.9292 20.5075 28.4192C20.4992 27.8763 20.2688 27.5966 19.7833 27.5472C18.9686 27.465 18.6395 27.6459 18.5242 28.2382C18.4996 28.3698 18.4831 28.5097 18.4831 28.6413C18.4749 32.1373 18.4666 35.6334 18.4666 39.1295C18.4666 39.2529 18.4666 39.3763 18.4749 39.4996C18.5242 40.1248 18.7794 40.3222 19.3965 40.2071C19.7669 40.1495 20.1619 40.1084 20.384 39.6806Z" fill="#010101"/>
<path d="M38.7268 35.2306C38.8914 34.3422 38.4553 33.9226 37.7147 33.6183C37.0069 33.3304 36.3486 32.9355 35.6574 32.6147C35.0731 32.3432 34.7851 31.8743 34.7768 31.2492C34.7686 30.0399 34.7522 28.8389 34.8098 27.6297C34.8674 26.2395 35.6738 25.5074 37.0563 25.5156C37.7229 25.5156 38.3977 25.458 39.0642 25.5732C39.9777 25.7295 40.5619 26.3547 40.6854 27.276C40.7594 27.8518 40.7101 28.4276 40.7348 29.0035C40.743 29.168 40.7018 29.2502 40.5126 29.2502C40.0188 29.2502 39.5251 29.2502 39.0313 29.2831C38.7762 29.2996 38.7351 29.1844 38.7433 28.9706C38.7598 28.6415 38.7598 28.3125 38.7433 27.9834C38.7268 27.5145 38.5129 27.2924 38.0356 27.2513C37.871 27.2349 37.7064 27.2431 37.5501 27.2513C37.0234 27.2842 36.7683 27.5145 36.7518 28.041C36.7272 28.8389 36.7436 29.6286 36.7272 30.4266C36.7189 30.7721 36.8753 31.0024 37.1715 31.1422C37.7969 31.4548 38.4141 31.7756 39.0478 32.0635C40.6278 32.7792 40.6936 32.8779 40.6936 34.5807C40.6936 35.4444 40.6854 36.3082 40.6772 37.1719C40.6607 38.521 39.9283 39.3518 38.5869 39.5163C38.0274 39.5904 37.4678 39.6397 36.9082 39.6726C35.5833 39.7384 34.8509 39.0886 34.7357 37.7642C34.7192 37.5339 34.7522 37.2953 34.7192 37.065C34.6452 36.629 34.8098 36.4562 35.2541 36.4645C35.6491 36.4727 36.0441 36.4151 36.4391 36.3822C36.6366 36.3658 36.7518 36.4069 36.7189 36.6372C36.7025 36.7853 36.7107 36.9416 36.7189 37.0896C36.7189 37.7313 36.9905 37.9616 37.6488 37.8958C38.5705 37.8053 38.6939 37.6737 38.6939 36.7524C38.7022 36.2588 38.7186 35.7653 38.7268 35.2306Z" fill="#020203"/>
<path d="M74.0379 28.2465C74.0461 29.3981 74.0708 30.5087 74.0544 31.6192C74.0544 31.9153 74.1613 31.9811 74.4247 31.9893C75.0666 32.014 75.7084 32.0798 76.3503 32.0963C76.5725 32.1045 76.663 32.1456 76.6466 32.3924C76.6219 32.8284 76.6219 33.2726 76.6466 33.7086C76.663 33.9718 76.5807 34.0294 76.3256 34.0047C75.6591 33.9307 74.9925 33.8978 74.3177 33.8238C74.1202 33.7991 74.0544 33.8484 74.0544 34.0541C74.0708 35.5759 74.0791 37.0977 74.0791 38.6195C74.0791 38.8005 74.1449 38.8416 74.3095 38.8663C75.083 38.965 75.8566 39.0884 76.6301 39.1789C76.8687 39.2036 77.0004 39.2529 76.9839 39.5409C76.9593 39.9604 76.9757 40.3881 77.0004 40.8159C77.0086 41.038 76.9593 41.1367 76.7042 41.0956C75.2558 40.8735 73.8075 40.6514 72.3592 40.4539C72.0547 40.4128 72.1123 40.2154 72.1123 40.0344C72.1041 38.7018 72.1041 37.3774 72.0958 36.0448C72.0876 33.7826 72.0876 31.5205 72.0794 29.2583C72.0711 28.1313 72.0711 27.0126 72.0464 25.8856C72.0382 25.5977 72.1205 25.5237 72.4085 25.5237C73.8075 25.5401 75.2065 25.5401 76.6054 25.5237C76.8605 25.5237 76.9264 25.5895 76.9181 25.8445C76.9017 26.264 76.9181 26.6918 76.9428 27.1195C76.9593 27.3828 76.8605 27.4403 76.6219 27.4321C75.9142 27.3992 75.1982 27.4157 74.4905 27.3663C74.0955 27.3416 73.9803 27.4815 74.0297 27.8434C74.0461 27.9504 74.0379 28.082 74.0379 28.2465Z" fill="#020202"/>
<path d="M43.0307 25.7787C42.9978 25.5319 43.1213 25.5237 43.2776 25.5237C45.0222 25.5237 46.7586 25.5319 48.5031 25.5237C48.7006 25.5237 48.7665 25.573 48.7582 25.7705C48.7418 26.2229 48.9064 26.7987 48.6924 27.0866C48.4867 27.3581 47.8695 27.1607 47.4416 27.1689C46.882 27.1853 46.882 27.1689 46.882 27.7365C46.8738 31.3971 46.8655 35.0577 46.8738 38.71C46.8738 39.0391 46.7832 39.1213 46.4705 39.1131C46.0591 39.0966 45.6476 39.1213 45.2444 39.1625C44.9564 39.1871 44.8741 39.1131 44.8741 38.817C44.8905 36.2011 44.8988 33.5852 44.907 30.9693C44.907 29.8588 44.8905 28.7483 44.9152 27.6378C44.9235 27.3005 44.8658 27.1442 44.4791 27.1853C44.1005 27.2265 43.7138 27.1771 43.327 27.2018C43.0883 27.2182 43.0225 27.1278 43.039 26.8974C43.0472 26.5273 43.0307 26.1735 43.0307 25.7787Z" fill="#010101"/>
<path d="M45.7951 49.0502C45.5153 49.0996 45.6305 49.297 45.6305 49.4204C45.6223 50.5967 45.614 51.7813 45.6305 52.9576C45.6305 53.2373 45.5976 53.3936 45.2602 53.3442C44.9145 53.2948 44.4455 53.4923 44.2398 53.2619C44.0669 53.0727 44.1821 52.6121 44.1821 52.2748C44.1821 49.223 44.1904 46.1629 44.1739 43.111C44.1739 42.7737 44.248 42.6668 44.5936 42.6833C45.4001 42.7079 46.2148 42.6833 47.0212 42.6915C48.0005 42.6997 48.5683 43.2179 48.593 44.1968C48.6259 45.2909 48.6094 46.3932 48.593 47.4873C48.5848 48.022 48.4202 48.5237 47.9264 48.8199C47.6795 48.968 47.8277 49.1407 47.8524 49.2805C48.1239 50.5391 48.3955 51.7895 48.7 53.0398C48.7576 53.2866 48.7247 53.336 48.4695 53.3442C47.4162 53.3689 47.4162 53.3771 47.1858 52.3406C46.9883 51.444 46.7908 50.5556 46.6015 49.6589C46.4699 49.0502 46.4616 49.0502 45.7951 49.0502Z" fill="#010101"/>
<path d="M36.455 44.46C36.455 44.5094 36.455 44.5258 36.455 44.5423C36.4303 44.8631 36.6031 45.3402 36.3891 45.4801C36.0682 45.6857 35.5909 45.5294 35.1877 45.5459C35.0231 45.5541 35.0313 45.4389 35.0313 45.3238C35.0313 45.0605 35.0478 44.8055 35.0231 44.5423C34.9902 44.1392 34.7844 43.9829 34.3154 43.9829C33.8216 43.9829 33.6241 44.1063 33.6077 44.5258C33.5747 45.1675 33.5912 45.8091 33.5912 46.459C33.5912 46.8127 33.8875 46.9278 34.1261 47.0677C34.6857 47.3885 35.2453 47.6929 35.8131 47.9972C36.2904 48.2522 36.4796 48.6471 36.4632 49.1735C36.4467 49.9797 36.4632 50.7941 36.455 51.6002C36.4467 52.8012 35.8871 53.3524 34.6857 53.3524C34.3977 53.3524 34.1096 53.3524 33.8216 53.3524C32.8423 53.3441 32.2992 52.867 32.1758 51.8881C32.0441 50.8599 32.0441 50.8763 33.0563 50.8517C33.4266 50.8434 33.6241 50.8763 33.5912 51.3452C33.5501 51.8964 33.7558 52.0527 34.3401 52.0527C34.8914 52.0527 35.0148 51.9128 35.0231 51.3288C35.0313 50.8188 34.9984 50.317 35.0313 49.807C35.056 49.4039 34.8832 49.1735 34.554 48.9926C33.978 48.68 33.4184 48.3345 32.8341 48.0301C32.3486 47.7751 32.1429 47.3803 32.1429 46.862C32.1346 46.023 32.1182 45.1921 32.1429 44.3531C32.1758 43.2344 32.7354 42.7161 33.8463 42.6997C34.0932 42.6997 34.3401 42.6997 34.5869 42.6997C35.8954 42.6832 36.3727 43.1274 36.455 44.46Z" fill="#050505"/>
<path d="M52.9053 50.3006C53.2592 47.8657 53.6048 45.4555 53.9339 43.0453C53.9751 42.7573 54.0656 42.6422 54.3701 42.6751C54.6417 42.708 54.9214 42.6915 55.193 42.6833C55.3741 42.6751 55.4234 42.7244 55.3905 42.9219C54.8638 46.1547 54.3372 49.3958 53.8105 52.6368C53.6953 53.3442 53.6871 53.3443 52.9794 53.3443C52.0001 53.3443 52.0001 53.3443 51.8437 52.3736C51.3418 49.2724 50.8398 46.1711 50.3296 43.0699C50.272 42.7409 50.3543 42.6586 50.667 42.6915C51.0044 42.7327 51.4405 42.5517 51.6545 42.7573C51.8437 42.9383 51.8026 43.3743 51.8437 43.6951C52.1564 45.875 52.4609 48.0467 52.7736 50.2595C52.8642 50.3993 52.8806 50.5063 52.8148 50.6297C52.8724 50.5392 52.8395 50.4158 52.9053 50.3006Z" fill="#030303"/>
<path d="M64.4586 50.8518C65.3227 50.8518 65.3227 50.8518 65.2486 51.6661C65.1416 52.9001 64.6644 53.336 63.43 53.336C63.1584 53.336 62.8786 53.336 62.6071 53.336C61.4879 53.336 60.9201 52.7684 60.9119 51.6415C60.9036 50.3664 60.9119 49.0914 60.9119 47.8164C60.9119 46.6894 60.9119 45.5707 60.9119 44.4437C60.9201 43.2345 61.4714 42.6833 62.6729 42.6833C63.0597 42.6833 63.4382 42.6669 63.825 42.6998C64.6397 42.7656 65.1416 43.2345 65.2157 44.0488C65.2569 44.5095 65.2404 44.9784 65.2651 45.4473C65.2733 45.62 65.2239 45.7023 65.0429 45.694C64.6561 45.6858 64.1953 45.8174 63.9155 45.6529C63.6275 45.4719 63.8414 44.9784 63.8168 44.6247C63.7838 44.1475 63.6357 43.9995 63.109 43.9913C62.5495 43.983 62.352 44.1229 62.3437 44.6082C62.3355 46.8868 62.3355 49.1572 62.3437 51.4358C62.3437 51.9458 62.533 52.061 63.1831 52.0528C63.6522 52.0445 63.7921 51.9047 63.8085 51.444C63.8168 50.8518 63.8168 50.8518 64.4586 50.8518Z" fill="#020202"/>
<path d="M40.0757 45.7597C40.0757 46.171 40.0839 46.5412 40.0757 46.9114C40.0675 47.1335 40.1333 47.224 40.372 47.2157C40.8081 47.1993 41.2525 47.2157 41.6886 47.2075C41.8779 47.1993 41.9437 47.2486 41.952 47.4543C42.0013 48.5072 42.0096 48.5072 40.9727 48.5072C40.0839 48.5072 40.0839 48.5072 40.0839 49.3956C40.0839 50.1606 40.0922 50.9339 40.0757 51.6989C40.0675 51.9539 40.1251 52.0609 40.4049 52.0444C40.8822 52.0197 41.3677 52.0444 41.845 52.0362C42.0754 52.028 42.1824 52.0609 42.1824 52.3405C42.1906 53.3441 42.2071 53.3441 41.2031 53.3441C40.4378 53.3441 39.6642 53.3359 38.8989 53.3523C38.6932 53.3523 38.6191 53.3112 38.6191 53.0891C38.6274 49.7164 38.6274 46.352 38.6191 42.9793C38.6191 42.7325 38.7014 42.6914 38.9236 42.6914C39.9111 42.6996 40.8986 42.6996 41.8861 42.6914C42.1165 42.6914 42.1824 42.7572 42.1824 42.9875C42.1988 43.9911 42.2071 43.9829 41.1949 43.9911C40.841 43.9911 40.3637 43.876 40.1662 44.0487C39.9276 44.2626 40.1086 44.7479 40.0839 45.1099C40.0675 45.3073 40.0757 45.5129 40.0757 45.7597Z" fill="#030303"/>
<path d="M18.7626 52.4311C19.2481 52.4229 19.7007 52.3982 20.1533 52.4064C20.9186 52.4311 21.3383 52.826 21.4288 53.5828C21.4617 53.8378 21.4782 54.101 21.4782 54.356C21.4864 56.0424 21.4782 57.7287 21.4782 59.415C21.4782 59.522 21.4864 59.6371 21.4782 59.7441C21.4041 60.978 21.0009 61.3564 19.7583 61.3564C19.5526 61.3564 19.3468 61.3646 19.1411 61.3564C18.2359 61.3152 17.7504 60.8793 17.7421 59.9744C17.7175 57.8932 17.7175 55.8038 17.7421 53.7226C17.7421 53.0234 18.0549 52.6614 18.7626 52.4311Z" fill="black"/>
<path d="M70.8612 43.9335C70.244 43.9664 69.6598 43.9829 69.0673 43.9664C68.8368 43.9582 68.7628 44.0322 68.7628 44.2708C68.771 45.151 68.771 46.0229 68.7628 46.9031C68.7628 47.1334 68.8204 47.2239 69.059 47.2075C69.4952 47.191 69.9395 47.2157 70.3757 47.1992C70.5979 47.191 70.639 47.2733 70.6472 47.4789C70.6719 48.499 70.6802 48.499 69.6762 48.499C68.7628 48.499 68.7628 48.499 68.7628 49.412C68.7628 50.1771 68.771 50.9503 68.7545 51.7153C68.7463 51.9703 68.8286 52.0444 69.0837 52.0362C69.5939 52.0197 70.0959 52.0362 70.6061 52.0279C70.8118 52.0197 70.8859 52.0773 70.8941 52.2994C70.9353 53.3359 70.9435 53.3359 69.8984 53.3359C69.1578 53.3359 68.4171 53.3194 67.6765 53.3441C67.372 53.3523 67.3227 53.2536 67.3309 52.9739C67.3391 49.6588 67.3391 46.3355 67.3309 43.0204C67.3309 42.7736 67.3638 42.6667 67.6518 42.6749C68.6229 42.6914 69.6022 42.6914 70.5732 42.6749C70.8283 42.6667 70.9106 42.7407 70.8859 42.9957C70.8694 43.3001 70.8859 43.6045 70.8612 43.9335Z" fill="#010101"/>
<path d="M84.917 14.616C85.1309 14.8874 85.3202 15.126 85.5918 15.4797C85.5918 14.616 85.6164 13.8756 85.5835 13.1353C85.5671 12.7569 85.6823 12.6499 86.0361 12.6993C86.3735 12.7404 86.8097 12.5594 87.0236 12.7651C87.2294 12.979 87.0812 13.415 87.0812 13.7522C87.0895 15.0684 87.073 16.3846 87.0895 17.6925C87.0895 17.9886 86.9989 18.0215 86.7274 18.0544C86.0279 18.1285 85.5341 17.9393 85.1309 17.3141C84.6536 16.5738 84.0611 15.9157 83.4604 15.1424C83.4604 16.0473 83.4522 16.8534 83.4686 17.6514C83.4769 17.9393 83.4275 18.0873 83.0983 18.038C82.7362 17.9886 82.2507 18.1943 82.045 17.9557C81.8639 17.7501 81.9874 17.2812 81.9874 16.9275C81.9874 15.6278 81.9956 14.328 81.9791 13.0283C81.9791 12.7569 82.0614 12.7157 82.3165 12.6828C83.0983 12.5759 83.6744 12.798 84.0694 13.5219C84.2915 13.9085 84.6207 14.2376 84.917 14.616Z" fill="black"/>
<path d="M61.7353 18.0379C60.9782 18.1531 60.4762 17.931 60.073 17.2811C59.6286 16.5737 59.0444 15.9485 58.4601 15.1999C58.4601 16.1048 58.4519 16.9027 58.4683 17.7089C58.4766 17.9721 58.4107 18.0873 58.1309 18.0544C57.7524 18.0133 57.2504 18.2189 57.0282 17.9721C56.839 17.7665 56.9624 17.2729 56.9624 16.9027C56.9624 15.6277 56.9706 14.3527 56.9542 13.0776C56.9459 12.7568 57.0529 12.7157 57.3409 12.691C58.0569 12.6252 58.5671 12.7979 58.9703 13.456C59.39 14.1388 59.9496 14.7311 60.5092 15.4467C60.5092 14.5912 60.5174 13.8262 60.5009 13.0694C60.4927 12.7979 60.5503 12.6746 60.8548 12.6992C61.2169 12.7321 61.7024 12.5923 61.9246 12.7733C62.1632 12.9707 61.9986 13.4643 61.9986 13.8262C62.0069 15.1177 62.0069 16.4009 61.9986 17.6924C62.0069 17.8405 62.0809 18.0708 61.7353 18.0379Z" fill="black"/>
<path d="M70.2445 18.038C69.9977 18.0545 70.0059 17.9146 70.0059 17.7666C70.0059 16.1625 70.0059 14.5584 70.0059 12.9625C70.0059 12.7487 70.08 12.6829 70.2857 12.6829C71.5447 12.6911 72.8038 12.6911 74.0711 12.6829C74.2933 12.6829 74.3427 12.7569 74.3427 12.9625C74.3673 13.9743 74.3756 13.9744 73.3552 13.9744C72.8779 13.9744 72.3923 13.9908 71.9151 13.9661C71.5941 13.9497 71.5036 14.0402 71.4871 14.3692C71.4789 14.7394 71.6517 14.7558 71.9233 14.7476C72.5405 14.7311 73.1577 14.7558 73.7748 14.7394C74.0382 14.7311 74.0876 14.8216 74.0876 15.0684C74.0876 15.9486 74.0958 15.9486 73.2235 15.9486C72.7462 15.9486 72.2607 15.9651 71.7834 15.9404C71.4378 15.9239 71.4954 16.146 71.5036 16.3434C71.5036 16.5409 71.4378 16.763 71.7834 16.7547C72.524 16.7383 73.2646 16.763 74.0053 16.7383C74.3262 16.7301 74.392 16.837 74.392 17.1414C74.3838 18.038 74.392 18.038 73.4951 18.038C72.4253 18.038 71.3555 18.038 70.2445 18.038Z" fill="black"/>
<path d="M20.1205 13.8098C20.0382 14.0484 19.8654 13.9661 19.7255 13.9661C19.0261 13.9743 18.3266 13.9908 17.6271 13.9661C17.2815 13.9497 17.3062 14.1306 17.2979 14.3692C17.2897 14.616 17.3062 14.7723 17.6353 14.7558C18.2772 14.7229 18.9191 14.7558 19.5692 14.7394C19.8078 14.7311 19.8654 14.8134 19.8654 15.0437C19.8819 15.9486 19.8901 15.9486 18.9767 15.9486C18.5076 15.9486 18.0468 15.9651 17.5777 15.9404C17.2239 15.9239 17.3062 16.1625 17.3062 16.3434C17.3062 16.5244 17.2156 16.763 17.5695 16.7547C18.3101 16.7383 19.0507 16.763 19.7914 16.7465C20.0794 16.7383 20.2028 16.7877 20.1946 17.1167C20.1781 18.0298 20.1946 18.0298 19.2812 18.0298C18.2361 18.0298 17.1992 18.0216 16.1541 18.038C15.9154 18.038 15.792 18.0133 15.792 17.7172C15.8085 16.146 15.8085 14.5666 15.792 12.9955C15.792 12.724 15.8907 12.6829 16.1212 12.6829C17.3391 12.6911 18.557 12.6993 19.7749 12.6829C20.0629 12.6829 20.1288 12.7816 20.1041 13.0366C20.1041 13.2834 20.1205 13.5301 20.1205 13.8098Z" fill="black"/>
<path d="M38.1996 12.6911C38.5699 12.6335 38.6522 12.7734 38.644 13.0942C38.6275 13.9744 38.644 13.9744 37.7717 13.9744C37.2121 13.9744 36.6443 13.9908 36.0847 13.9662C35.7144 13.9579 35.8378 14.2129 35.8296 14.3857C35.8131 14.5667 35.772 14.7641 36.0929 14.7476C36.7513 14.7229 37.4096 14.7558 38.0679 14.7312C38.3313 14.7229 38.3806 14.8134 38.3806 15.0602C38.3806 15.9404 38.3889 15.9404 37.5083 15.9404C37.0311 15.9404 36.5455 15.9486 36.0682 15.9404C35.6979 15.9322 35.8378 16.1954 35.8214 16.3682C35.8131 16.5409 35.7391 16.763 36.0682 16.7548C36.8336 16.7383 37.6071 16.7548 38.3724 16.7466C38.6111 16.7466 38.7016 16.7959 38.7016 17.0591C38.7098 18.0298 38.7263 18.0298 37.7634 18.0298C36.7348 18.0298 35.7062 18.0216 34.6775 18.038C34.4306 18.038 34.3154 18.0134 34.3237 17.7172C34.3401 16.1378 34.3401 14.5667 34.3237 12.9873C34.3237 12.7158 34.4224 12.6747 34.6528 12.6829C35.8296 12.6993 36.9981 12.6911 38.1996 12.6911Z" fill="black"/>
<path d="M54.6668 18.038C53.5723 18.038 52.5108 18.0298 51.4574 18.0462C51.2023 18.0462 51.1036 17.9887 51.1118 17.709C51.1283 16.146 51.1283 14.5831 51.1118 13.0201C51.1118 12.7404 51.1941 12.6829 51.4574 12.6829C52.6671 12.6993 53.8686 12.6993 55.0783 12.6829C55.3498 12.6829 55.4239 12.7487 55.4239 13.0201C55.4239 13.9743 55.4321 13.9744 54.494 13.9744C53.9591 13.9744 53.4242 13.9908 52.8893 13.9661C52.519 13.9497 52.593 14.18 52.5766 14.3939C52.5601 14.6324 52.6013 14.764 52.8975 14.7558C53.5559 14.7311 54.2142 14.7558 54.8725 14.7394C55.1112 14.7311 55.1605 14.8134 55.1688 15.0437C55.1852 15.9486 55.1935 15.9486 54.28 15.9486C53.811 15.9486 53.3501 15.9651 52.8811 15.9404C52.5108 15.9239 52.5848 16.1543 52.5766 16.3681C52.5684 16.582 52.5519 16.7712 52.8811 16.7548C53.597 16.7301 54.3047 16.7712 55.0207 16.7383C55.3992 16.7218 55.5144 16.8535 55.4568 17.2072C55.4486 17.2319 55.4568 17.2648 55.4568 17.2894C55.4568 18.038 55.4568 18.038 54.6668 18.038Z" fill="black"/>
<path d="M12.5491 57.9919C13.01 57.4161 13.5449 56.9636 14.0468 56.4865C14.3678 56.1822 14.5488 55.8613 14.5077 55.4089C14.4748 54.9894 14.5077 54.5616 14.4994 54.1339C14.4912 53.6814 14.3431 53.5169 13.9645 53.5169C13.5778 53.5169 13.4379 53.6732 13.4297 54.1174C13.4214 54.9894 13.4214 54.9729 12.5327 54.9729C12.2693 54.9729 12.1624 54.9071 12.187 54.6274C12.22 54.2079 12.1541 53.7802 12.2611 53.3606C12.4175 52.7766 12.7549 52.464 13.3556 52.4229C13.767 52.3982 14.1785 52.3982 14.59 52.4311C15.1413 52.4722 15.5528 52.8259 15.6433 53.3689C15.8079 54.3478 15.7256 55.3349 15.6927 56.322C15.6844 56.6099 15.4787 56.8238 15.2812 57.013C14.8533 57.4161 14.4336 57.8356 13.9975 58.2222C13.7424 58.4526 13.6189 58.7076 13.6518 59.053C13.6848 59.4314 13.4955 59.9332 13.7177 60.1636C13.9645 60.4186 14.4748 60.2211 14.8615 60.2458C14.9191 60.2541 14.9685 60.2458 15.0261 60.2458C15.6515 60.2458 15.6268 60.2458 15.6598 60.871C15.6762 61.2576 15.5857 61.3975 15.1742 61.3728C14.3678 61.3399 13.5531 61.3646 12.7466 61.3646C12.6067 61.3646 12.4175 61.4139 12.4257 61.1671C12.4339 60.18 12.4422 59.1929 12.4504 58.2058C12.4668 58.14 12.508 58.0824 12.5491 57.9919Z" fill="black"/>
<path d="M89.5501 52.7356C89.8382 52.4888 90.1509 52.4147 90.4883 52.423C90.7763 52.423 91.0643 52.423 91.3523 52.423C92.0518 52.4394 92.5538 52.8425 92.5867 53.5335C92.6278 54.4466 92.6031 55.3679 92.6031 56.2892C92.6031 56.5936 92.3892 56.7828 92.1917 56.9802C91.7802 57.3833 91.377 57.7946 90.9409 58.1647C90.6117 58.4444 90.5541 58.7899 90.5541 59.193C90.5705 60.2295 90.5623 60.2295 91.5745 60.2295C91.6733 60.2295 91.7638 60.2295 91.8625 60.2295C92.6031 60.2295 92.7101 60.3611 92.5785 61.1097C92.5538 61.266 92.4715 61.3071 92.3316 61.3071C91.4099 61.3071 90.4965 61.3071 89.5748 61.3071C89.3938 61.3071 89.3362 61.2248 89.3362 61.0603C89.3362 60.1801 89.3362 59.3082 89.3444 58.428C89.3526 58.1318 89.4925 57.8768 89.7065 57.6712C90.1673 57.2352 90.6117 56.7992 91.0725 56.3632C91.3029 56.1411 91.4099 55.8944 91.4017 55.5571C91.377 55.0471 91.3935 54.5453 91.3935 54.0353C91.3935 53.7062 91.2453 53.517 90.8997 53.517C90.5541 53.517 90.3566 53.6651 90.3566 54.0353C90.3566 54.0764 90.3566 54.1175 90.3484 54.1587C90.3154 54.4137 90.48 54.7592 90.2661 54.899C90.0027 55.0718 89.6242 54.9401 89.3033 54.9566C89.2045 54.9566 89.1387 54.9155 89.1469 54.8167C89.188 54.1011 88.9741 53.3607 89.5501 52.7356Z" fill="black"/>
<path d="M85.3607 54.323C85.3195 54.5534 85.4759 54.8577 85.2619 54.9153C84.9245 54.9976 84.5542 54.9893 84.2086 54.9071C84.1345 54.8906 84.1345 54.8001 84.1345 54.7343C84.1428 54.2737 84.0934 53.8048 84.2086 53.3441C84.3485 52.8094 84.7764 52.4475 85.336 52.431C85.6898 52.4146 86.0519 52.4146 86.4058 52.431C87.0394 52.4557 87.4838 52.8177 87.5743 53.4346C87.7142 54.3724 87.6319 55.3184 87.6237 56.2644C87.6237 56.5194 87.4673 56.725 87.2863 56.906C86.8337 57.342 86.3893 57.7862 85.9203 58.2139C85.6899 58.4196 85.5582 58.6417 85.5829 58.9625C85.5993 59.2751 85.5993 59.5959 85.5829 59.9085C85.5664 60.1553 85.6569 60.2458 85.912 60.2376C86.3646 60.2211 86.8172 60.2376 87.2698 60.2293C87.4838 60.2211 87.5826 60.2622 87.5908 60.5172C87.6072 61.3152 87.6237 61.3069 86.8255 61.3069C86.126 61.3069 85.4265 61.2905 84.727 61.3152C84.4472 61.3234 84.3485 61.2494 84.3567 60.9532C84.3732 60.1882 84.3814 59.4149 84.3567 58.6499C84.3403 58.1646 84.5542 57.8109 84.8834 57.4983C85.2784 57.1199 85.6816 56.7497 86.0766 56.3713C86.3317 56.1328 86.4552 55.8448 86.4387 55.4911C86.4222 55.0963 86.4387 54.6932 86.4387 54.2984C86.4387 53.6896 86.3153 53.5169 85.9038 53.5169C85.4841 53.5087 85.3607 53.6814 85.3607 54.323Z" fill="black"/>
<path d="M22.4738 18.0381C22.0705 18.0381 21.7002 18.0381 21.2559 18.0381C21.7332 17.3225 22.1775 16.6562 22.6301 15.9981C23.091 15.3153 23.091 15.3153 22.6466 14.649C22.2269 14.0156 21.799 13.3822 21.3382 12.6912C21.9142 12.6912 22.4162 12.6994 22.9099 12.6912C23.091 12.6912 23.1403 12.7981 23.2144 12.9133C23.4695 13.3164 23.7246 13.7112 24.0044 14.1472C24.2677 13.7277 24.5228 13.3575 24.745 12.9709C24.8685 12.7488 25.0248 12.6748 25.2717 12.683C25.6996 12.6994 26.1358 12.6912 26.6295 12.6912C26.1193 13.4562 25.6585 14.1883 25.1647 14.8793C24.9425 15.1919 24.9261 15.414 25.1565 15.7266C25.6832 16.4505 26.1687 17.2155 26.72 18.0381C26.1275 18.0381 25.5926 18.0381 25.0577 18.0381C24.9261 18.0381 24.8931 17.9065 24.8438 17.816C24.5969 17.4376 24.35 17.0592 24.1196 16.6808C24.0126 16.5163 23.9386 16.5163 23.8398 16.6808C23.6341 17.0181 23.3872 17.3307 23.2062 17.6844C23.0416 17.9888 22.8276 18.0875 22.4738 18.0381Z" fill="black"/>
<path d="M66.7713 12.6006C67.4708 12.6828 68.0222 12.979 68.4583 13.489C68.6064 13.6617 68.5982 13.7522 68.4172 13.8756C68.2937 13.9579 68.1703 14.0483 68.0633 14.1553C67.7341 14.4761 67.4544 14.6077 67.0347 14.1964C66.6644 13.8262 66.0719 13.8756 65.6604 14.1471C65.216 14.4514 64.9691 15.0848 65.0761 15.6277C65.1749 16.1542 65.4382 16.5573 65.9566 16.7136C66.4668 16.8616 66.9359 16.7383 67.298 16.3352C67.4626 16.1542 67.5778 16.1295 67.7671 16.294C67.9399 16.4503 68.1291 16.5902 68.3349 16.6889C68.7134 16.8781 68.5817 17.0591 68.3842 17.2894C67.6272 18.1449 66.1953 18.4081 65.0514 17.8981C64.0146 17.4375 63.3727 16.2776 63.5044 15.1177C63.7101 13.4232 64.9774 12.436 66.7713 12.6006Z" fill="black"/>
<path d="M29.1234 12.9708C30.2919 12.4032 31.4028 12.3786 32.4644 13.1765C32.5302 13.2258 32.5878 13.2834 32.6454 13.341C32.9417 13.5878 32.9417 13.7934 32.5878 13.9826C32.5385 14.0073 32.4973 14.0484 32.4562 14.0813C32.2587 14.2294 32.0859 14.4515 31.8637 14.5091C31.6333 14.5667 31.5263 14.2459 31.3205 14.1389C30.8926 13.9086 30.4647 13.8675 30.0368 14.1225C29.5513 14.4104 29.3702 14.8793 29.3867 15.414C29.4031 15.9816 29.6336 16.4504 30.1931 16.6808C30.7527 16.9111 31.2383 16.7466 31.6415 16.3271C31.7896 16.1708 31.9048 16.1379 32.0776 16.2859C32.2834 16.4669 32.5138 16.6232 32.7442 16.763C32.9499 16.8864 32.9664 16.9769 32.81 17.1661C32.1023 18.0216 30.835 18.3836 29.7159 18.0298C28.6131 17.6761 27.889 16.7137 27.8314 15.5538C27.7738 14.4515 28.1935 13.6042 29.1234 12.9708Z" fill="black"/>
<path d="M58.6413 42.7984C58.6496 46.2122 58.6413 49.5849 58.6578 52.9575C58.6578 53.2948 58.559 53.3771 58.2463 53.3524C57.9172 53.3195 57.481 53.4593 57.2917 53.2948C57.0696 53.0974 57.2259 52.6532 57.2177 52.3159C57.2095 49.2311 57.2177 46.1464 57.2095 43.0616C57.2095 42.749 57.2835 42.6421 57.588 42.6914C57.9336 42.7326 58.2957 42.6092 58.6413 42.7984Z" fill="black"/>
<path d="M45.3836 60.0978C45.3013 60.3446 45.2026 60.5667 45.1614 60.7888C45.1038 61.1014 44.9228 61.1343 44.643 61.159C44.2727 61.1836 44.141 61.052 44.0258 60.6983C43.6637 59.5384 43.2522 58.395 42.8655 57.2516C42.8161 57.1117 42.775 56.9719 42.7256 56.8238C43.7213 56.7004 43.7213 56.7004 43.9929 57.5806C44.1904 58.2223 44.3961 58.8639 44.6759 59.5055C44.9392 58.6994 45.2273 57.9014 45.4659 57.0871C45.5482 56.8074 45.6963 56.7663 45.935 56.7827C46.1818 56.7992 46.4205 56.7169 46.5275 57.0871C46.7579 57.9097 47.0541 58.7158 47.3586 59.6454C47.6219 58.7734 47.8688 58.0166 48.0745 57.2598C48.1733 56.9061 48.305 56.7004 48.7164 56.7827C48.8728 56.8156 49.0456 56.7909 49.2595 56.7909C49.1032 57.268 48.9633 57.704 48.8152 58.1318C48.5025 59.0449 48.1733 59.958 47.8935 60.8793C47.8112 61.159 47.6466 61.1672 47.4409 61.1425C47.2187 61.1178 46.9636 61.2577 46.8566 60.8875C46.6097 60.0649 46.3053 59.267 46.0008 58.4032C45.7786 58.9873 45.5811 59.5302 45.3836 60.0978Z" fill="black"/>
<path d="M48.1653 16.7218C48.6344 16.7218 49.054 16.73 49.482 16.7218C49.6795 16.7136 49.7288 16.7876 49.7371 16.9768C49.7864 18.038 49.7947 18.038 48.7331 18.038C47.8032 18.038 46.8733 18.0297 45.9434 18.0462C45.7048 18.0462 45.6143 18.0051 45.6143 17.7336C45.6307 16.1624 45.6225 14.583 45.6143 13.0119C45.6143 12.7733 45.6554 12.6664 45.927 12.6828C46.215 12.7075 46.503 12.7075 46.791 12.6828C47.079 12.6581 47.1613 12.7486 47.1613 13.0448C47.1449 14.1141 47.1778 15.1835 47.1449 16.2447C47.1284 16.656 47.2601 16.7794 47.6469 16.7218C47.795 16.7053 47.9596 16.7218 48.1653 16.7218Z" fill="black"/>
<path d="M40.183 16.5574C40.183 15.3564 40.1913 14.1883 40.1748 13.0284C40.1748 12.7652 40.2406 12.6583 40.5122 12.6912C40.8907 12.7323 41.3927 12.5266 41.6067 12.7734C41.7959 12.9873 41.6725 13.4726 41.6725 13.8428C41.6725 14.7065 41.6807 15.5703 41.6725 16.4258C41.6725 16.6643 41.7383 16.7301 41.977 16.7219C42.6353 16.7055 43.2937 16.7301 43.952 16.7137C44.2071 16.7055 44.2729 16.7877 44.2729 17.0345C44.2812 18.0299 44.2976 18.0299 43.3183 18.0299C42.372 18.0299 41.4256 18.0216 40.4875 18.0381C40.2571 18.0381 40.1748 17.9805 40.183 17.742C40.1995 17.3636 40.183 16.9852 40.183 16.5574Z" fill="black"/>
<path d="M65.4633 60.9285C64.6322 61.2329 63.8093 61.0684 62.9946 61.1095C62.8053 61.1177 62.8135 60.9861 62.8135 60.8627C62.8135 59.5877 62.8135 58.3127 62.8135 57.0458C62.8135 56.8813 62.8629 56.7826 63.0439 56.7908C63.727 56.8155 64.41 56.725 65.093 56.8731C66.0064 57.0705 66.6895 57.778 66.7718 58.6088C66.8787 59.7193 66.4426 60.509 65.4633 60.9285Z" fill="black"/>
<path d="M57.2007 60.073C57.2007 59.0694 57.2171 58.1152 57.1924 57.1527C57.1842 56.8319 57.2912 56.7661 57.5874 56.7743C58.1223 56.799 58.6572 56.7661 59.1921 56.7826C60.3031 56.8072 60.8544 57.4077 60.7639 58.4689C60.731 58.8802 60.5335 59.2092 60.1796 59.3984C59.8998 59.5465 59.9328 59.6699 60.0973 59.8838C60.3771 60.254 60.6158 60.6488 60.9203 61.1012C60.5499 61.1012 60.2619 61.093 59.9657 61.1012C59.8011 61.1095 59.7188 61.0107 59.6447 60.8956C59.4308 60.5748 59.225 60.254 59.0029 59.9414C58.9452 59.8591 58.9041 59.7604 58.7724 59.7357C58.2787 59.6288 58.1388 59.7357 58.1388 60.2293C58.1388 60.3938 58.1223 60.5583 58.1388 60.7228C58.1799 61.0437 58.0483 61.1177 57.7438 61.1095C57.0937 61.0848 57.2007 61.1588 57.1924 60.5583C57.2007 60.4185 57.2007 60.2622 57.2007 60.073Z" fill="black"/>
<path d="M54.7897 59.7852C54.9543 60.1636 55.0942 60.5174 55.2423 60.8711C55.3081 61.0274 55.3164 61.1343 55.0859 61.1179C54.946 61.1096 54.8061 61.1014 54.6745 61.1179C54.3947 61.159 54.2548 61.0356 54.156 60.7806C53.9256 60.1554 53.9092 60.1636 53.2426 60.1636C53.1603 60.1636 53.078 60.1719 52.9957 60.1636C52.3785 60.0567 51.9424 60.2048 51.8272 60.904C51.7943 61.0932 50.922 61.2248 50.815 61.0767C50.7409 60.978 50.8397 60.8875 50.8726 60.8135C51.3993 59.5549 51.9506 58.3128 52.4608 57.046C52.6254 56.6347 52.9299 56.8403 53.185 56.791C53.399 56.7498 53.5142 56.8321 53.6047 57.0542C53.9915 57.9591 54.3865 58.8557 54.7897 59.7852Z" fill="black"/>
<path d="M37.9941 60.2377C37.9447 60.3282 37.9201 60.3857 37.8871 60.4515C37.5497 61.2166 37.558 61.2166 36.6445 61.0603C37.2288 59.6783 37.8048 58.3046 38.4056 56.939C38.5455 56.6182 38.8664 56.8321 39.1051 56.791C39.2532 56.7663 39.3766 56.7827 39.4589 56.9719C40.002 58.2799 40.5616 59.5796 41.113 60.8875C41.1377 60.9451 41.1953 61.0027 41.1377 61.0767C41.0554 61.1837 40.2242 61.1096 40.1419 60.9862C40.1337 60.978 40.1255 60.9616 40.1255 60.9533C40.002 60.1307 39.426 60.0896 38.7759 60.1636C38.5208 60.1883 38.2574 60.0978 37.9941 60.2377Z" fill="black"/>
<path d="M78.7781 12.8722C78.7781 12.6912 78.8686 12.6994 78.9756 12.6912C80.2758 12.576 80.2758 12.5678 80.2758 13.8675C80.2758 15.1261 80.2593 16.3847 80.284 17.6433C80.2923 17.9805 80.177 18.0628 79.8726 18.0381C79.6175 18.0134 79.3541 18.0134 79.0908 18.0381C78.8275 18.0628 78.7699 17.9641 78.7781 17.7173C78.7863 16.1215 78.7781 14.5174 78.7781 12.8722Z" fill="black"/>
<path d="M83.8467 28.6168C83.8549 29.8836 83.8549 31.1175 83.8467 32.3514C83.8467 32.557 83.8302 32.7627 83.7809 32.9601C83.6821 33.4125 83.4188 33.5935 82.9497 33.5606C82.8016 33.5524 82.6535 33.5195 82.5053 33.503C81.6824 33.4125 81.6824 33.4208 81.6824 32.6146C81.6742 31.0352 81.6824 29.464 81.6577 27.8846C81.6495 27.572 81.74 27.4733 82.0445 27.5145C82.2585 27.5474 82.4806 27.5309 82.7028 27.5391C83.5587 27.6132 83.6903 27.7366 83.8467 28.6168Z" fill="#F7F7F7"/>
<path d="M55.794 30.1302C55.8023 32.269 55.8105 34.3666 55.8105 36.4561C55.8105 37.2211 55.6048 37.4185 54.8312 37.4185C54.5267 37.4185 54.2305 37.4103 53.926 37.3938C53.3582 37.3527 53.1278 37.1059 53.1278 36.5219C53.1278 34.5888 53.1278 32.6556 53.1278 30.7225C53.1278 29.8752 53.1113 29.028 53.1113 28.1724C53.1113 27.3827 53.3335 27.1689 54.1071 27.1606C54.3704 27.1606 54.6255 27.1524 54.8888 27.1606C55.5307 27.1771 55.7858 27.4239 55.7858 28.0655C55.794 28.7483 55.794 29.4146 55.794 30.1302Z" fill="#F9F9F9"/>
<path d="M46.9881 44.1392C47.1527 44.312 47.1774 44.5012 47.1774 44.6986C47.1774 45.4883 47.1856 46.2862 47.1774 47.0759C47.1692 47.6189 46.9799 47.8081 46.4285 47.8163C45.6303 47.8245 45.6303 47.8245 45.6303 47.0101C45.6303 46.1053 45.6385 45.2004 45.6221 44.3038C45.6221 44.0652 45.6632 43.9418 45.9348 43.9747C46.2722 44.0159 46.6425 43.8842 46.9881 44.1392Z" fill="#F9F9FA"/>
<path d="M18.9521 57.3585C18.9521 56.2644 18.9521 55.2115 18.9521 54.1585C18.9521 53.665 19.0756 53.5334 19.487 53.5087C20.0384 53.484 20.2359 53.6156 20.2441 54.1174C20.2606 55.9518 20.2606 57.7862 20.2441 59.6206C20.2359 60.1553 20.0878 60.2623 19.5529 60.2458C19.0838 60.2294 18.9521 60.0895 18.9521 59.5795C18.9521 58.8474 18.9521 58.1235 18.9521 57.3585Z" fill="#FCFCFD"/>
<path d="M65.4132 59.8755C64.977 60.2868 64.4586 60.2375 63.9566 60.2375C63.792 60.2375 63.8002 60.1223 63.8002 60.0154C63.8002 59.3162 63.8002 58.617 63.8002 57.9177C63.8002 57.8355 63.7673 57.7368 63.9072 57.6874C64.3927 57.5229 65.2321 57.7532 65.5284 58.1563C65.8987 58.6581 65.8658 59.2997 65.4132 59.8755Z" fill="white"/>
<path d="M58.6991 57.6875C58.9048 57.6875 59.0694 57.671 59.234 57.6957C59.5714 57.7369 59.7935 57.9178 59.8018 58.2798C59.8018 58.617 59.6125 58.8062 59.2751 58.8556C59.1928 58.8638 59.1105 58.8803 59.0282 58.8803C57.9337 58.8638 58.1888 59.0366 58.1312 58.0577C58.0983 57.5559 58.4193 57.7122 58.6991 57.6875Z" fill="#FAFCFE"/>
<path d="M52.8229 58.4854C52.897 58.3208 52.9463 58.1892 53.0369 57.9753C53.2014 58.3784 53.3167 58.7075 53.4648 59.0283C53.5471 59.2092 53.5059 59.2751 53.3166 59.2751C53.0698 59.2751 52.8311 59.2751 52.5596 59.2751C52.5678 58.9871 52.7488 58.765 52.8229 58.4854Z" fill="white"/>
<path d="M38.7016 58.4361C38.7674 58.288 38.825 58.1646 38.9073 57.9836C39.0719 58.3867 39.22 58.7404 39.3681 59.0942C39.4257 59.2258 39.4257 59.308 39.2529 59.2998C39.2365 59.2998 39.2282 59.2998 39.2118 59.2998C38.3148 59.3821 38.3066 59.3656 38.7016 58.4361Z" fill="#E7F2F7"/>
</svg>
