<svg width="106" height="34" viewBox="0 0 106 34" fill="black"
  xmlns="http://www.w3.org/2000/svg">
  <path
    d="M13.0723 11.8592V15.4748H21.5478C21.2605 17.4995 20.6859 18.9457 19.6803 19.9581C18.3875 21.2597 16.52 22.5613 13.216 22.5613C8.04451 22.5613 4.02226 18.3673 4.02226 13.1608C4.02226 7.95432 8.04451 3.76022 13.216 3.76022C15.9454 3.76022 18.1002 4.91722 19.5367 6.36346L21.9788 3.90485C19.824 1.59086 17.0946 0 13.0723 0C5.88973 0 0 5.78496 0 13.0162C0 20.2474 6.03338 26.0323 13.0723 26.0323C16.9509 26.0323 19.824 24.7307 22.1224 22.4167C24.4208 20.1027 25.1391 16.7764 25.1391 14.0285C25.1391 13.1608 25.1391 12.4377 24.9954 11.8592H13.0723Z"
    fill="#FFFFFF" />
  <path
    d="M35.7696 8.9668C31.1727 8.9668 27.4377 12.4378 27.4377 17.355C27.4377 22.1276 31.1727 25.7432 35.7696 25.7432C40.3664 25.7432 44.1014 22.1276 44.1014 17.355C44.1014 12.4378 40.3664 8.9668 35.7696 8.9668ZM35.7696 22.4168C33.1838 22.4168 31.029 20.3921 31.029 17.355C31.029 14.3179 33.1838 12.2931 35.7696 12.2931C38.3553 12.2931 40.5101 14.3179 40.5101 17.355C40.5101 20.3921 38.3553 22.4168 35.7696 22.4168Z"
    fill="#FFFFFF" />
  <path
    d="M76.8538 10.8469C75.8483 9.83454 74.2681 8.9668 72.257 8.9668C68.0911 8.9668 64.4998 12.5824 64.4998 17.355C64.4998 22.1276 68.0911 25.7432 72.257 25.7432C74.2681 25.7432 75.8483 24.8754 76.7102 23.8631H76.8538V25.0201C76.8538 28.2018 75.13 29.9373 72.4006 29.9373C70.1022 29.9373 68.8093 28.3464 68.2347 26.9002L65.0744 28.2018C65.9363 30.3712 68.3784 33.119 72.5443 33.119C76.8538 33.119 80.4451 30.5158 80.4451 24.2969V9.40067H76.9975L76.8538 10.8469ZM72.6879 22.4168C70.1022 22.4168 68.2347 20.2475 68.2347 17.355C68.2347 14.3179 70.1022 12.2931 72.6879 12.2931C75.13 12.2931 77.1411 14.4625 77.1411 17.355C77.1411 20.2475 75.13 22.4168 72.6879 22.4168Z"
    fill="#FFFFFF" />
  <path
    d="M54.4441 8.9668C49.8473 8.9668 46.1123 12.4378 46.1123 17.355C46.1123 22.1276 49.8473 25.7432 54.4441 25.7432C59.041 25.7432 62.7759 22.1276 62.7759 17.355C62.7759 12.4378 59.041 8.9668 54.4441 8.9668ZM54.4441 22.4168C51.8584 22.4168 49.7036 20.3921 49.7036 17.355C49.7036 14.3179 51.8584 12.2931 54.4441 12.2931C57.0299 12.2931 59.1846 14.3179 59.1846 17.355C59.1846 20.3921 57.0299 22.4168 54.4441 22.4168Z"
    fill="#FFFFFF" />
  <path d="M83.1748 0.289062H86.7661V25.7429H83.1748V0.289062Z" fill="#FFFFFF" />
  <path
    d="M97.9705 22.4169C96.103 22.4169 94.8101 21.5492 93.9482 19.8137L105.153 15.1857L104.722 14.1734C104.004 12.2932 101.849 8.82227 97.5395 8.82227C93.23 8.82227 89.6387 12.2932 89.6387 17.2105C89.6387 21.9831 93.23 25.5987 97.9705 25.5987C101.849 25.5987 104.004 23.2847 104.866 21.8384L101.993 19.9583C101.131 21.5492 99.838 22.4169 97.9705 22.4169ZM97.6832 12.1486C99.1197 12.1486 100.413 12.8717 100.844 14.0287L93.23 17.0658C93.23 13.5949 95.8157 12.1486 97.6832 12.1486Z"
    fill="#FFFFFF" />
</svg>