<svg width="40" height="40" viewBox="0 0 40 40" fill="none" xmlns="http://www.w3.org/2000/svg">
<mask id="mask0_1567_6932" style="mask-type:alpha" maskUnits="userSpaceOnUse" x="0" y="0" width="40" height="40">
<rect width="40" height="40" fill="#D9D9D9"/>
</mask>
<g mask="url(#mask0_1567_6932)">
<path d="M21.6667 13.3333V6.66667C21.6667 6.19444 21.8267 5.79833 22.1467 5.47833C22.4656 5.15944 22.8611 5 23.3333 5H33.3333C33.8056 5 34.2011 5.15944 34.52 5.47833C34.84 5.79833 35 6.19444 35 6.66667V13.3333C35 13.8056 34.84 14.2011 34.52 14.52C34.2011 14.84 33.8056 15 33.3333 15H23.3333C22.8611 15 22.4656 14.84 22.1467 14.52C21.8267 14.2011 21.6667 13.8056 21.6667 13.3333ZM5 20V6.66667C5 6.19444 5.16 5.79833 5.48 5.47833C5.79889 5.15944 6.19444 5 6.66667 5H16.6667C17.1389 5 17.535 5.15944 17.855 5.47833C18.1739 5.79833 18.3333 6.19444 18.3333 6.66667V20C18.3333 20.4722 18.1739 20.8678 17.855 21.1867C17.535 21.5067 17.1389 21.6667 16.6667 21.6667H6.66667C6.19444 21.6667 5.79889 21.5067 5.48 21.1867C5.16 20.8678 5 20.4722 5 20ZM21.6667 33.3333V20C21.6667 19.5278 21.8267 19.1317 22.1467 18.8117C22.4656 18.4928 22.8611 18.3333 23.3333 18.3333H33.3333C33.8056 18.3333 34.2011 18.4928 34.52 18.8117C34.84 19.1317 35 19.5278 35 20V33.3333C35 33.8056 34.84 34.2011 34.52 34.52C34.2011 34.84 33.8056 35 33.3333 35H23.3333C22.8611 35 22.4656 34.84 22.1467 34.52C21.8267 34.2011 21.6667 33.8056 21.6667 33.3333ZM5 33.3333V26.6667C5 26.1944 5.16 25.7983 5.48 25.4783C5.79889 25.1594 6.19444 25 6.66667 25H16.6667C17.1389 25 17.535 25.1594 17.855 25.4783C18.1739 25.7983 18.3333 26.1944 18.3333 26.6667V33.3333C18.3333 33.8056 18.1739 34.2011 17.855 34.52C17.535 34.84 17.1389 35 16.6667 35H6.66667C6.19444 35 5.79889 34.84 5.48 34.52C5.16 34.2011 5 33.8056 5 33.3333ZM8.33333 18.3333H15V8.33333H8.33333V18.3333ZM25 31.6667H31.6667V21.6667H25V31.6667ZM25 11.6667H31.6667V8.33333H25V11.6667ZM8.33333 31.6667H15V28.3333H8.33333V31.6667Z" fill="#16A87A"/>
</g>
</svg>
